%TF.GenerationSoftware,KiCad,Pcbnew,8.0.5*%
%TF.CreationDate,2024-11-07T23:04:13-05:00*%
%TF.ProjectId,LF02E1,4c463032-4531-42e6-9b69-6361645f7063,rev?*%
%TF.SameCoordinates,Original*%
%TF.FileFunction,Soldermask,Bot*%
%TF.FilePolarity,Negative*%
%FSLAX46Y46*%
G04 Gerber Fmt 4.6, Leading zero omitted, Abs format (unit mm)*
G04 Created by KiCad (PCBNEW 8.0.5) date 2024-11-07 23:04:13*
%MOMM*%
%LPD*%
G01*
G04 APERTURE LIST*
G04 Aperture macros list*
%AMRoundRect*
0 Rectangle with rounded corners*
0 $1 Rounding radius*
0 $2 $3 $4 $5 $6 $7 $8 $9 X,Y pos of 4 corners*
0 Add a 4 corners polygon primitive as box body*
4,1,4,$2,$3,$4,$5,$6,$7,$8,$9,$2,$3,0*
0 Add four circle primitives for the rounded corners*
1,1,$1+$1,$2,$3*
1,1,$1+$1,$4,$5*
1,1,$1+$1,$6,$7*
1,1,$1+$1,$8,$9*
0 Add four rect primitives between the rounded corners*
20,1,$1+$1,$2,$3,$4,$5,0*
20,1,$1+$1,$4,$5,$6,$7,0*
20,1,$1+$1,$6,$7,$8,$9,0*
20,1,$1+$1,$8,$9,$2,$3,0*%
G04 Aperture macros list end*
%ADD10C,1.524000*%
%ADD11R,1.950000X1.950000*%
%ADD12C,1.950000*%
%ADD13C,0.650000*%
%ADD14O,2.304000X1.204000*%
%ADD15RoundRect,0.301000X0.701000X-0.301000X0.701000X0.301000X-0.701000X0.301000X-0.701000X-0.301000X0*%
%ADD16R,2.600000X2.600000*%
%ADD17C,2.600000*%
%ADD18C,2.184000*%
G04 APERTURE END LIST*
D10*
%TO.C,U6*%
X163000000Y-82899267D03*
X163000000Y-80899267D03*
X163000000Y-78899267D03*
X168000000Y-82899267D03*
X168000000Y-80899267D03*
X168000000Y-78899267D03*
%TD*%
D11*
%TO.C,J2*%
X166000000Y-121399267D03*
D12*
X166000000Y-116399267D03*
%TD*%
D11*
%TO.C,J3*%
X121000000Y-69399267D03*
D12*
X121000000Y-64399267D03*
%TD*%
D13*
%TO.C,J5*%
X190900000Y-124789267D03*
X190900000Y-119009267D03*
D14*
X190320000Y-126219267D03*
X190320000Y-117579267D03*
D15*
X194500000Y-126219267D03*
X194500000Y-117579267D03*
%TD*%
D10*
%TO.C,U4*%
X127500000Y-115399267D03*
X129500000Y-115399267D03*
X131500000Y-115399267D03*
X127500000Y-120399267D03*
X129500000Y-120399267D03*
X131500000Y-120399267D03*
%TD*%
%TO.C,U3*%
X132000000Y-78899267D03*
X132000000Y-80899267D03*
X132000000Y-82899267D03*
X127000000Y-78899267D03*
X127000000Y-80899267D03*
X127000000Y-82899267D03*
%TD*%
D16*
%TO.C,J7*%
X163000000Y-136899267D03*
D17*
X168000000Y-136899267D03*
X173000000Y-136899267D03*
X178000000Y-136899267D03*
X183000000Y-136899267D03*
X188000000Y-136899267D03*
%TD*%
D11*
%TO.C,J4*%
X174000000Y-64399267D03*
D12*
X174000000Y-69399267D03*
%TD*%
D18*
%TO.C,U1*%
X138621404Y-104114059D03*
X141161404Y-104114059D03*
X143701404Y-104114059D03*
X146241404Y-104114059D03*
X148781404Y-104114059D03*
X151321404Y-104114059D03*
X153861404Y-104114059D03*
X156401404Y-104114059D03*
X156401404Y-88874059D03*
X153861404Y-88874059D03*
X151321404Y-88874059D03*
X148781404Y-88874059D03*
X146241404Y-88874059D03*
X143701404Y-88874059D03*
X141161404Y-88874059D03*
X138621404Y-88874059D03*
%TD*%
D16*
%TO.C,J6*%
X107025000Y-136899267D03*
D17*
X112025000Y-136899267D03*
X117025000Y-136899267D03*
X122025000Y-136899267D03*
X127025000Y-136899267D03*
X132025000Y-136899267D03*
%TD*%
M02*
