%TF.GenerationSoftware,KiCad,Pcbnew,8.0.5*%
%TF.CreationDate,2024-11-07T23:04:13-05:00*%
%TF.ProjectId,LF02E1,4c463032-4531-42e6-9b69-6361645f7063,rev?*%
%TF.SameCoordinates,Original*%
%TF.FileFunction,Paste,Top*%
%TF.FilePolarity,Positive*%
%FSLAX46Y46*%
G04 Gerber Fmt 4.6, Leading zero omitted, Abs format (unit mm)*
G04 Created by KiCad (PCBNEW 8.0.5) date 2024-11-07 23:04:13*
%MOMM*%
%LPD*%
G01*
G04 APERTURE LIST*
G04 Aperture macros list*
%AMRoundRect*
0 Rectangle with rounded corners*
0 $1 Rounding radius*
0 $2 $3 $4 $5 $6 $7 $8 $9 X,Y pos of 4 corners*
0 Add a 4 corners polygon primitive as box body*
4,1,4,$2,$3,$4,$5,$6,$7,$8,$9,$2,$3,0*
0 Add four circle primitives for the rounded corners*
1,1,$1+$1,$2,$3*
1,1,$1+$1,$4,$5*
1,1,$1+$1,$6,$7*
1,1,$1+$1,$8,$9*
0 Add four rect primitives between the rounded corners*
20,1,$1+$1,$2,$3,$4,$5,0*
20,1,$1+$1,$4,$5,$6,$7,0*
20,1,$1+$1,$6,$7,$8,$9,0*
20,1,$1+$1,$8,$9,$2,$3,0*%
G04 Aperture macros list end*
%ADD10RoundRect,0.200000X-0.200000X-0.275000X0.200000X-0.275000X0.200000X0.275000X-0.200000X0.275000X0*%
%ADD11RoundRect,0.225000X0.225000X0.250000X-0.225000X0.250000X-0.225000X-0.250000X0.225000X-0.250000X0*%
%ADD12RoundRect,0.225000X-0.225000X-0.250000X0.225000X-0.250000X0.225000X0.250000X-0.225000X0.250000X0*%
%ADD13RoundRect,0.200000X0.275000X-0.200000X0.275000X0.200000X-0.275000X0.200000X-0.275000X-0.200000X0*%
%ADD14RoundRect,0.200000X-0.275000X0.200000X-0.275000X-0.200000X0.275000X-0.200000X0.275000X0.200000X0*%
%ADD15R,1.150000X0.600000*%
%ADD16R,1.150000X0.300000*%
%ADD17RoundRect,0.200000X0.200000X0.275000X-0.200000X0.275000X-0.200000X-0.275000X0.200000X-0.275000X0*%
%ADD18R,0.900000X0.900000*%
%ADD19R,1.500000X0.900000*%
%ADD20R,0.900000X1.500000*%
%ADD21RoundRect,0.250000X-0.850000X-0.350000X0.850000X-0.350000X0.850000X0.350000X-0.850000X0.350000X0*%
%ADD22RoundRect,0.250000X-1.275000X-1.125000X1.275000X-1.125000X1.275000X1.125000X-1.275000X1.125000X0*%
%ADD23RoundRect,0.250000X0.850000X0.350000X-0.850000X0.350000X-0.850000X-0.350000X0.850000X-0.350000X0*%
%ADD24RoundRect,0.250000X1.275000X1.125000X-1.275000X1.125000X-1.275000X-1.125000X1.275000X-1.125000X0*%
G04 APERTURE END LIST*
D10*
%TO.C,R3*%
X128175000Y-59399267D03*
X129825000Y-59399267D03*
%TD*%
D11*
%TO.C,C2*%
X182740000Y-101659267D03*
X181190000Y-101659267D03*
%TD*%
%TO.C,C1*%
X182740000Y-106159267D03*
X181190000Y-106159267D03*
%TD*%
D12*
%TO.C,C7*%
X112711624Y-106001063D03*
X114261624Y-106001063D03*
%TD*%
D13*
%TO.C,R2*%
X159500000Y-79049267D03*
X159500000Y-77399267D03*
%TD*%
D12*
%TO.C,C6*%
X112691924Y-101568494D03*
X114241924Y-101568494D03*
%TD*%
D11*
%TO.C,C4*%
X132550000Y-56399267D03*
X131000000Y-56399267D03*
%TD*%
%TO.C,C5*%
X132550000Y-54399267D03*
X131000000Y-54399267D03*
%TD*%
D14*
%TO.C,R5*%
X184500000Y-112899267D03*
X184500000Y-114549267D03*
%TD*%
D12*
%TO.C,C3*%
X128275000Y-61399267D03*
X129825000Y-61399267D03*
%TD*%
D14*
%TO.C,R1*%
X134250000Y-77424267D03*
X134250000Y-79074267D03*
%TD*%
D15*
%TO.C,J5*%
X189745000Y-125099267D03*
X189745000Y-124299267D03*
D16*
X189745000Y-123149267D03*
X189745000Y-122149267D03*
X189745000Y-121649267D03*
X189745000Y-120649267D03*
D15*
X189745000Y-118699267D03*
X189745000Y-119499267D03*
D16*
X189745000Y-120149267D03*
X189745000Y-121149267D03*
X189745000Y-122649267D03*
X189745000Y-123649267D03*
%TD*%
D17*
%TO.C,R4*%
X191000000Y-129399267D03*
X189350000Y-129399267D03*
%TD*%
D18*
%TO.C,U5*%
X144618867Y-60566897D03*
X144618867Y-61966897D03*
X144618867Y-63366897D03*
X146018867Y-60566897D03*
X146018867Y-61966897D03*
X146018867Y-63366897D03*
X147418867Y-60566897D03*
X147418867Y-61966897D03*
X147418867Y-63366897D03*
D19*
X138768867Y-54246897D03*
X138768867Y-55516897D03*
X138768867Y-56786897D03*
X138768867Y-58056897D03*
X138768867Y-59326897D03*
X138768867Y-60596897D03*
X138768867Y-61866897D03*
X138768867Y-63136897D03*
X138768867Y-64406897D03*
X138768867Y-65676897D03*
X138768867Y-66946897D03*
X138768867Y-68216897D03*
X138768867Y-69486897D03*
X138768867Y-70756897D03*
D20*
X140533867Y-72006897D03*
X141803867Y-72006897D03*
X143073867Y-72006897D03*
X144343867Y-72006897D03*
X145613867Y-72006897D03*
X146883867Y-72006897D03*
X148153867Y-72006897D03*
X149423867Y-72006897D03*
X150693867Y-72006897D03*
X151963867Y-72006897D03*
X153233867Y-72006897D03*
X154503867Y-72006897D03*
D19*
X156268867Y-70756897D03*
X156268867Y-69486897D03*
X156268867Y-68216897D03*
X156268867Y-66946897D03*
X156268867Y-65676897D03*
X156268867Y-64406897D03*
X156268867Y-63136897D03*
X156268867Y-61866897D03*
X156268867Y-60596897D03*
X156268867Y-59326897D03*
X156268867Y-58056897D03*
X156268867Y-56786897D03*
X156268867Y-55516897D03*
X156268867Y-54246897D03*
%TD*%
D21*
%TO.C,U7*%
X186200000Y-101619267D03*
X186200000Y-103899267D03*
D22*
X190825000Y-102374267D03*
X190825000Y-105424267D03*
X194175000Y-102374267D03*
X194175000Y-105424267D03*
D21*
X186200000Y-106179267D03*
%TD*%
D23*
%TO.C,U2*%
X108975000Y-106154267D03*
X108975000Y-103874267D03*
D24*
X104350000Y-105399267D03*
X104350000Y-102349267D03*
X101000000Y-105399267D03*
X101000000Y-102349267D03*
D23*
X108975000Y-101594267D03*
%TD*%
M02*
