%TF.GenerationSoftware,KiCad,Pcbnew,8.0.5*%
%TF.CreationDate,2024-11-07T23:04:13-05:00*%
%TF.ProjectId,LF02E1,4c463032-4531-42e6-9b69-6361645f7063,rev?*%
%TF.SameCoordinates,Original*%
%TF.FileFunction,Copper,L2,Bot*%
%TF.FilePolarity,Positive*%
%FSLAX46Y46*%
G04 Gerber Fmt 4.6, Leading zero omitted, Abs format (unit mm)*
G04 Created by KiCad (PCBNEW 8.0.5) date 2024-11-07 23:04:13*
%MOMM*%
%LPD*%
G01*
G04 APERTURE LIST*
G04 Aperture macros list*
%AMRoundRect*
0 Rectangle with rounded corners*
0 $1 Rounding radius*
0 $2 $3 $4 $5 $6 $7 $8 $9 X,Y pos of 4 corners*
0 Add a 4 corners polygon primitive as box body*
4,1,4,$2,$3,$4,$5,$6,$7,$8,$9,$2,$3,0*
0 Add four circle primitives for the rounded corners*
1,1,$1+$1,$2,$3*
1,1,$1+$1,$4,$5*
1,1,$1+$1,$6,$7*
1,1,$1+$1,$8,$9*
0 Add four rect primitives between the rounded corners*
20,1,$1+$1,$2,$3,$4,$5,0*
20,1,$1+$1,$4,$5,$6,$7,0*
20,1,$1+$1,$6,$7,$8,$9,0*
20,1,$1+$1,$8,$9,$2,$3,0*%
G04 Aperture macros list end*
%TA.AperFunction,ComponentPad*%
%ADD10C,1.524000*%
%TD*%
%TA.AperFunction,ComponentPad*%
%ADD11R,1.950000X1.950000*%
%TD*%
%TA.AperFunction,ComponentPad*%
%ADD12C,1.950000*%
%TD*%
%TA.AperFunction,ComponentPad*%
%ADD13O,2.100000X1.000000*%
%TD*%
%TA.AperFunction,ComponentPad*%
%ADD14RoundRect,0.250000X0.650000X-0.250000X0.650000X0.250000X-0.650000X0.250000X-0.650000X-0.250000X0*%
%TD*%
%TA.AperFunction,ComponentPad*%
%ADD15R,2.600000X2.600000*%
%TD*%
%TA.AperFunction,ComponentPad*%
%ADD16C,2.600000*%
%TD*%
%TA.AperFunction,HeatsinkPad*%
%ADD17C,0.600000*%
%TD*%
%TA.AperFunction,ComponentPad*%
%ADD18C,1.980000*%
%TD*%
%TA.AperFunction,ViaPad*%
%ADD19C,0.600000*%
%TD*%
%TA.AperFunction,ViaPad*%
%ADD20C,0.800000*%
%TD*%
%TA.AperFunction,ViaPad*%
%ADD21C,1.200000*%
%TD*%
%TA.AperFunction,ViaPad*%
%ADD22C,1.400000*%
%TD*%
%TA.AperFunction,Conductor*%
%ADD23C,0.800000*%
%TD*%
%TA.AperFunction,Conductor*%
%ADD24C,0.400000*%
%TD*%
%TA.AperFunction,Conductor*%
%ADD25C,0.600000*%
%TD*%
%TA.AperFunction,Conductor*%
%ADD26C,0.300000*%
%TD*%
G04 APERTURE END LIST*
D10*
%TO.P,U6,1,at*%
%TO.N,GND*%
X163000000Y-82899267D03*
%TO.P,U6,2,at*%
%TO.N,unconnected-(U6-at-Pad2)*%
X163000000Y-80899267D03*
%TO.P,U6,3,n*%
%TO.N,Net-(U5-IO0)*%
X163000000Y-78899267D03*
%TO.P,U6,4,ot*%
%TO.N,unconnected-(U6-ot-Pad4)*%
X168000000Y-82899267D03*
%TO.P,U6,5,ot*%
%TO.N,unconnected-(U6-ot-Pad5)*%
X168000000Y-80899267D03*
%TO.P,U6,6,m*%
%TO.N,unconnected-(U6-m-Pad6)*%
X168000000Y-78899267D03*
%TD*%
D11*
%TO.P,J2,1,Pin_1*%
%TO.N,/VIN*%
X166000000Y-121399267D03*
D12*
%TO.P,J2,2,Pin_2*%
%TO.N,Net-(J2-Pin_2)*%
X166000000Y-116399267D03*
%TD*%
D11*
%TO.P,J3,1,Pin_1*%
%TO.N,Net-(J3-Pin_1)*%
X121000000Y-69399267D03*
D12*
%TO.P,J3,2,Pin_2*%
%TO.N,Net-(J3-Pin_2)*%
X121000000Y-64399267D03*
%TD*%
D13*
%TO.P,J5,SH1,SHELL_GND*%
%TO.N,GND*%
X190320000Y-126219267D03*
%TO.P,J5,SH2,SHELL_GND__1*%
X190320000Y-117579267D03*
D14*
%TO.P,J5,SH3,SHELL_GND__2*%
X194500000Y-126219267D03*
%TO.P,J5,SH4,SHELL_GND__3*%
X194500000Y-117579267D03*
%TD*%
D10*
%TO.P,U4,1,at*%
%TO.N,GND*%
X127500000Y-115399267D03*
%TO.P,U4,2,at*%
%TO.N,unconnected-(U4-at-Pad2)*%
X129500000Y-115399267D03*
%TO.P,U4,3,n*%
%TO.N,Net-(J2-Pin_2)*%
X131500000Y-115399267D03*
%TO.P,U4,4,ot*%
%TO.N,unconnected-(U4-ot-Pad4)*%
X127500000Y-120399267D03*
%TO.P,U4,5,ot*%
%TO.N,unconnected-(U4-ot-Pad5)*%
X129500000Y-120399267D03*
%TO.P,U4,6,m*%
%TO.N,unconnected-(U4-m-Pad6)*%
X131500000Y-120399267D03*
%TD*%
%TO.P,U3,1,at*%
%TO.N,/D4*%
X132000000Y-78899267D03*
%TO.P,U3,2,at*%
%TO.N,unconnected-(U3-at-Pad2)*%
X132000000Y-80899267D03*
%TO.P,U3,3,n*%
%TO.N,GND*%
X132000000Y-82899267D03*
%TO.P,U3,4,ot*%
%TO.N,unconnected-(U3-ot-Pad4)*%
X127000000Y-78899267D03*
%TO.P,U3,5,ot*%
%TO.N,unconnected-(U3-ot-Pad5)*%
X127000000Y-80899267D03*
%TO.P,U3,6,m*%
%TO.N,unconnected-(U3-m-Pad6)*%
X127000000Y-82899267D03*
%TD*%
D15*
%TO.P,J7,1,Pin_1*%
%TO.N,/A6*%
X163000000Y-136899267D03*
D16*
%TO.P,J7,2,Pin_2*%
%TO.N,/A7*%
X168000000Y-136899267D03*
%TO.P,J7,3,Pin_3*%
%TO.N,/D2*%
X173000000Y-136899267D03*
%TO.P,J7,4,Pin_4*%
%TO.N,/3.3V*%
X178000000Y-136899267D03*
%TO.P,J7,5,Pin_5*%
%TO.N,GND*%
X183000000Y-136899267D03*
%TO.P,J7,6,Pin_6*%
%TO.N,unconnected-(J7-Pin_6-Pad6)*%
X188000000Y-136899267D03*
%TD*%
D17*
%TO.P,U5,41,GND*%
%TO.N,GND*%
X144618867Y-61266897D03*
X144618867Y-62666897D03*
X145318867Y-60566897D03*
X145318867Y-61966897D03*
X145318867Y-63366897D03*
X146018867Y-61266897D03*
X146018867Y-62666897D03*
X146718867Y-60566897D03*
X146718867Y-61966897D03*
X146718867Y-63366897D03*
X147418867Y-61266897D03*
X147418867Y-62666897D03*
%TD*%
D11*
%TO.P,J4,1,Pin_1*%
%TO.N,Net-(J4-Pin_1)*%
X174000000Y-64399267D03*
D12*
%TO.P,J4,2,Pin_2*%
%TO.N,Net-(J4-Pin_2)*%
X174000000Y-69399267D03*
%TD*%
D18*
%TO.P,U1,1,VM*%
%TO.N,/VIN*%
X138621404Y-104114059D03*
%TO.P,U1,2,VCC*%
%TO.N,/3.3V*%
X141161404Y-104114059D03*
%TO.P,U1,3,GND*%
%TO.N,GND*%
X143701404Y-104114059D03*
%TO.P,U1,4,A01*%
%TO.N,Net-(J3-Pin_1)*%
X146241404Y-104114059D03*
%TO.P,U1,5,A02*%
%TO.N,Net-(J3-Pin_2)*%
X148781404Y-104114059D03*
%TO.P,U1,6,B02*%
%TO.N,Net-(J4-Pin_2)*%
X151321404Y-104114059D03*
%TO.P,U1,7,B01*%
%TO.N,Net-(J4-Pin_1)*%
X153861404Y-104114059D03*
%TO.P,U1,8,GND*%
%TO.N,GND*%
X156401404Y-104114059D03*
%TO.P,U1,9,GND*%
X156401404Y-88874059D03*
%TO.P,U1,10,PWMB*%
%TO.N,/D5*%
X153861404Y-88874059D03*
%TO.P,U1,11,BI2*%
%TO.N,/D9*%
X151321404Y-88874059D03*
%TO.P,U1,12,BI1*%
%TO.N,/D8*%
X148781404Y-88874059D03*
%TO.P,U1,13,STBY*%
%TO.N,/D10*%
X146241404Y-88874059D03*
%TO.P,U1,14,AI1*%
%TO.N,/D6*%
X143701404Y-88874059D03*
%TO.P,U1,15,AI2*%
%TO.N,/D7*%
X141161404Y-88874059D03*
%TO.P,U1,16,PWMA*%
%TO.N,/D3*%
X138621404Y-88874059D03*
%TD*%
D15*
%TO.P,J6,1,Pin_1*%
%TO.N,/A0*%
X107025000Y-136899267D03*
D16*
%TO.P,J6,2,Pin_2*%
%TO.N,/A1*%
X112025000Y-136899267D03*
%TO.P,J6,3,Pin_3*%
%TO.N,/A2*%
X117025000Y-136899267D03*
%TO.P,J6,4,Pin_4*%
%TO.N,/A3*%
X122025000Y-136899267D03*
%TO.P,J6,5,Pin_5*%
%TO.N,/A4*%
X127025000Y-136899267D03*
%TO.P,J6,6,Pin_6*%
%TO.N,/A5*%
X132025000Y-136899267D03*
%TD*%
D19*
%TO.N,GND*%
X100725000Y-93199267D03*
X194523642Y-125318895D03*
X139875000Y-54224267D03*
X100650000Y-85549267D03*
X190316246Y-116689955D03*
X150075000Y-61199267D03*
X170317607Y-108871036D03*
X127000000Y-99274267D03*
X127942488Y-106592267D03*
X164535839Y-82974085D03*
X194536239Y-127951666D03*
X136631822Y-53400487D03*
X194485851Y-119373115D03*
X108961045Y-107109730D03*
X156397732Y-87109593D03*
X182925000Y-139974267D03*
X154424862Y-54311989D03*
X130150000Y-56399267D03*
X185350000Y-85724267D03*
X185550000Y-95274267D03*
X127492183Y-113585688D03*
X143732816Y-105782858D03*
X132850000Y-83724267D03*
X158455900Y-54244805D03*
X101041853Y-112340901D03*
X163399871Y-129167652D03*
X196400000Y-121949267D03*
X162825921Y-108824297D03*
X108750000Y-112149267D03*
X111000000Y-85374267D03*
X183557565Y-112889705D03*
X130132040Y-54400821D03*
X118850000Y-50174267D03*
X184500000Y-112074267D03*
X180312391Y-106146551D03*
X194473254Y-116727746D03*
X186198916Y-100675568D03*
X162889693Y-100023723D03*
X131150000Y-83674267D03*
X156429073Y-90810712D03*
X175675000Y-58849267D03*
X111042835Y-93008773D03*
X183000000Y-134249267D03*
X110523072Y-106190149D03*
X104075000Y-50124267D03*
X188075000Y-50399267D03*
X190341440Y-127762711D03*
X130825000Y-126749267D03*
X118700000Y-56999267D03*
X175300000Y-50599267D03*
X180293849Y-101652815D03*
X150250000Y-66099267D03*
X127475000Y-61424267D03*
X108750000Y-119299267D03*
X127492183Y-117107247D03*
X188741354Y-118420497D03*
X188525000Y-125124267D03*
X101050000Y-119474267D03*
X101041853Y-126817207D03*
X143325000Y-65999267D03*
%TO.N,/A1*%
X127225000Y-68798069D03*
%TO.N,/A5*%
X139625000Y-82524267D03*
D20*
%TO.N,/3.3V*%
X165000000Y-86399267D03*
X173000000Y-92899267D03*
D21*
X193300000Y-109924267D03*
D19*
%TO.N,/A7*%
X167000000Y-71399267D03*
%TO.N,/A6*%
X166000000Y-73899267D03*
%TO.N,/A3*%
X131500000Y-68774267D03*
%TO.N,/A0*%
X129350000Y-64704179D03*
%TO.N,/A2*%
X129350000Y-68724267D03*
D22*
%TO.N,Net-(J3-Pin_1)*%
X141461514Y-95380508D03*
D19*
%TO.N,/D2*%
X171075000Y-95399267D03*
X153233867Y-77633134D03*
%TO.N,/A4*%
X140550000Y-79399267D03*
%TO.N,/D4*%
X134862500Y-68711767D03*
%TO.N,/D-*%
X173487500Y-112886767D03*
X140075000Y-76599267D03*
%TO.N,/D+*%
X175000000Y-112899267D03*
X139875000Y-74799267D03*
%TD*%
D23*
%TO.N,Net-(J3-Pin_1)*%
X143956241Y-95380508D02*
X146241404Y-97665671D01*
X141461514Y-95380508D02*
X143956241Y-95380508D01*
X146241404Y-97665671D02*
X146241404Y-104114059D01*
D24*
%TO.N,/A3*%
X120500000Y-81464467D02*
X120500000Y-130399267D01*
X131500000Y-70464467D02*
X120500000Y-81464467D01*
X122025000Y-131924267D02*
X122025000Y-136899267D01*
X131500000Y-68774267D02*
X131500000Y-70464467D01*
X120500000Y-130399267D02*
X122025000Y-131924267D01*
%TO.N,/A2*%
X129350000Y-70049267D02*
X118500000Y-80899267D01*
X117025000Y-132874267D02*
X117025000Y-136899267D01*
X129350000Y-68724267D02*
X129350000Y-70049267D01*
X118500000Y-131399267D02*
X117025000Y-132874267D01*
X118500000Y-80899267D02*
X118500000Y-131399267D01*
%TO.N,/D4*%
X132000000Y-71574267D02*
X132000000Y-78899267D01*
X134862500Y-68711767D02*
X132000000Y-71574267D01*
%TO.N,/A1*%
X112025000Y-133924267D02*
X112025000Y-136899267D01*
X116500000Y-129449267D02*
X112025000Y-133924267D01*
X127225000Y-68798069D02*
X127225000Y-69799267D01*
X127225000Y-69799267D02*
X116500000Y-80524267D01*
X116500000Y-80524267D02*
X116500000Y-129449267D01*
%TO.N,/A0*%
X107025000Y-134374267D02*
X107025000Y-135574267D01*
X114500000Y-126899267D02*
X107025000Y-134374267D01*
X125500000Y-69274267D02*
X114500000Y-80274267D01*
X114500000Y-80274267D02*
X114500000Y-126899267D01*
X125500000Y-68541008D02*
X125500000Y-69274267D01*
X129336829Y-64704179D02*
X125500000Y-68541008D01*
X129350000Y-64704179D02*
X129336829Y-64704179D01*
%TO.N,/A5*%
X124500000Y-97649267D02*
X124500000Y-125624267D01*
X124500000Y-125624267D02*
X132025000Y-133149267D01*
X139625000Y-82524267D02*
X124500000Y-97649267D01*
X132025000Y-133149267D02*
X132025000Y-136899267D01*
D25*
%TO.N,/3.3V*%
X178000000Y-133399267D02*
X178000000Y-136899267D01*
X193300000Y-109924267D02*
X193300000Y-112449267D01*
X166500000Y-86399267D02*
X173000000Y-92899267D01*
X193300000Y-112449267D02*
X191375000Y-114374267D01*
X191375000Y-114374267D02*
X183950000Y-114374267D01*
X181500000Y-116824267D02*
X181500000Y-129899267D01*
X183950000Y-114374267D02*
X181500000Y-116824267D01*
X165000000Y-86399267D02*
X166500000Y-86399267D01*
X181500000Y-129899267D02*
X178000000Y-133399267D01*
D24*
%TO.N,/A7*%
X167000000Y-71399267D02*
X169750000Y-74149267D01*
X172750000Y-74149267D02*
X179000000Y-80399267D01*
X168000000Y-134074267D02*
X168000000Y-136899267D01*
X179000000Y-123074267D02*
X168000000Y-134074267D01*
X169750000Y-74149267D02*
X172750000Y-74149267D01*
X179000000Y-80399267D02*
X179000000Y-123074267D01*
%TO.N,/A6*%
X177000000Y-81524267D02*
X177000000Y-120399267D01*
X166000000Y-73899267D02*
X168137500Y-76036767D01*
X163000000Y-134399267D02*
X163000000Y-136899267D01*
X177000000Y-120399267D02*
X163000000Y-134399267D01*
X168137500Y-76036767D02*
X171512500Y-76036767D01*
X171512500Y-76036767D02*
X177000000Y-81524267D01*
%TO.N,/D2*%
X171000000Y-95399267D02*
X171075000Y-95399267D01*
X153233867Y-77633134D02*
X171000000Y-95399267D01*
D23*
%TO.N,/VIN*%
X138621404Y-104114059D02*
X138621404Y-112095671D01*
X147925000Y-121399267D02*
X166000000Y-121399267D01*
X138621404Y-112095671D02*
X147925000Y-121399267D01*
D24*
%TO.N,/A4*%
X122500000Y-127697795D02*
X127025000Y-132222795D01*
X140500000Y-79399267D02*
X122500000Y-97399267D01*
X127025000Y-132222795D02*
X127025000Y-136899267D01*
X122500000Y-97399267D02*
X122500000Y-127697795D01*
X140550000Y-79399267D02*
X140500000Y-79399267D01*
D26*
%TO.N,/D-*%
X173400000Y-112799267D02*
X173400000Y-102299267D01*
X147725000Y-76624267D02*
X140100000Y-76624267D01*
X173400000Y-102299267D02*
X147725000Y-76624267D01*
X140100000Y-76624267D02*
X140075000Y-76599267D01*
X173487500Y-112886767D02*
X173400000Y-112799267D01*
%TO.N,/D+*%
X175000000Y-101899267D02*
X148500000Y-75399267D01*
X175000000Y-112899267D02*
X175000000Y-101899267D01*
X140475000Y-75399267D02*
X139875000Y-74799267D01*
X148500000Y-75399267D02*
X140475000Y-75399267D01*
%TD*%
%TA.AperFunction,Conductor*%
%TO.N,GND*%
G36*
X123461906Y-47020185D02*
G01*
X123507661Y-47072989D01*
X123518867Y-47124500D01*
X123518867Y-52756897D01*
X171518867Y-52756897D01*
X171518867Y-47124500D01*
X171538552Y-47057461D01*
X171591356Y-47011706D01*
X171642867Y-47000500D01*
X196875500Y-47000500D01*
X196942539Y-47020185D01*
X196988294Y-47072989D01*
X196999500Y-47124500D01*
X196999500Y-145875500D01*
X196979815Y-145942539D01*
X196927011Y-145988294D01*
X196875500Y-145999500D01*
X98124500Y-145999500D01*
X98057461Y-145979815D01*
X98011706Y-145927011D01*
X98000500Y-145875500D01*
X98000500Y-135541233D01*
X104724500Y-135541233D01*
X104724500Y-138257295D01*
X104724501Y-138257301D01*
X104735113Y-138376682D01*
X104791089Y-138572312D01*
X104791090Y-138572315D01*
X104791091Y-138572316D01*
X104885302Y-138752674D01*
X104885304Y-138752676D01*
X105013890Y-138910376D01*
X105107803Y-138986951D01*
X105171593Y-139038965D01*
X105351951Y-139133176D01*
X105547582Y-139189153D01*
X105666963Y-139199767D01*
X108383036Y-139199766D01*
X108502418Y-139189153D01*
X108698049Y-139133176D01*
X108878407Y-139038965D01*
X109036109Y-138910376D01*
X109164698Y-138752674D01*
X109258909Y-138572316D01*
X109314886Y-138376685D01*
X109325500Y-138257304D01*
X109325499Y-135541231D01*
X109314886Y-135421849D01*
X109258909Y-135226218D01*
X109164698Y-135045860D01*
X109112684Y-134982070D01*
X109036109Y-134888157D01*
X108920933Y-134794244D01*
X108878407Y-134759569D01*
X108698049Y-134665358D01*
X108698048Y-134665357D01*
X108698045Y-134665356D01*
X108578980Y-134631288D01*
X108502418Y-134609381D01*
X108502415Y-134609380D01*
X108502413Y-134609380D01*
X108429631Y-134602909D01*
X108383037Y-134598767D01*
X108383033Y-134598767D01*
X108090518Y-134598767D01*
X108023479Y-134579082D01*
X107977724Y-134526278D01*
X107967780Y-134457120D01*
X107996805Y-134393564D01*
X108002837Y-134387086D01*
X115044113Y-127345810D01*
X115120774Y-127231079D01*
X115120775Y-127231078D01*
X115173580Y-127103595D01*
X115200500Y-126968260D01*
X115200500Y-80615786D01*
X115220185Y-80548747D01*
X115236819Y-80528105D01*
X115444990Y-80319934D01*
X115655334Y-80109589D01*
X115716655Y-80076106D01*
X115786346Y-80081090D01*
X115842280Y-80122961D01*
X115866697Y-80188426D01*
X115857574Y-80244724D01*
X115826421Y-80319934D01*
X115826418Y-80319944D01*
X115799500Y-80455271D01*
X115799500Y-129107747D01*
X115779815Y-129174786D01*
X115763181Y-129195428D01*
X111480890Y-133477718D01*
X111480884Y-133477725D01*
X111434032Y-133547846D01*
X111434032Y-133547847D01*
X111404223Y-133592458D01*
X111404222Y-133592460D01*
X111351421Y-133719934D01*
X111351418Y-133719944D01*
X111324500Y-133855271D01*
X111324500Y-134618768D01*
X111304815Y-134685807D01*
X111252011Y-134731562D01*
X111240359Y-134736187D01*
X111142744Y-134769323D01*
X110872286Y-134902698D01*
X110872279Y-134902702D01*
X110621540Y-135070240D01*
X110394810Y-135269077D01*
X110195973Y-135495807D01*
X110028435Y-135746546D01*
X110028431Y-135746553D01*
X109895062Y-136016998D01*
X109895053Y-136017019D01*
X109798122Y-136302568D01*
X109798118Y-136302583D01*
X109739288Y-136598336D01*
X109739287Y-136598348D01*
X109719564Y-136899267D01*
X109739287Y-137200185D01*
X109739288Y-137200197D01*
X109798118Y-137495950D01*
X109798122Y-137495965D01*
X109895053Y-137781514D01*
X109895062Y-137781535D01*
X110028431Y-138051980D01*
X110028435Y-138051987D01*
X110195973Y-138302726D01*
X110394810Y-138529456D01*
X110621540Y-138728293D01*
X110872279Y-138895831D01*
X110872286Y-138895835D01*
X111142731Y-139029204D01*
X111142736Y-139029206D01*
X111142748Y-139029212D01*
X111428309Y-139126147D01*
X111628251Y-139165918D01*
X111724069Y-139184978D01*
X111724070Y-139184978D01*
X111724080Y-139184980D01*
X112025000Y-139204703D01*
X112325920Y-139184980D01*
X112621691Y-139126147D01*
X112907252Y-139029212D01*
X113177718Y-138895833D01*
X113428461Y-138728292D01*
X113655189Y-138529456D01*
X113854025Y-138302728D01*
X114021566Y-138051985D01*
X114154945Y-137781519D01*
X114251880Y-137495958D01*
X114310713Y-137200187D01*
X114330436Y-136899267D01*
X114719564Y-136899267D01*
X114739287Y-137200185D01*
X114739288Y-137200197D01*
X114798118Y-137495950D01*
X114798122Y-137495965D01*
X114895053Y-137781514D01*
X114895062Y-137781535D01*
X115028431Y-138051980D01*
X115028435Y-138051987D01*
X115195973Y-138302726D01*
X115394810Y-138529456D01*
X115621540Y-138728293D01*
X115872279Y-138895831D01*
X115872286Y-138895835D01*
X116142731Y-139029204D01*
X116142736Y-139029206D01*
X116142748Y-139029212D01*
X116428309Y-139126147D01*
X116628251Y-139165918D01*
X116724069Y-139184978D01*
X116724070Y-139184978D01*
X116724080Y-139184980D01*
X117025000Y-139204703D01*
X117325920Y-139184980D01*
X117621691Y-139126147D01*
X117907252Y-139029212D01*
X118177718Y-138895833D01*
X118428461Y-138728292D01*
X118655189Y-138529456D01*
X118854025Y-138302728D01*
X119021566Y-138051985D01*
X119154945Y-137781519D01*
X119251880Y-137495958D01*
X119310713Y-137200187D01*
X119330436Y-136899267D01*
X119719564Y-136899267D01*
X119739287Y-137200185D01*
X119739288Y-137200197D01*
X119798118Y-137495950D01*
X119798122Y-137495965D01*
X119895053Y-137781514D01*
X119895062Y-137781535D01*
X120028431Y-138051980D01*
X120028435Y-138051987D01*
X120195973Y-138302726D01*
X120394810Y-138529456D01*
X120621540Y-138728293D01*
X120872279Y-138895831D01*
X120872286Y-138895835D01*
X121142731Y-139029204D01*
X121142736Y-139029206D01*
X121142748Y-139029212D01*
X121428309Y-139126147D01*
X121628251Y-139165918D01*
X121724069Y-139184978D01*
X121724070Y-139184978D01*
X121724080Y-139184980D01*
X122025000Y-139204703D01*
X122325920Y-139184980D01*
X122621691Y-139126147D01*
X122907252Y-139029212D01*
X123177718Y-138895833D01*
X123428461Y-138728292D01*
X123655189Y-138529456D01*
X123854025Y-138302728D01*
X124021566Y-138051985D01*
X124154945Y-137781519D01*
X124251880Y-137495958D01*
X124310713Y-137200187D01*
X124330436Y-136899267D01*
X124310713Y-136598347D01*
X124251880Y-136302576D01*
X124154945Y-136017015D01*
X124088583Y-135882447D01*
X124021568Y-135746553D01*
X124021564Y-135746546D01*
X123854026Y-135495807D01*
X123655189Y-135269077D01*
X123428459Y-135070240D01*
X123177720Y-134902702D01*
X123177713Y-134902698D01*
X122907255Y-134769323D01*
X122809641Y-134736187D01*
X122752487Y-134695998D01*
X122726134Y-134631288D01*
X122725500Y-134618768D01*
X122725500Y-131855274D01*
X122723617Y-131845810D01*
X122723616Y-131845804D01*
X122715348Y-131804241D01*
X122698580Y-131719939D01*
X122681491Y-131678682D01*
X122645777Y-131592459D01*
X122569112Y-131477721D01*
X121236819Y-130145428D01*
X121203334Y-130084105D01*
X121200500Y-130057747D01*
X121200500Y-127766791D01*
X121799499Y-127766791D01*
X121826418Y-127902117D01*
X121826421Y-127902127D01*
X121879222Y-128029602D01*
X121955887Y-128144340D01*
X121955888Y-128144341D01*
X126288181Y-132476632D01*
X126321666Y-132537955D01*
X126324500Y-132564313D01*
X126324500Y-134618768D01*
X126304815Y-134685807D01*
X126252011Y-134731562D01*
X126240359Y-134736187D01*
X126142744Y-134769323D01*
X125872286Y-134902698D01*
X125872279Y-134902702D01*
X125621540Y-135070240D01*
X125394810Y-135269077D01*
X125195973Y-135495807D01*
X125028435Y-135746546D01*
X125028431Y-135746553D01*
X124895062Y-136016998D01*
X124895053Y-136017019D01*
X124798122Y-136302568D01*
X124798118Y-136302583D01*
X124739288Y-136598336D01*
X124739287Y-136598348D01*
X124719564Y-136899267D01*
X124739287Y-137200185D01*
X124739288Y-137200197D01*
X124798118Y-137495950D01*
X124798122Y-137495965D01*
X124895053Y-137781514D01*
X124895062Y-137781535D01*
X125028431Y-138051980D01*
X125028435Y-138051987D01*
X125195973Y-138302726D01*
X125394810Y-138529456D01*
X125621540Y-138728293D01*
X125872279Y-138895831D01*
X125872286Y-138895835D01*
X126142731Y-139029204D01*
X126142736Y-139029206D01*
X126142748Y-139029212D01*
X126428309Y-139126147D01*
X126628251Y-139165918D01*
X126724069Y-139184978D01*
X126724070Y-139184978D01*
X126724080Y-139184980D01*
X127025000Y-139204703D01*
X127325920Y-139184980D01*
X127621691Y-139126147D01*
X127907252Y-139029212D01*
X128177718Y-138895833D01*
X128428461Y-138728292D01*
X128655189Y-138529456D01*
X128854025Y-138302728D01*
X129021566Y-138051985D01*
X129154945Y-137781519D01*
X129251880Y-137495958D01*
X129310713Y-137200187D01*
X129330436Y-136899267D01*
X129310713Y-136598347D01*
X129251880Y-136302576D01*
X129154945Y-136017015D01*
X129088583Y-135882447D01*
X129021568Y-135746553D01*
X129021564Y-135746546D01*
X128854026Y-135495807D01*
X128655189Y-135269077D01*
X128428459Y-135070240D01*
X128177720Y-134902702D01*
X128177713Y-134902698D01*
X127907255Y-134769323D01*
X127809641Y-134736187D01*
X127752487Y-134695998D01*
X127726134Y-134631288D01*
X127725500Y-134618768D01*
X127725500Y-132153799D01*
X127698581Y-132018471D01*
X127698580Y-132018469D01*
X127698580Y-132018467D01*
X127688139Y-131993261D01*
X127667478Y-131943381D01*
X127645775Y-131890984D01*
X127569114Y-131776253D01*
X127471542Y-131678681D01*
X123236819Y-127443957D01*
X123203334Y-127382634D01*
X123200500Y-127356276D01*
X123200500Y-97740785D01*
X123220185Y-97673746D01*
X123236814Y-97653109D01*
X123655334Y-97234589D01*
X123716655Y-97201106D01*
X123786347Y-97206090D01*
X123842280Y-97247962D01*
X123866697Y-97313426D01*
X123857574Y-97369724D01*
X123826421Y-97444934D01*
X123826418Y-97444944D01*
X123799500Y-97580271D01*
X123799500Y-97580274D01*
X123799500Y-125555273D01*
X123799500Y-125693261D01*
X123799500Y-125693263D01*
X123799499Y-125693263D01*
X123826418Y-125828589D01*
X123826421Y-125828599D01*
X123879222Y-125956074D01*
X123955887Y-126070812D01*
X123955888Y-126070813D01*
X131288181Y-133403105D01*
X131321666Y-133464428D01*
X131324500Y-133490786D01*
X131324500Y-134618768D01*
X131304815Y-134685807D01*
X131252011Y-134731562D01*
X131240359Y-134736187D01*
X131142744Y-134769323D01*
X130872286Y-134902698D01*
X130872279Y-134902702D01*
X130621540Y-135070240D01*
X130394810Y-135269077D01*
X130195973Y-135495807D01*
X130028435Y-135746546D01*
X130028431Y-135746553D01*
X129895062Y-136016998D01*
X129895053Y-136017019D01*
X129798122Y-136302568D01*
X129798118Y-136302583D01*
X129739288Y-136598336D01*
X129739287Y-136598348D01*
X129719564Y-136899267D01*
X129739287Y-137200185D01*
X129739288Y-137200197D01*
X129798118Y-137495950D01*
X129798122Y-137495965D01*
X129895053Y-137781514D01*
X129895062Y-137781535D01*
X130028431Y-138051980D01*
X130028435Y-138051987D01*
X130195973Y-138302726D01*
X130394810Y-138529456D01*
X130621540Y-138728293D01*
X130872279Y-138895831D01*
X130872286Y-138895835D01*
X131142731Y-139029204D01*
X131142736Y-139029206D01*
X131142748Y-139029212D01*
X131428309Y-139126147D01*
X131628251Y-139165918D01*
X131724069Y-139184978D01*
X131724070Y-139184978D01*
X131724080Y-139184980D01*
X132025000Y-139204703D01*
X132325920Y-139184980D01*
X132621691Y-139126147D01*
X132907252Y-139029212D01*
X133177718Y-138895833D01*
X133428461Y-138728292D01*
X133655189Y-138529456D01*
X133854025Y-138302728D01*
X134021566Y-138051985D01*
X134154945Y-137781519D01*
X134251880Y-137495958D01*
X134310713Y-137200187D01*
X134330436Y-136899267D01*
X134310713Y-136598347D01*
X134251880Y-136302576D01*
X134154945Y-136017015D01*
X134088583Y-135882447D01*
X134021568Y-135746553D01*
X134021564Y-135746546D01*
X133884379Y-135541233D01*
X160699500Y-135541233D01*
X160699500Y-138257295D01*
X160699501Y-138257301D01*
X160710113Y-138376682D01*
X160766089Y-138572312D01*
X160766090Y-138572315D01*
X160766091Y-138572316D01*
X160860302Y-138752674D01*
X160860304Y-138752676D01*
X160988890Y-138910376D01*
X161082803Y-138986951D01*
X161146593Y-139038965D01*
X161326951Y-139133176D01*
X161522582Y-139189153D01*
X161641963Y-139199767D01*
X164358036Y-139199766D01*
X164477418Y-139189153D01*
X164673049Y-139133176D01*
X164853407Y-139038965D01*
X165011109Y-138910376D01*
X165139698Y-138752674D01*
X165233909Y-138572316D01*
X165289886Y-138376685D01*
X165300500Y-138257304D01*
X165300499Y-136899267D01*
X165694564Y-136899267D01*
X165714287Y-137200185D01*
X165714288Y-137200197D01*
X165773118Y-137495950D01*
X165773122Y-137495965D01*
X165870053Y-137781514D01*
X165870062Y-137781535D01*
X166003431Y-138051980D01*
X166003435Y-138051987D01*
X166170973Y-138302726D01*
X166369810Y-138529456D01*
X166596540Y-138728293D01*
X166847279Y-138895831D01*
X166847286Y-138895835D01*
X167117731Y-139029204D01*
X167117736Y-139029206D01*
X167117748Y-139029212D01*
X167403309Y-139126147D01*
X167603251Y-139165918D01*
X167699069Y-139184978D01*
X167699070Y-139184978D01*
X167699080Y-139184980D01*
X168000000Y-139204703D01*
X168300920Y-139184980D01*
X168596691Y-139126147D01*
X168882252Y-139029212D01*
X169152718Y-138895833D01*
X169403461Y-138728292D01*
X169630189Y-138529456D01*
X169829025Y-138302728D01*
X169996566Y-138051985D01*
X170129945Y-137781519D01*
X170226880Y-137495958D01*
X170285713Y-137200187D01*
X170305436Y-136899267D01*
X170694564Y-136899267D01*
X170714287Y-137200185D01*
X170714288Y-137200197D01*
X170773118Y-137495950D01*
X170773122Y-137495965D01*
X170870053Y-137781514D01*
X170870062Y-137781535D01*
X171003431Y-138051980D01*
X171003435Y-138051987D01*
X171170973Y-138302726D01*
X171369810Y-138529456D01*
X171596540Y-138728293D01*
X171847279Y-138895831D01*
X171847286Y-138895835D01*
X172117731Y-139029204D01*
X172117736Y-139029206D01*
X172117748Y-139029212D01*
X172403309Y-139126147D01*
X172603251Y-139165918D01*
X172699069Y-139184978D01*
X172699070Y-139184978D01*
X172699080Y-139184980D01*
X173000000Y-139204703D01*
X173300920Y-139184980D01*
X173596691Y-139126147D01*
X173882252Y-139029212D01*
X174152718Y-138895833D01*
X174403461Y-138728292D01*
X174630189Y-138529456D01*
X174829025Y-138302728D01*
X174996566Y-138051985D01*
X175129945Y-137781519D01*
X175226880Y-137495958D01*
X175285713Y-137200187D01*
X175305436Y-136899267D01*
X175694564Y-136899267D01*
X175714287Y-137200185D01*
X175714288Y-137200197D01*
X175773118Y-137495950D01*
X175773122Y-137495965D01*
X175870053Y-137781514D01*
X175870062Y-137781535D01*
X176003431Y-138051980D01*
X176003435Y-138051987D01*
X176170973Y-138302726D01*
X176369810Y-138529456D01*
X176596540Y-138728293D01*
X176847279Y-138895831D01*
X176847286Y-138895835D01*
X177117731Y-139029204D01*
X177117736Y-139029206D01*
X177117748Y-139029212D01*
X177403309Y-139126147D01*
X177603251Y-139165918D01*
X177699069Y-139184978D01*
X177699070Y-139184978D01*
X177699080Y-139184980D01*
X178000000Y-139204703D01*
X178300920Y-139184980D01*
X178596691Y-139126147D01*
X178882252Y-139029212D01*
X179152718Y-138895833D01*
X179403461Y-138728292D01*
X179630189Y-138529456D01*
X179829025Y-138302728D01*
X179996566Y-138051985D01*
X180129945Y-137781519D01*
X180226880Y-137495958D01*
X180285713Y-137200187D01*
X180305436Y-136899267D01*
X180305436Y-136899262D01*
X181194953Y-136899262D01*
X181194953Y-136899271D01*
X181215113Y-137168293D01*
X181215113Y-137168295D01*
X181275142Y-137431300D01*
X181275148Y-137431319D01*
X181373709Y-137682448D01*
X181373708Y-137682448D01*
X181508602Y-137916089D01*
X181562294Y-137983418D01*
X182398957Y-137146754D01*
X182423978Y-137207157D01*
X182495112Y-137313618D01*
X182585649Y-137404155D01*
X182692110Y-137475289D01*
X182752510Y-137500308D01*
X181914848Y-138337969D01*
X182097483Y-138462487D01*
X182097485Y-138462488D01*
X182340539Y-138579536D01*
X182340537Y-138579536D01*
X182598337Y-138659057D01*
X182598343Y-138659059D01*
X182865101Y-138699266D01*
X182865110Y-138699267D01*
X183134890Y-138699267D01*
X183134898Y-138699266D01*
X183401656Y-138659059D01*
X183401662Y-138659057D01*
X183659461Y-138579536D01*
X183902521Y-138462485D01*
X184085150Y-138337969D01*
X183247488Y-137500308D01*
X183307890Y-137475289D01*
X183414351Y-137404155D01*
X183504888Y-137313618D01*
X183576022Y-137207157D01*
X183601041Y-137146755D01*
X184437703Y-137983418D01*
X184437704Y-137983417D01*
X184491393Y-137916095D01*
X184491400Y-137916084D01*
X184626290Y-137682448D01*
X184724851Y-137431319D01*
X184724857Y-137431300D01*
X184784886Y-137168295D01*
X184784886Y-137168293D01*
X184805047Y-136899271D01*
X184805047Y-136899267D01*
X185694564Y-136899267D01*
X185714287Y-137200185D01*
X185714288Y-137200197D01*
X185773118Y-137495950D01*
X185773122Y-137495965D01*
X185870053Y-137781514D01*
X185870062Y-137781535D01*
X186003431Y-138051980D01*
X186003435Y-138051987D01*
X186170973Y-138302726D01*
X186369810Y-138529456D01*
X186596540Y-138728293D01*
X186847279Y-138895831D01*
X186847286Y-138895835D01*
X187117731Y-139029204D01*
X187117736Y-139029206D01*
X187117748Y-139029212D01*
X187403309Y-139126147D01*
X187603251Y-139165918D01*
X187699069Y-139184978D01*
X187699070Y-139184978D01*
X187699080Y-139184980D01*
X188000000Y-139204703D01*
X188300920Y-139184980D01*
X188596691Y-139126147D01*
X188882252Y-139029212D01*
X189152718Y-138895833D01*
X189403461Y-138728292D01*
X189630189Y-138529456D01*
X189829025Y-138302728D01*
X189996566Y-138051985D01*
X190129945Y-137781519D01*
X190226880Y-137495958D01*
X190285713Y-137200187D01*
X190305436Y-136899267D01*
X190285713Y-136598347D01*
X190226880Y-136302576D01*
X190129945Y-136017015D01*
X190063583Y-135882447D01*
X189996568Y-135746553D01*
X189996564Y-135746546D01*
X189829026Y-135495807D01*
X189630189Y-135269077D01*
X189403459Y-135070240D01*
X189152720Y-134902702D01*
X189152713Y-134902698D01*
X188882268Y-134769329D01*
X188882247Y-134769320D01*
X188596698Y-134672389D01*
X188596692Y-134672387D01*
X188596691Y-134672387D01*
X188596689Y-134672386D01*
X188596683Y-134672385D01*
X188300930Y-134613555D01*
X188300921Y-134613554D01*
X188300920Y-134613554D01*
X188000000Y-134593831D01*
X187699080Y-134613554D01*
X187699079Y-134613554D01*
X187699069Y-134613555D01*
X187403316Y-134672385D01*
X187403301Y-134672389D01*
X187117752Y-134769320D01*
X187117731Y-134769329D01*
X186847286Y-134902698D01*
X186847279Y-134902702D01*
X186596540Y-135070240D01*
X186369810Y-135269077D01*
X186170973Y-135495807D01*
X186003435Y-135746546D01*
X186003431Y-135746553D01*
X185870062Y-136016998D01*
X185870053Y-136017019D01*
X185773122Y-136302568D01*
X185773118Y-136302583D01*
X185714288Y-136598336D01*
X185714287Y-136598348D01*
X185694564Y-136899267D01*
X184805047Y-136899267D01*
X184805047Y-136899262D01*
X184784886Y-136630240D01*
X184784886Y-136630238D01*
X184724857Y-136367233D01*
X184724851Y-136367214D01*
X184626290Y-136116085D01*
X184626291Y-136116085D01*
X184491397Y-135882444D01*
X184437704Y-135815114D01*
X183601041Y-136651777D01*
X183576022Y-136591377D01*
X183504888Y-136484916D01*
X183414351Y-136394379D01*
X183307890Y-136323245D01*
X183247488Y-136298225D01*
X184085150Y-135460563D01*
X183902517Y-135336046D01*
X183902516Y-135336045D01*
X183659460Y-135218997D01*
X183659462Y-135218997D01*
X183401662Y-135139476D01*
X183401656Y-135139474D01*
X183134898Y-135099267D01*
X182865101Y-135099267D01*
X182598343Y-135139474D01*
X182598337Y-135139476D01*
X182340538Y-135218997D01*
X182097485Y-135336045D01*
X182097476Y-135336050D01*
X181914848Y-135460563D01*
X182752511Y-136298225D01*
X182692110Y-136323245D01*
X182585649Y-136394379D01*
X182495112Y-136484916D01*
X182423978Y-136591377D01*
X182398958Y-136651778D01*
X181562295Y-135815115D01*
X181508600Y-135882447D01*
X181373709Y-136116085D01*
X181275148Y-136367214D01*
X181275142Y-136367233D01*
X181215113Y-136630238D01*
X181215113Y-136630240D01*
X181194953Y-136899262D01*
X180305436Y-136899262D01*
X180285713Y-136598347D01*
X180226880Y-136302576D01*
X180129945Y-136017015D01*
X180063583Y-135882447D01*
X179996568Y-135746553D01*
X179996564Y-135746546D01*
X179829026Y-135495807D01*
X179630189Y-135269077D01*
X179403459Y-135070240D01*
X179152720Y-134902702D01*
X179152713Y-134902698D01*
X178882252Y-134769322D01*
X178878497Y-134767767D01*
X178879123Y-134766254D01*
X178827483Y-134729939D01*
X178801133Y-134665228D01*
X178800500Y-134652714D01*
X178800500Y-133782207D01*
X178820185Y-133715168D01*
X178836819Y-133694526D01*
X182121788Y-130409557D01*
X182174764Y-130330273D01*
X182209394Y-130278446D01*
X182269737Y-130132764D01*
X182300500Y-129978109D01*
X182300500Y-125969267D01*
X188800138Y-125969267D01*
X189603012Y-125969267D01*
X189585795Y-125979207D01*
X189529940Y-126035062D01*
X189490444Y-126103471D01*
X189470000Y-126179771D01*
X189470000Y-126258763D01*
X189490444Y-126335063D01*
X189529940Y-126403472D01*
X189585795Y-126459327D01*
X189603012Y-126469267D01*
X188800138Y-126469267D01*
X188808430Y-126510957D01*
X188808430Y-126510959D01*
X188883807Y-126692938D01*
X188883814Y-126692951D01*
X188993248Y-126856729D01*
X188993251Y-126856733D01*
X189132533Y-126996015D01*
X189132537Y-126996018D01*
X189296315Y-127105452D01*
X189296328Y-127105459D01*
X189478306Y-127180836D01*
X189478318Y-127180839D01*
X189671504Y-127219266D01*
X189671508Y-127219267D01*
X190070000Y-127219267D01*
X190070000Y-126519267D01*
X190570000Y-126519267D01*
X190570000Y-127219267D01*
X190968492Y-127219267D01*
X190968495Y-127219266D01*
X191161681Y-127180839D01*
X191161693Y-127180836D01*
X191343671Y-127105459D01*
X191343684Y-127105452D01*
X191507462Y-126996018D01*
X191507466Y-126996015D01*
X191646748Y-126856733D01*
X191646751Y-126856729D01*
X191756185Y-126692951D01*
X191756192Y-126692938D01*
X191831569Y-126510959D01*
X191831569Y-126510957D01*
X191839862Y-126469267D01*
X191036988Y-126469267D01*
X191054205Y-126459327D01*
X191110060Y-126403472D01*
X191149556Y-126335063D01*
X191170000Y-126258763D01*
X191170000Y-126179771D01*
X191149556Y-126103471D01*
X191110060Y-126035062D01*
X191054205Y-125979207D01*
X191036988Y-125969267D01*
X191839862Y-125969267D01*
X191831569Y-125927576D01*
X191831569Y-125927574D01*
X191828134Y-125919280D01*
X193100000Y-125919280D01*
X193100000Y-125969267D01*
X193933012Y-125969267D01*
X193915795Y-125979207D01*
X193859940Y-126035062D01*
X193820444Y-126103471D01*
X193800000Y-126179771D01*
X193800000Y-126258763D01*
X193820444Y-126335063D01*
X193859940Y-126403472D01*
X193915795Y-126459327D01*
X193933012Y-126469267D01*
X193100001Y-126469267D01*
X193100001Y-126519253D01*
X193110494Y-126621964D01*
X193165641Y-126788386D01*
X193165643Y-126788391D01*
X193257684Y-126937612D01*
X193381654Y-127061582D01*
X193530875Y-127153623D01*
X193530880Y-127153625D01*
X193697302Y-127208772D01*
X193697309Y-127208773D01*
X193800019Y-127219266D01*
X194249999Y-127219266D01*
X194250000Y-127219265D01*
X194250000Y-126519267D01*
X194750000Y-126519267D01*
X194750000Y-127219266D01*
X195199972Y-127219266D01*
X195199986Y-127219265D01*
X195302697Y-127208772D01*
X195469119Y-127153625D01*
X195469124Y-127153623D01*
X195618345Y-127061582D01*
X195742315Y-126937612D01*
X195834356Y-126788391D01*
X195834358Y-126788386D01*
X195889505Y-126621964D01*
X195889506Y-126621957D01*
X195899999Y-126519253D01*
X195900000Y-126519240D01*
X195900000Y-126469267D01*
X195066988Y-126469267D01*
X195084205Y-126459327D01*
X195140060Y-126403472D01*
X195179556Y-126335063D01*
X195200000Y-126258763D01*
X195200000Y-126179771D01*
X195179556Y-126103471D01*
X195140060Y-126035062D01*
X195084205Y-125979207D01*
X195066988Y-125969267D01*
X195899999Y-125969267D01*
X195899999Y-125919295D01*
X195899998Y-125919280D01*
X195889505Y-125816569D01*
X195834358Y-125650147D01*
X195834356Y-125650142D01*
X195742315Y-125500921D01*
X195618345Y-125376951D01*
X195469124Y-125284910D01*
X195469119Y-125284908D01*
X195302697Y-125229761D01*
X195302690Y-125229760D01*
X195199986Y-125219267D01*
X194750000Y-125219267D01*
X194750000Y-125919267D01*
X194250000Y-125919267D01*
X194250000Y-125219267D01*
X193800028Y-125219267D01*
X193800012Y-125219268D01*
X193697302Y-125229761D01*
X193530880Y-125284908D01*
X193530875Y-125284910D01*
X193381654Y-125376951D01*
X193257684Y-125500921D01*
X193165643Y-125650142D01*
X193165641Y-125650147D01*
X193110494Y-125816569D01*
X193110493Y-125816576D01*
X193100000Y-125919280D01*
X191828134Y-125919280D01*
X191756192Y-125745595D01*
X191756185Y-125745582D01*
X191646751Y-125581804D01*
X191646748Y-125581800D01*
X191507466Y-125442518D01*
X191507462Y-125442515D01*
X191365237Y-125347482D01*
X191320432Y-125293869D01*
X191311725Y-125224544D01*
X191341880Y-125161517D01*
X191346430Y-125156716D01*
X191360515Y-125142632D01*
X191436281Y-125011402D01*
X191475500Y-124865033D01*
X191475500Y-124713501D01*
X191436281Y-124567132D01*
X191360515Y-124435902D01*
X191253365Y-124328752D01*
X191187750Y-124290869D01*
X191122136Y-124252986D01*
X191048950Y-124233376D01*
X190975766Y-124213767D01*
X190824234Y-124213767D01*
X190677863Y-124252986D01*
X190546635Y-124328752D01*
X190546632Y-124328754D01*
X190439487Y-124435899D01*
X190439485Y-124435902D01*
X190363719Y-124567130D01*
X190324500Y-124713501D01*
X190324500Y-124865032D01*
X190363719Y-125011403D01*
X190401602Y-125077017D01*
X190439485Y-125142632D01*
X190439486Y-125142633D01*
X190439487Y-125142634D01*
X190533681Y-125236828D01*
X190567166Y-125298151D01*
X190570000Y-125324509D01*
X190570000Y-125919267D01*
X190070000Y-125919267D01*
X190070000Y-125219267D01*
X189671504Y-125219267D01*
X189478318Y-125257694D01*
X189478306Y-125257697D01*
X189296328Y-125333074D01*
X189296315Y-125333081D01*
X189132537Y-125442515D01*
X189132533Y-125442518D01*
X188993251Y-125581800D01*
X188993248Y-125581804D01*
X188883814Y-125745582D01*
X188883807Y-125745595D01*
X188808430Y-125927574D01*
X188808430Y-125927576D01*
X188800138Y-125969267D01*
X182300500Y-125969267D01*
X182300500Y-117329267D01*
X188800138Y-117329267D01*
X189603012Y-117329267D01*
X189585795Y-117339207D01*
X189529940Y-117395062D01*
X189490444Y-117463471D01*
X189470000Y-117539771D01*
X189470000Y-117618763D01*
X189490444Y-117695063D01*
X189529940Y-117763472D01*
X189585795Y-117819327D01*
X189603012Y-117829267D01*
X188800138Y-117829267D01*
X188808430Y-117870957D01*
X188808430Y-117870959D01*
X188883807Y-118052938D01*
X188883814Y-118052951D01*
X188993248Y-118216729D01*
X188993251Y-118216733D01*
X189132533Y-118356015D01*
X189132537Y-118356018D01*
X189296315Y-118465452D01*
X189296328Y-118465459D01*
X189478306Y-118540836D01*
X189478318Y-118540839D01*
X189671504Y-118579266D01*
X189671508Y-118579267D01*
X190070000Y-118579267D01*
X190070000Y-117879267D01*
X190570000Y-117879267D01*
X190570000Y-118474025D01*
X190550315Y-118541064D01*
X190533681Y-118561706D01*
X190439487Y-118655899D01*
X190439485Y-118655902D01*
X190363719Y-118787130D01*
X190324500Y-118933501D01*
X190324500Y-119085032D01*
X190363719Y-119231403D01*
X190377181Y-119254719D01*
X190439485Y-119362632D01*
X190546635Y-119469782D01*
X190677865Y-119545548D01*
X190824234Y-119584767D01*
X190824236Y-119584767D01*
X190975764Y-119584767D01*
X190975766Y-119584767D01*
X191122135Y-119545548D01*
X191253365Y-119469782D01*
X191360515Y-119362632D01*
X191436281Y-119231402D01*
X191475500Y-119085033D01*
X191475500Y-118933501D01*
X191436281Y-118787132D01*
X191360515Y-118655902D01*
X191346447Y-118641834D01*
X191312962Y-118580511D01*
X191317946Y-118510819D01*
X191359818Y-118454886D01*
X191365237Y-118451051D01*
X191507462Y-118356018D01*
X191507466Y-118356015D01*
X191646748Y-118216733D01*
X191646751Y-118216729D01*
X191756185Y-118052951D01*
X191756192Y-118052938D01*
X191831569Y-117870959D01*
X191831569Y-117870957D01*
X191839862Y-117829267D01*
X191036988Y-117829267D01*
X191054205Y-117819327D01*
X191110060Y-117763472D01*
X191149556Y-117695063D01*
X191170000Y-117618763D01*
X191170000Y-117539771D01*
X191149556Y-117463471D01*
X191110060Y-117395062D01*
X191054205Y-117339207D01*
X191036988Y-117329267D01*
X191839862Y-117329267D01*
X191831569Y-117287576D01*
X191831569Y-117287574D01*
X191828134Y-117279280D01*
X193100000Y-117279280D01*
X193100000Y-117329267D01*
X193933012Y-117329267D01*
X193915795Y-117339207D01*
X193859940Y-117395062D01*
X193820444Y-117463471D01*
X193800000Y-117539771D01*
X193800000Y-117618763D01*
X193820444Y-117695063D01*
X193859940Y-117763472D01*
X193915795Y-117819327D01*
X193933012Y-117829267D01*
X193100001Y-117829267D01*
X193100001Y-117879253D01*
X193110494Y-117981964D01*
X193165641Y-118148386D01*
X193165643Y-118148391D01*
X193257684Y-118297612D01*
X193381654Y-118421582D01*
X193530875Y-118513623D01*
X193530880Y-118513625D01*
X193697302Y-118568772D01*
X193697309Y-118568773D01*
X193800019Y-118579266D01*
X194249999Y-118579266D01*
X194250000Y-118579265D01*
X194250000Y-117879267D01*
X194750000Y-117879267D01*
X194750000Y-118579266D01*
X195199972Y-118579266D01*
X195199986Y-118579265D01*
X195302697Y-118568772D01*
X195469119Y-118513625D01*
X195469124Y-118513623D01*
X195618345Y-118421582D01*
X195742315Y-118297612D01*
X195834356Y-118148391D01*
X195834358Y-118148386D01*
X195889505Y-117981964D01*
X195889506Y-117981957D01*
X195899999Y-117879253D01*
X195900000Y-117879240D01*
X195900000Y-117829267D01*
X195066988Y-117829267D01*
X195084205Y-117819327D01*
X195140060Y-117763472D01*
X195179556Y-117695063D01*
X195200000Y-117618763D01*
X195200000Y-117539771D01*
X195179556Y-117463471D01*
X195140060Y-117395062D01*
X195084205Y-117339207D01*
X195066988Y-117329267D01*
X195899999Y-117329267D01*
X195899999Y-117279295D01*
X195899998Y-117279280D01*
X195889505Y-117176569D01*
X195834358Y-117010147D01*
X195834356Y-117010142D01*
X195742315Y-116860921D01*
X195618345Y-116736951D01*
X195469124Y-116644910D01*
X195469119Y-116644908D01*
X195302697Y-116589761D01*
X195302690Y-116589760D01*
X195199986Y-116579267D01*
X194750000Y-116579267D01*
X194750000Y-117279267D01*
X194250000Y-117279267D01*
X194250000Y-116579267D01*
X193800028Y-116579267D01*
X193800012Y-116579268D01*
X193697302Y-116589761D01*
X193530880Y-116644908D01*
X193530875Y-116644910D01*
X193381654Y-116736951D01*
X193257684Y-116860921D01*
X193165643Y-117010142D01*
X193165641Y-117010147D01*
X193110494Y-117176569D01*
X193110493Y-117176576D01*
X193100000Y-117279280D01*
X191828134Y-117279280D01*
X191756192Y-117105595D01*
X191756185Y-117105582D01*
X191646751Y-116941804D01*
X191646748Y-116941800D01*
X191507466Y-116802518D01*
X191507462Y-116802515D01*
X191343684Y-116693081D01*
X191343671Y-116693074D01*
X191161693Y-116617697D01*
X191161681Y-116617694D01*
X190968495Y-116579267D01*
X190570000Y-116579267D01*
X190570000Y-117279267D01*
X190070000Y-117279267D01*
X190070000Y-116579267D01*
X189671504Y-116579267D01*
X189478318Y-116617694D01*
X189478306Y-116617697D01*
X189296328Y-116693074D01*
X189296315Y-116693081D01*
X189132537Y-116802515D01*
X189132533Y-116802518D01*
X188993251Y-116941800D01*
X188993248Y-116941804D01*
X188883814Y-117105582D01*
X188883807Y-117105595D01*
X188808430Y-117287574D01*
X188808430Y-117287576D01*
X188800138Y-117329267D01*
X182300500Y-117329267D01*
X182300500Y-117207207D01*
X182320185Y-117140168D01*
X182336819Y-117119526D01*
X184245259Y-115211086D01*
X184306582Y-115177601D01*
X184332940Y-115174767D01*
X191453844Y-115174767D01*
X191453845Y-115174766D01*
X191608497Y-115144004D01*
X191754179Y-115083661D01*
X191885289Y-114996056D01*
X193921789Y-112959556D01*
X194009394Y-112828446D01*
X194069737Y-112682764D01*
X194100500Y-112528109D01*
X194100500Y-110731943D01*
X194120185Y-110664904D01*
X194125539Y-110657225D01*
X194239673Y-110506088D01*
X194330582Y-110323517D01*
X194386397Y-110127350D01*
X194405215Y-109924267D01*
X194386397Y-109721184D01*
X194330582Y-109525017D01*
X194239673Y-109342446D01*
X194116764Y-109179688D01*
X194116762Y-109179685D01*
X193966041Y-109042286D01*
X193966039Y-109042284D01*
X193792642Y-108934922D01*
X193792635Y-108934918D01*
X193697546Y-108898081D01*
X193602456Y-108861243D01*
X193401976Y-108823767D01*
X193198024Y-108823767D01*
X192997544Y-108861243D01*
X192997541Y-108861243D01*
X192997541Y-108861244D01*
X192807364Y-108934918D01*
X192807357Y-108934922D01*
X192633960Y-109042284D01*
X192633958Y-109042286D01*
X192483237Y-109179685D01*
X192360327Y-109342445D01*
X192269422Y-109525006D01*
X192269417Y-109525019D01*
X192213602Y-109721184D01*
X192194785Y-109924266D01*
X192194785Y-109924267D01*
X192213602Y-110127349D01*
X192269417Y-110323514D01*
X192269422Y-110323527D01*
X192360327Y-110506088D01*
X192474454Y-110657217D01*
X192499146Y-110722577D01*
X192499500Y-110731943D01*
X192499500Y-112066327D01*
X192479815Y-112133366D01*
X192463181Y-112154008D01*
X191079741Y-113537448D01*
X191018418Y-113570933D01*
X190992060Y-113573767D01*
X183871155Y-113573767D01*
X183716508Y-113604528D01*
X183716498Y-113604531D01*
X183570827Y-113664869D01*
X183570814Y-113664876D01*
X183439711Y-113752477D01*
X183439707Y-113752480D01*
X181572947Y-115619242D01*
X180989711Y-116202478D01*
X180953193Y-116238996D01*
X180878209Y-116313979D01*
X180790609Y-116445081D01*
X180790602Y-116445094D01*
X180730264Y-116590765D01*
X180730261Y-116590777D01*
X180699500Y-116745420D01*
X180699500Y-129516327D01*
X180679815Y-129583366D01*
X180663181Y-129604008D01*
X177489711Y-132777478D01*
X177449733Y-132817456D01*
X177378209Y-132888979D01*
X177290609Y-133020081D01*
X177290602Y-133020094D01*
X177230264Y-133165765D01*
X177230261Y-133165777D01*
X177199500Y-133320420D01*
X177199500Y-134652714D01*
X177179815Y-134719753D01*
X177127011Y-134765508D01*
X177121477Y-134767704D01*
X177121503Y-134767767D01*
X177117747Y-134769322D01*
X176847286Y-134902698D01*
X176847279Y-134902702D01*
X176596540Y-135070240D01*
X176369810Y-135269077D01*
X176170973Y-135495807D01*
X176003435Y-135746546D01*
X176003431Y-135746553D01*
X175870062Y-136016998D01*
X175870053Y-136017019D01*
X175773122Y-136302568D01*
X175773118Y-136302583D01*
X175714288Y-136598336D01*
X175714287Y-136598348D01*
X175694564Y-136899267D01*
X175305436Y-136899267D01*
X175285713Y-136598347D01*
X175226880Y-136302576D01*
X175129945Y-136017015D01*
X175063583Y-135882447D01*
X174996568Y-135746553D01*
X174996564Y-135746546D01*
X174829026Y-135495807D01*
X174630189Y-135269077D01*
X174403459Y-135070240D01*
X174152720Y-134902702D01*
X174152713Y-134902698D01*
X173882268Y-134769329D01*
X173882247Y-134769320D01*
X173596698Y-134672389D01*
X173596692Y-134672387D01*
X173596691Y-134672387D01*
X173596689Y-134672386D01*
X173596683Y-134672385D01*
X173300930Y-134613555D01*
X173300921Y-134613554D01*
X173300920Y-134613554D01*
X173000000Y-134593831D01*
X172699080Y-134613554D01*
X172699079Y-134613554D01*
X172699069Y-134613555D01*
X172403316Y-134672385D01*
X172403301Y-134672389D01*
X172117752Y-134769320D01*
X172117731Y-134769329D01*
X171847286Y-134902698D01*
X171847279Y-134902702D01*
X171596540Y-135070240D01*
X171369810Y-135269077D01*
X171170973Y-135495807D01*
X171003435Y-135746546D01*
X171003431Y-135746553D01*
X170870062Y-136016998D01*
X170870053Y-136017019D01*
X170773122Y-136302568D01*
X170773118Y-136302583D01*
X170714288Y-136598336D01*
X170714287Y-136598348D01*
X170694564Y-136899267D01*
X170305436Y-136899267D01*
X170285713Y-136598347D01*
X170226880Y-136302576D01*
X170129945Y-136017015D01*
X170063583Y-135882447D01*
X169996568Y-135746553D01*
X169996564Y-135746546D01*
X169829026Y-135495807D01*
X169630189Y-135269077D01*
X169403459Y-135070240D01*
X169152720Y-134902702D01*
X169152713Y-134902698D01*
X168882255Y-134769323D01*
X168784641Y-134736187D01*
X168727487Y-134695998D01*
X168701134Y-134631288D01*
X168700500Y-134618768D01*
X168700500Y-134415786D01*
X168720185Y-134348747D01*
X168736819Y-134328105D01*
X179544112Y-123520812D01*
X179544114Y-123520810D01*
X179620775Y-123406078D01*
X179673580Y-123278596D01*
X179673580Y-123278592D01*
X179673582Y-123278589D01*
X179678934Y-123251678D01*
X179678934Y-123251676D01*
X179700500Y-123143260D01*
X179700500Y-80330274D01*
X179700500Y-80330271D01*
X179673581Y-80194944D01*
X179673580Y-80194943D01*
X179673580Y-80194939D01*
X179670882Y-80188426D01*
X179620778Y-80067462D01*
X179620771Y-80067449D01*
X179545959Y-79955486D01*
X179545952Y-79955475D01*
X179544115Y-79952725D01*
X179544109Y-79952718D01*
X173196545Y-73605154D01*
X173081807Y-73528489D01*
X172954332Y-73475688D01*
X172954322Y-73475685D01*
X172818996Y-73448767D01*
X172818994Y-73448767D01*
X172818993Y-73448767D01*
X170091519Y-73448767D01*
X170024480Y-73429082D01*
X170003838Y-73412448D01*
X167791367Y-71199977D01*
X167762006Y-71153250D01*
X167725788Y-71049743D01*
X167678677Y-70974767D01*
X167629816Y-70897005D01*
X167502262Y-70769451D01*
X167349523Y-70673478D01*
X167179254Y-70613898D01*
X167179249Y-70613897D01*
X167000004Y-70593702D01*
X166999996Y-70593702D01*
X166820750Y-70613897D01*
X166820745Y-70613898D01*
X166650476Y-70673478D01*
X166497737Y-70769451D01*
X166370184Y-70897004D01*
X166274211Y-71049743D01*
X166214631Y-71220012D01*
X166214630Y-71220017D01*
X166194435Y-71399263D01*
X166194435Y-71399270D01*
X166214630Y-71578516D01*
X166214631Y-71578521D01*
X166274211Y-71748790D01*
X166357081Y-71880676D01*
X166370184Y-71901529D01*
X166497738Y-72029083D01*
X166650478Y-72125056D01*
X166753984Y-72161274D01*
X166800710Y-72190634D01*
X169303457Y-74693381D01*
X169349409Y-74724084D01*
X169349411Y-74724086D01*
X169349412Y-74724086D01*
X169418189Y-74770042D01*
X169488743Y-74799266D01*
X169488744Y-74799267D01*
X169512324Y-74809033D01*
X169545671Y-74822847D01*
X169545680Y-74822848D01*
X169545681Y-74822849D01*
X169572545Y-74828192D01*
X169572551Y-74828193D01*
X169572591Y-74828201D01*
X169662937Y-74846172D01*
X169681006Y-74849767D01*
X169681007Y-74849767D01*
X172408481Y-74849767D01*
X172475520Y-74869452D01*
X172496162Y-74886086D01*
X178263181Y-80653105D01*
X178296666Y-80714428D01*
X178299500Y-80740786D01*
X178299500Y-122732747D01*
X178279815Y-122799786D01*
X178263181Y-122820428D01*
X167455888Y-133627720D01*
X167455887Y-133627721D01*
X167379222Y-133742459D01*
X167326421Y-133869934D01*
X167326420Y-133869938D01*
X167326420Y-133869939D01*
X167301890Y-133993261D01*
X167299500Y-134005273D01*
X167299500Y-134618768D01*
X167279815Y-134685807D01*
X167227011Y-134731562D01*
X167215359Y-134736187D01*
X167117744Y-134769323D01*
X166847286Y-134902698D01*
X166847279Y-134902702D01*
X166596540Y-135070240D01*
X166369810Y-135269077D01*
X166170973Y-135495807D01*
X166003435Y-135746546D01*
X166003431Y-135746553D01*
X165870062Y-136016998D01*
X165870053Y-136017019D01*
X165773122Y-136302568D01*
X165773118Y-136302583D01*
X165714288Y-136598336D01*
X165714287Y-136598348D01*
X165694564Y-136899267D01*
X165300499Y-136899267D01*
X165300499Y-135541231D01*
X165289886Y-135421849D01*
X165233909Y-135226218D01*
X165139698Y-135045860D01*
X165087684Y-134982070D01*
X165011109Y-134888157D01*
X164895933Y-134794244D01*
X164853407Y-134759569D01*
X164673049Y-134665358D01*
X164673048Y-134665357D01*
X164673045Y-134665356D01*
X164553980Y-134631288D01*
X164477418Y-134609381D01*
X164477415Y-134609380D01*
X164477413Y-134609380D01*
X164404631Y-134602909D01*
X164358037Y-134598767D01*
X164358033Y-134598767D01*
X164090518Y-134598767D01*
X164023479Y-134579082D01*
X163977724Y-134526278D01*
X163967780Y-134457120D01*
X163996805Y-134393564D01*
X164002837Y-134387086D01*
X170761123Y-127628801D01*
X177544114Y-120845810D01*
X177620775Y-120731078D01*
X177673580Y-120603595D01*
X177700500Y-120468261D01*
X177700500Y-120330273D01*
X177700500Y-81455274D01*
X177700500Y-81455271D01*
X177673581Y-81319944D01*
X177673580Y-81319943D01*
X177673580Y-81319939D01*
X177640794Y-81240786D01*
X177620778Y-81192462D01*
X177620771Y-81192449D01*
X177561400Y-81103595D01*
X177561398Y-81103592D01*
X177544116Y-81077726D01*
X177544114Y-81077724D01*
X171959046Y-75492655D01*
X171959045Y-75492654D01*
X171844307Y-75415989D01*
X171716832Y-75363188D01*
X171716822Y-75363185D01*
X171581496Y-75336267D01*
X171581494Y-75336267D01*
X171581493Y-75336267D01*
X168479018Y-75336267D01*
X168411979Y-75316582D01*
X168391337Y-75299948D01*
X166791367Y-73699978D01*
X166762006Y-73653250D01*
X166725789Y-73549745D01*
X166725789Y-73549744D01*
X166629815Y-73397004D01*
X166502262Y-73269451D01*
X166349523Y-73173478D01*
X166179254Y-73113898D01*
X166179249Y-73113897D01*
X166000004Y-73093702D01*
X165999996Y-73093702D01*
X165820750Y-73113897D01*
X165820745Y-73113898D01*
X165650476Y-73173478D01*
X165497737Y-73269451D01*
X165370184Y-73397004D01*
X165274211Y-73549743D01*
X165214631Y-73720012D01*
X165214630Y-73720017D01*
X165194435Y-73899263D01*
X165194435Y-73899270D01*
X165214630Y-74078516D01*
X165214631Y-74078521D01*
X165274211Y-74248790D01*
X165304507Y-74297005D01*
X165370184Y-74401529D01*
X165497738Y-74529083D01*
X165554504Y-74564751D01*
X165650477Y-74625056D01*
X165692369Y-74639714D01*
X165753983Y-74661273D01*
X165800711Y-74690634D01*
X167593386Y-76483309D01*
X167690958Y-76580881D01*
X167690959Y-76580882D01*
X167805682Y-76657538D01*
X167805689Y-76657542D01*
X167880031Y-76688335D01*
X167880032Y-76688336D01*
X167902043Y-76697453D01*
X167933171Y-76710347D01*
X167933180Y-76710348D01*
X167933181Y-76710349D01*
X167960045Y-76715692D01*
X167960051Y-76715693D01*
X167960091Y-76715701D01*
X168050437Y-76733672D01*
X168068506Y-76737267D01*
X168068507Y-76737267D01*
X171170981Y-76737267D01*
X171238020Y-76756952D01*
X171258662Y-76773586D01*
X176263181Y-81778105D01*
X176296666Y-81839428D01*
X176299500Y-81865786D01*
X176299500Y-120057747D01*
X176279815Y-120124786D01*
X176263181Y-120145428D01*
X162455888Y-133952720D01*
X162455887Y-133952721D01*
X162379222Y-134067459D01*
X162326421Y-134194934D01*
X162326418Y-134194944D01*
X162299500Y-134330271D01*
X162299500Y-134474767D01*
X162279815Y-134541806D01*
X162227011Y-134587561D01*
X162175500Y-134598767D01*
X161641971Y-134598767D01*
X161641965Y-134598767D01*
X161641964Y-134598768D01*
X161630316Y-134599803D01*
X161522584Y-134609380D01*
X161326954Y-134665356D01*
X161246035Y-134707625D01*
X161146593Y-134759569D01*
X161146591Y-134759570D01*
X161146590Y-134759571D01*
X160988890Y-134888157D01*
X160860304Y-135045857D01*
X160766089Y-135226221D01*
X160710114Y-135421850D01*
X160710113Y-135421853D01*
X160699500Y-135541233D01*
X133884379Y-135541233D01*
X133854026Y-135495807D01*
X133655189Y-135269077D01*
X133428459Y-135070240D01*
X133177720Y-134902702D01*
X133177713Y-134902698D01*
X132907255Y-134769323D01*
X132809641Y-134736187D01*
X132752487Y-134695998D01*
X132726134Y-134631288D01*
X132725500Y-134618768D01*
X132725500Y-133080271D01*
X132698581Y-132944944D01*
X132698580Y-132944943D01*
X132698580Y-132944939D01*
X132645775Y-132817456D01*
X132637635Y-132805273D01*
X132569114Y-132702724D01*
X132569112Y-132702721D01*
X125236819Y-125370428D01*
X125203334Y-125309105D01*
X125200500Y-125282747D01*
X125200500Y-120399260D01*
X126132830Y-120399260D01*
X126132830Y-120399273D01*
X126151474Y-120624288D01*
X126151476Y-120624296D01*
X126206907Y-120843187D01*
X126208059Y-120845813D01*
X126297610Y-121049968D01*
X126421111Y-121239000D01*
X126574041Y-121405127D01*
X126574044Y-121405129D01*
X126574047Y-121405132D01*
X126752220Y-121543810D01*
X126752226Y-121543814D01*
X126752229Y-121543816D01*
X126950814Y-121651285D01*
X127164380Y-121724602D01*
X127387100Y-121761767D01*
X127612900Y-121761767D01*
X127835620Y-121724602D01*
X128049186Y-121651285D01*
X128247771Y-121543816D01*
X128423838Y-121406777D01*
X128488831Y-121381135D01*
X128557371Y-121394701D01*
X128576158Y-121406775D01*
X128752229Y-121543816D01*
X128950814Y-121651285D01*
X129164380Y-121724602D01*
X129387100Y-121761767D01*
X129612900Y-121761767D01*
X129835620Y-121724602D01*
X130049186Y-121651285D01*
X130247771Y-121543816D01*
X130423838Y-121406777D01*
X130488831Y-121381135D01*
X130557371Y-121394701D01*
X130576158Y-121406775D01*
X130752229Y-121543816D01*
X130950814Y-121651285D01*
X131164380Y-121724602D01*
X131387100Y-121761767D01*
X131612900Y-121761767D01*
X131835620Y-121724602D01*
X132049186Y-121651285D01*
X132247771Y-121543816D01*
X132425959Y-121405127D01*
X132578889Y-121239000D01*
X132702390Y-121049968D01*
X132793093Y-120843186D01*
X132848524Y-120624296D01*
X132850239Y-120603599D01*
X132867170Y-120399273D01*
X132867170Y-120399260D01*
X132848525Y-120174245D01*
X132848524Y-120174242D01*
X132848524Y-120174238D01*
X132793093Y-119955348D01*
X132702390Y-119748566D01*
X132578889Y-119559534D01*
X132425959Y-119393407D01*
X132425954Y-119393403D01*
X132425952Y-119393401D01*
X132247779Y-119254723D01*
X132247773Y-119254719D01*
X132049187Y-119147249D01*
X132049181Y-119147247D01*
X131835622Y-119073932D01*
X131612900Y-119036767D01*
X131387100Y-119036767D01*
X131164377Y-119073932D01*
X130950818Y-119147247D01*
X130950812Y-119147249D01*
X130752227Y-119254719D01*
X130576162Y-119391756D01*
X130511168Y-119417398D01*
X130442628Y-119403831D01*
X130423838Y-119391756D01*
X130247772Y-119254719D01*
X130247771Y-119254718D01*
X130156656Y-119205408D01*
X130049187Y-119147249D01*
X130049181Y-119147247D01*
X129835622Y-119073932D01*
X129612900Y-119036767D01*
X129387100Y-119036767D01*
X129164377Y-119073932D01*
X128950818Y-119147247D01*
X128950812Y-119147249D01*
X128752227Y-119254719D01*
X128576162Y-119391756D01*
X128511168Y-119417398D01*
X128442628Y-119403831D01*
X128423838Y-119391756D01*
X128247772Y-119254719D01*
X128247771Y-119254718D01*
X128156656Y-119205408D01*
X128049187Y-119147249D01*
X128049181Y-119147247D01*
X127835622Y-119073932D01*
X127612900Y-119036767D01*
X127387100Y-119036767D01*
X127164377Y-119073932D01*
X126950818Y-119147247D01*
X126950812Y-119147249D01*
X126752226Y-119254719D01*
X126752220Y-119254723D01*
X126574047Y-119393401D01*
X126574044Y-119393404D01*
X126421108Y-119559537D01*
X126297608Y-119748569D01*
X126206907Y-119955346D01*
X126151476Y-120174237D01*
X126151474Y-120174245D01*
X126132830Y-120399260D01*
X125200500Y-120399260D01*
X125200500Y-115399266D01*
X126233179Y-115399266D01*
X126233179Y-115399267D01*
X126252425Y-115619242D01*
X126252426Y-115619253D01*
X126309575Y-115832537D01*
X126309580Y-115832551D01*
X126402898Y-116032672D01*
X126402901Y-116032678D01*
X126448258Y-116097454D01*
X126448259Y-116097455D01*
X127119000Y-115426714D01*
X127119000Y-115449427D01*
X127144964Y-115546328D01*
X127195124Y-115633207D01*
X127266060Y-115704143D01*
X127352939Y-115754303D01*
X127449840Y-115780267D01*
X127472553Y-115780267D01*
X126801810Y-116451007D01*
X126866590Y-116496366D01*
X126866592Y-116496367D01*
X127066715Y-116589686D01*
X127066729Y-116589691D01*
X127280013Y-116646840D01*
X127280023Y-116646842D01*
X127499999Y-116666088D01*
X127500001Y-116666088D01*
X127719976Y-116646842D01*
X127719986Y-116646840D01*
X127933270Y-116589691D01*
X127933284Y-116589686D01*
X128133407Y-116496367D01*
X128133417Y-116496361D01*
X128198188Y-116451008D01*
X127527448Y-115780267D01*
X127550160Y-115780267D01*
X127647061Y-115754303D01*
X127733940Y-115704143D01*
X127804876Y-115633207D01*
X127855036Y-115546328D01*
X127881000Y-115449427D01*
X127881000Y-115426714D01*
X128152051Y-115697765D01*
X128184575Y-115755005D01*
X128206905Y-115843181D01*
X128206905Y-115843182D01*
X128206907Y-115843186D01*
X128297610Y-116049968D01*
X128328635Y-116097455D01*
X128397250Y-116202479D01*
X128421111Y-116239000D01*
X128574041Y-116405127D01*
X128574044Y-116405129D01*
X128574047Y-116405132D01*
X128752220Y-116543810D01*
X128752226Y-116543814D01*
X128752229Y-116543816D01*
X128950814Y-116651285D01*
X129164380Y-116724602D01*
X129387100Y-116761767D01*
X129612900Y-116761767D01*
X129835620Y-116724602D01*
X130049186Y-116651285D01*
X130247771Y-116543816D01*
X130423838Y-116406777D01*
X130488831Y-116381135D01*
X130557371Y-116394701D01*
X130576158Y-116406775D01*
X130752229Y-116543816D01*
X130950814Y-116651285D01*
X131164380Y-116724602D01*
X131387100Y-116761767D01*
X131612900Y-116761767D01*
X131835620Y-116724602D01*
X132049186Y-116651285D01*
X132247771Y-116543816D01*
X132425959Y-116405127D01*
X132578889Y-116239000D01*
X132702390Y-116049968D01*
X132793093Y-115843186D01*
X132848524Y-115624296D01*
X132848943Y-115619242D01*
X132867170Y-115399273D01*
X132867170Y-115399260D01*
X132848525Y-115174245D01*
X132848524Y-115174242D01*
X132848524Y-115174238D01*
X132793093Y-114955348D01*
X132702390Y-114748566D01*
X132578889Y-114559534D01*
X132425959Y-114393407D01*
X132425954Y-114393403D01*
X132425952Y-114393401D01*
X132247779Y-114254723D01*
X132247773Y-114254719D01*
X132049187Y-114147249D01*
X132049181Y-114147247D01*
X131835622Y-114073932D01*
X131612900Y-114036767D01*
X131387100Y-114036767D01*
X131164377Y-114073932D01*
X130950818Y-114147247D01*
X130950812Y-114147249D01*
X130752227Y-114254719D01*
X130576162Y-114391756D01*
X130511168Y-114417398D01*
X130442628Y-114403831D01*
X130423838Y-114391756D01*
X130247772Y-114254719D01*
X130247771Y-114254718D01*
X130156656Y-114205408D01*
X130049187Y-114147249D01*
X130049181Y-114147247D01*
X129835622Y-114073932D01*
X129612900Y-114036767D01*
X129387100Y-114036767D01*
X129164377Y-114073932D01*
X128950818Y-114147247D01*
X128950812Y-114147249D01*
X128752226Y-114254719D01*
X128752220Y-114254723D01*
X128574047Y-114393401D01*
X128574044Y-114393404D01*
X128421108Y-114559537D01*
X128297608Y-114748569D01*
X128206908Y-114955343D01*
X128206907Y-114955346D01*
X128184576Y-115043527D01*
X128152053Y-115100766D01*
X127881000Y-115371819D01*
X127881000Y-115349107D01*
X127855036Y-115252206D01*
X127804876Y-115165327D01*
X127733940Y-115094391D01*
X127647061Y-115044231D01*
X127550160Y-115018267D01*
X127527448Y-115018267D01*
X128198188Y-114347526D01*
X128198187Y-114347525D01*
X128133411Y-114302168D01*
X128133405Y-114302165D01*
X127933284Y-114208847D01*
X127933270Y-114208842D01*
X127719986Y-114151693D01*
X127719976Y-114151691D01*
X127500001Y-114132446D01*
X127499999Y-114132446D01*
X127280023Y-114151691D01*
X127280013Y-114151693D01*
X127066729Y-114208842D01*
X127066720Y-114208846D01*
X126866590Y-114302168D01*
X126801811Y-114347525D01*
X127472553Y-115018267D01*
X127449840Y-115018267D01*
X127352939Y-115044231D01*
X127266060Y-115094391D01*
X127195124Y-115165327D01*
X127144964Y-115252206D01*
X127119000Y-115349107D01*
X127119000Y-115371820D01*
X126448258Y-114701078D01*
X126402901Y-114765857D01*
X126309579Y-114965987D01*
X126309575Y-114965996D01*
X126252426Y-115179280D01*
X126252424Y-115179290D01*
X126233179Y-115399266D01*
X125200500Y-115399266D01*
X125200500Y-104114057D01*
X136625819Y-104114057D01*
X136625819Y-104114060D01*
X136646131Y-104398065D01*
X136706652Y-104676273D01*
X136706654Y-104676280D01*
X136743124Y-104774059D01*
X136806156Y-104943056D01*
X136806158Y-104943060D01*
X136942607Y-105192948D01*
X136942612Y-105192956D01*
X137113234Y-105420881D01*
X137113250Y-105420899D01*
X137314563Y-105622212D01*
X137314581Y-105622228D01*
X137542504Y-105792849D01*
X137542506Y-105792850D01*
X137542509Y-105792852D01*
X137656332Y-105855003D01*
X137705736Y-105904406D01*
X137720904Y-105963834D01*
X137720904Y-112184367D01*
X137755507Y-112358329D01*
X137755509Y-112358337D01*
X137789450Y-112440277D01*
X137789450Y-112440278D01*
X137823388Y-112522213D01*
X137823389Y-112522214D01*
X137823391Y-112522218D01*
X137871851Y-112594742D01*
X137871851Y-112594743D01*
X137921941Y-112669709D01*
X137921944Y-112669712D01*
X147225536Y-121973302D01*
X147350965Y-122098731D01*
X147498453Y-122197280D01*
X147546452Y-122217162D01*
X147662334Y-122265162D01*
X147836304Y-122299766D01*
X147836308Y-122299767D01*
X147836309Y-122299767D01*
X148013692Y-122299767D01*
X164400501Y-122299767D01*
X164467540Y-122319452D01*
X164513295Y-122372256D01*
X164523437Y-122418878D01*
X164524099Y-122418843D01*
X164524146Y-122418838D01*
X164524146Y-122418840D01*
X164524324Y-122418831D01*
X164524501Y-122422143D01*
X164530908Y-122481750D01*
X164581202Y-122616595D01*
X164581206Y-122616602D01*
X164667452Y-122731811D01*
X164667455Y-122731814D01*
X164782664Y-122818060D01*
X164782671Y-122818064D01*
X164917517Y-122868358D01*
X164917516Y-122868358D01*
X164924444Y-122869102D01*
X164977127Y-122874767D01*
X167022872Y-122874766D01*
X167082483Y-122868358D01*
X167217331Y-122818063D01*
X167332546Y-122731813D01*
X167418796Y-122616598D01*
X167469091Y-122481750D01*
X167475500Y-122422140D01*
X167475499Y-120376395D01*
X167469091Y-120316784D01*
X167418796Y-120181936D01*
X167418795Y-120181935D01*
X167418793Y-120181931D01*
X167332547Y-120066722D01*
X167332544Y-120066719D01*
X167217335Y-119980473D01*
X167217328Y-119980469D01*
X167082482Y-119930175D01*
X167082483Y-119930175D01*
X167022883Y-119923768D01*
X167022881Y-119923767D01*
X167022873Y-119923767D01*
X167022864Y-119923767D01*
X164977129Y-119923767D01*
X164977123Y-119923768D01*
X164917516Y-119930175D01*
X164782671Y-119980469D01*
X164782664Y-119980473D01*
X164667455Y-120066719D01*
X164667452Y-120066722D01*
X164581206Y-120181931D01*
X164581202Y-120181938D01*
X164530908Y-120316784D01*
X164524501Y-120376383D01*
X164524501Y-120376390D01*
X164524322Y-120379719D01*
X164523065Y-120379651D01*
X164504815Y-120441806D01*
X164452011Y-120487561D01*
X164400500Y-120498767D01*
X148349361Y-120498767D01*
X148282322Y-120479082D01*
X148261680Y-120462448D01*
X144198493Y-116399261D01*
X164519443Y-116399261D01*
X164519443Y-116399272D01*
X164539634Y-116642950D01*
X164539636Y-116642962D01*
X164599663Y-116880001D01*
X164697888Y-117103933D01*
X164831632Y-117308645D01*
X164997242Y-117488544D01*
X164997252Y-117488553D01*
X165190208Y-117638737D01*
X165190212Y-117638740D01*
X165405267Y-117755122D01*
X165405270Y-117755123D01*
X165636541Y-117834518D01*
X165636543Y-117834518D01*
X165636545Y-117834519D01*
X165877737Y-117874767D01*
X165877738Y-117874767D01*
X166122262Y-117874767D01*
X166122263Y-117874767D01*
X166363455Y-117834519D01*
X166594733Y-117755122D01*
X166809788Y-117638740D01*
X167002754Y-117488548D01*
X167168368Y-117308644D01*
X167302111Y-117103934D01*
X167400336Y-116880003D01*
X167460364Y-116642959D01*
X167460365Y-116642950D01*
X167480557Y-116399272D01*
X167480557Y-116399261D01*
X167460365Y-116155583D01*
X167460363Y-116155571D01*
X167445646Y-116097454D01*
X167400336Y-115918531D01*
X167302111Y-115694600D01*
X167252885Y-115619253D01*
X167168367Y-115489888D01*
X167002757Y-115309989D01*
X167002747Y-115309980D01*
X166809791Y-115159796D01*
X166809787Y-115159793D01*
X166594734Y-115043412D01*
X166594729Y-115043410D01*
X166363458Y-114964015D01*
X166182561Y-114933829D01*
X166122263Y-114923767D01*
X165877737Y-114923767D01*
X165829498Y-114931816D01*
X165636541Y-114964015D01*
X165405270Y-115043410D01*
X165405265Y-115043412D01*
X165190212Y-115159793D01*
X165190208Y-115159796D01*
X164997252Y-115309980D01*
X164997242Y-115309989D01*
X164831632Y-115489888D01*
X164697888Y-115694600D01*
X164599663Y-115918532D01*
X164539636Y-116155571D01*
X164539634Y-116155583D01*
X164519443Y-116399261D01*
X144198493Y-116399261D01*
X139558223Y-111758990D01*
X139524738Y-111697667D01*
X139521904Y-111671309D01*
X139521904Y-105963834D01*
X139541589Y-105896795D01*
X139586477Y-105855002D01*
X139700299Y-105792852D01*
X139817094Y-105705419D01*
X139882558Y-105681003D01*
X139950831Y-105695855D01*
X139965707Y-105705415D01*
X140082509Y-105792852D01*
X140082513Y-105792854D01*
X140082514Y-105792855D01*
X140332402Y-105929304D01*
X140332406Y-105929306D01*
X140332408Y-105929307D01*
X140599183Y-106028809D01*
X140738293Y-106059070D01*
X140877397Y-106089331D01*
X140877399Y-106089331D01*
X140877403Y-106089332D01*
X141129783Y-106107382D01*
X141161403Y-106109644D01*
X141161404Y-106109644D01*
X141161405Y-106109644D01*
X141189856Y-106107609D01*
X141445405Y-106089332D01*
X141723625Y-106028809D01*
X141990400Y-105929307D01*
X142240299Y-105792852D01*
X142468234Y-105622222D01*
X142669567Y-105420889D01*
X142698762Y-105381887D01*
X142754693Y-105340017D01*
X142824384Y-105335031D01*
X142874190Y-105358343D01*
X142883656Y-105365711D01*
X143100825Y-105483237D01*
X143100833Y-105483240D01*
X143334374Y-105563415D01*
X143577939Y-105604059D01*
X143824869Y-105604059D01*
X144068433Y-105563415D01*
X144301974Y-105483240D01*
X144301982Y-105483237D01*
X144519147Y-105365713D01*
X144528609Y-105358348D01*
X144593602Y-105332702D01*
X144662143Y-105346264D01*
X144704044Y-105381887D01*
X144733234Y-105420881D01*
X144733250Y-105420899D01*
X144934563Y-105622212D01*
X144934581Y-105622228D01*
X145162506Y-105792850D01*
X145162514Y-105792855D01*
X145412402Y-105929304D01*
X145412406Y-105929306D01*
X145412408Y-105929307D01*
X145679183Y-106028809D01*
X145818293Y-106059070D01*
X145957397Y-106089331D01*
X145957399Y-106089331D01*
X145957403Y-106089332D01*
X146209783Y-106107382D01*
X146241403Y-106109644D01*
X146241404Y-106109644D01*
X146241405Y-106109644D01*
X146269856Y-106107609D01*
X146525405Y-106089332D01*
X146803625Y-106028809D01*
X147070400Y-105929307D01*
X147320299Y-105792852D01*
X147437094Y-105705419D01*
X147502558Y-105681003D01*
X147570831Y-105695855D01*
X147585707Y-105705415D01*
X147702509Y-105792852D01*
X147702513Y-105792854D01*
X147702514Y-105792855D01*
X147952402Y-105929304D01*
X147952406Y-105929306D01*
X147952408Y-105929307D01*
X148219183Y-106028809D01*
X148358293Y-106059070D01*
X148497397Y-106089331D01*
X148497399Y-106089331D01*
X148497403Y-106089332D01*
X148749783Y-106107382D01*
X148781403Y-106109644D01*
X148781404Y-106109644D01*
X148781405Y-106109644D01*
X148809856Y-106107609D01*
X149065405Y-106089332D01*
X149343625Y-106028809D01*
X149610400Y-105929307D01*
X149860299Y-105792852D01*
X149977094Y-105705419D01*
X150042558Y-105681003D01*
X150110831Y-105695855D01*
X150125707Y-105705415D01*
X150242509Y-105792852D01*
X150242513Y-105792854D01*
X150242514Y-105792855D01*
X150492402Y-105929304D01*
X150492406Y-105929306D01*
X150492408Y-105929307D01*
X150759183Y-106028809D01*
X150898293Y-106059070D01*
X151037397Y-106089331D01*
X151037399Y-106089331D01*
X151037403Y-106089332D01*
X151289783Y-106107382D01*
X151321403Y-106109644D01*
X151321404Y-106109644D01*
X151321405Y-106109644D01*
X151349856Y-106107609D01*
X151605405Y-106089332D01*
X151883625Y-106028809D01*
X152150400Y-105929307D01*
X152400299Y-105792852D01*
X152517094Y-105705419D01*
X152582558Y-105681003D01*
X152650831Y-105695855D01*
X152665707Y-105705415D01*
X152782509Y-105792852D01*
X152782513Y-105792854D01*
X152782514Y-105792855D01*
X153032402Y-105929304D01*
X153032406Y-105929306D01*
X153032408Y-105929307D01*
X153299183Y-106028809D01*
X153438293Y-106059070D01*
X153577397Y-106089331D01*
X153577399Y-106089331D01*
X153577403Y-106089332D01*
X153829783Y-106107382D01*
X153861403Y-106109644D01*
X153861404Y-106109644D01*
X153861405Y-106109644D01*
X153889856Y-106107609D01*
X154145405Y-106089332D01*
X154423625Y-106028809D01*
X154690400Y-105929307D01*
X154940299Y-105792852D01*
X155168234Y-105622222D01*
X155369567Y-105420889D01*
X155398762Y-105381887D01*
X155454693Y-105340017D01*
X155524384Y-105335031D01*
X155574190Y-105358343D01*
X155583656Y-105365711D01*
X155800825Y-105483237D01*
X155800833Y-105483240D01*
X156034374Y-105563415D01*
X156277939Y-105604059D01*
X156524869Y-105604059D01*
X156768433Y-105563415D01*
X157001974Y-105483240D01*
X157001982Y-105483237D01*
X157219147Y-105365713D01*
X157264334Y-105330542D01*
X156656546Y-104722754D01*
X156714031Y-104698943D01*
X156822129Y-104626714D01*
X156914059Y-104534784D01*
X156986288Y-104426686D01*
X157010098Y-104369201D01*
X157617613Y-104976716D01*
X157716308Y-104825654D01*
X157716313Y-104825646D01*
X157815502Y-104599519D01*
X157876119Y-104360149D01*
X157876121Y-104360138D01*
X157896511Y-104114065D01*
X157896511Y-104114052D01*
X157876121Y-103867979D01*
X157876119Y-103867968D01*
X157815502Y-103628598D01*
X157716310Y-103402465D01*
X157617613Y-103251400D01*
X157010098Y-103858915D01*
X156986288Y-103801432D01*
X156914059Y-103693334D01*
X156822129Y-103601404D01*
X156714031Y-103529175D01*
X156656545Y-103505363D01*
X157264335Y-102897574D01*
X157219147Y-102862405D01*
X157001982Y-102744880D01*
X157001974Y-102744877D01*
X156768433Y-102664702D01*
X156524869Y-102624059D01*
X156277939Y-102624059D01*
X156034374Y-102664702D01*
X155800833Y-102744877D01*
X155800825Y-102744880D01*
X155583655Y-102862407D01*
X155583648Y-102862412D01*
X155574185Y-102869777D01*
X155509190Y-102895416D01*
X155440650Y-102881845D01*
X155398763Y-102846231D01*
X155369567Y-102807229D01*
X155369565Y-102807227D01*
X155369557Y-102807218D01*
X155168244Y-102605905D01*
X155168226Y-102605889D01*
X154940301Y-102435267D01*
X154940293Y-102435262D01*
X154690405Y-102298813D01*
X154690401Y-102298811D01*
X154589262Y-102261088D01*
X154423625Y-102199309D01*
X154423621Y-102199308D01*
X154423618Y-102199307D01*
X154145410Y-102138786D01*
X153861405Y-102118474D01*
X153861403Y-102118474D01*
X153577397Y-102138786D01*
X153299189Y-102199307D01*
X153299184Y-102199308D01*
X153299183Y-102199309D01*
X153243507Y-102220075D01*
X153032406Y-102298811D01*
X153032402Y-102298813D01*
X152782514Y-102435262D01*
X152782506Y-102435267D01*
X152665714Y-102522697D01*
X152600250Y-102547114D01*
X152531977Y-102532262D01*
X152517094Y-102522697D01*
X152400301Y-102435267D01*
X152400293Y-102435262D01*
X152150405Y-102298813D01*
X152150401Y-102298811D01*
X152049262Y-102261088D01*
X151883625Y-102199309D01*
X151883621Y-102199308D01*
X151883618Y-102199307D01*
X151605410Y-102138786D01*
X151321405Y-102118474D01*
X151321403Y-102118474D01*
X151037397Y-102138786D01*
X150759189Y-102199307D01*
X150759184Y-102199308D01*
X150759183Y-102199309D01*
X150703507Y-102220075D01*
X150492406Y-102298811D01*
X150492402Y-102298813D01*
X150242514Y-102435262D01*
X150242506Y-102435267D01*
X150125714Y-102522697D01*
X150060250Y-102547114D01*
X149991977Y-102532262D01*
X149977094Y-102522697D01*
X149860301Y-102435267D01*
X149860293Y-102435262D01*
X149610405Y-102298813D01*
X149610401Y-102298811D01*
X149509262Y-102261088D01*
X149343625Y-102199309D01*
X149343621Y-102199308D01*
X149343618Y-102199307D01*
X149065410Y-102138786D01*
X148781405Y-102118474D01*
X148781403Y-102118474D01*
X148497397Y-102138786D01*
X148219189Y-102199307D01*
X148219184Y-102199308D01*
X148219183Y-102199309D01*
X148163507Y-102220075D01*
X147952406Y-102298811D01*
X147952402Y-102298813D01*
X147702514Y-102435262D01*
X147702506Y-102435267D01*
X147585714Y-102522697D01*
X147520250Y-102547114D01*
X147451977Y-102532262D01*
X147437094Y-102522697D01*
X147320301Y-102435267D01*
X147320293Y-102435262D01*
X147206477Y-102373114D01*
X147157072Y-102323709D01*
X147141904Y-102264282D01*
X147141904Y-97576979D01*
X147141903Y-97576975D01*
X147107300Y-97403012D01*
X147107299Y-97403005D01*
X147041743Y-97244742D01*
X147040099Y-97240145D01*
X146940869Y-97091637D01*
X146916688Y-97067456D01*
X146815439Y-96966207D01*
X144530277Y-94681044D01*
X144530276Y-94681043D01*
X144530271Y-94681039D01*
X144471202Y-94641572D01*
X144471201Y-94641571D01*
X144382785Y-94582493D01*
X144382783Y-94582492D01*
X144300848Y-94548554D01*
X144300847Y-94548554D01*
X144218907Y-94514613D01*
X144218899Y-94514611D01*
X144044937Y-94480008D01*
X144044933Y-94480008D01*
X144044932Y-94480008D01*
X142303712Y-94480008D01*
X142236673Y-94460323D01*
X142220177Y-94447648D01*
X142188076Y-94418384D01*
X142188073Y-94418382D01*
X142188072Y-94418381D01*
X141998918Y-94301262D01*
X141998912Y-94301260D01*
X141791454Y-94220890D01*
X141572757Y-94180008D01*
X141350271Y-94180008D01*
X141131574Y-94220890D01*
X141000378Y-94271715D01*
X140924115Y-94301260D01*
X140924109Y-94301262D01*
X140734953Y-94418382D01*
X140734951Y-94418384D01*
X140570534Y-94568269D01*
X140436457Y-94745816D01*
X140436452Y-94745824D01*
X140337289Y-94944969D01*
X140337283Y-94944984D01*
X140276399Y-95158970D01*
X140276398Y-95158972D01*
X140255871Y-95380507D01*
X140255871Y-95380508D01*
X140276398Y-95602043D01*
X140276399Y-95602045D01*
X140337283Y-95816031D01*
X140337289Y-95816046D01*
X140436452Y-96015191D01*
X140436457Y-96015199D01*
X140570534Y-96192746D01*
X140734951Y-96342631D01*
X140734953Y-96342633D01*
X140924109Y-96459753D01*
X140924110Y-96459753D01*
X140924113Y-96459755D01*
X141131574Y-96540126D01*
X141350271Y-96581008D01*
X141350273Y-96581008D01*
X141572755Y-96581008D01*
X141572757Y-96581008D01*
X141791454Y-96540126D01*
X141998915Y-96459755D01*
X142188076Y-96342632D01*
X142220174Y-96313370D01*
X142282978Y-96282754D01*
X142303712Y-96281008D01*
X143531879Y-96281008D01*
X143598918Y-96300693D01*
X143619560Y-96317327D01*
X145304585Y-98002351D01*
X145338070Y-98063674D01*
X145340904Y-98090032D01*
X145340904Y-102264282D01*
X145321219Y-102331321D01*
X145276331Y-102373114D01*
X145162514Y-102435262D01*
X145162506Y-102435267D01*
X144934581Y-102605889D01*
X144934563Y-102605905D01*
X144733250Y-102807218D01*
X144733235Y-102807235D01*
X144704042Y-102846232D01*
X144648108Y-102888102D01*
X144578416Y-102893085D01*
X144528614Y-102869772D01*
X144519152Y-102862407D01*
X144301982Y-102744880D01*
X144301974Y-102744877D01*
X144068433Y-102664702D01*
X143824869Y-102624059D01*
X143577939Y-102624059D01*
X143334374Y-102664702D01*
X143100833Y-102744877D01*
X143100825Y-102744880D01*
X142883655Y-102862407D01*
X142883648Y-102862412D01*
X142874185Y-102869777D01*
X142809190Y-102895416D01*
X142740650Y-102881845D01*
X142698763Y-102846231D01*
X142669567Y-102807229D01*
X142669565Y-102807227D01*
X142669557Y-102807218D01*
X142468244Y-102605905D01*
X142468226Y-102605889D01*
X142240301Y-102435267D01*
X142240293Y-102435262D01*
X141990405Y-102298813D01*
X141990401Y-102298811D01*
X141889262Y-102261088D01*
X141723625Y-102199309D01*
X141723621Y-102199308D01*
X141723618Y-102199307D01*
X141445410Y-102138786D01*
X141161405Y-102118474D01*
X141161403Y-102118474D01*
X140877397Y-102138786D01*
X140599189Y-102199307D01*
X140599184Y-102199308D01*
X140599183Y-102199309D01*
X140543507Y-102220075D01*
X140332406Y-102298811D01*
X140332402Y-102298813D01*
X140082514Y-102435262D01*
X140082506Y-102435267D01*
X139965714Y-102522697D01*
X139900250Y-102547114D01*
X139831977Y-102532262D01*
X139817094Y-102522697D01*
X139700301Y-102435267D01*
X139700293Y-102435262D01*
X139450405Y-102298813D01*
X139450401Y-102298811D01*
X139349262Y-102261088D01*
X139183625Y-102199309D01*
X139183621Y-102199308D01*
X139183618Y-102199307D01*
X138905410Y-102138786D01*
X138621405Y-102118474D01*
X138621403Y-102118474D01*
X138337397Y-102138786D01*
X138059189Y-102199307D01*
X138059184Y-102199308D01*
X138059183Y-102199309D01*
X138003507Y-102220075D01*
X137792406Y-102298811D01*
X137792402Y-102298813D01*
X137542514Y-102435262D01*
X137542506Y-102435267D01*
X137314581Y-102605889D01*
X137314563Y-102605905D01*
X137113250Y-102807218D01*
X137113234Y-102807236D01*
X136942612Y-103035161D01*
X136942607Y-103035169D01*
X136806158Y-103285057D01*
X136806156Y-103285061D01*
X136706652Y-103551844D01*
X136646131Y-103830052D01*
X136625819Y-104114057D01*
X125200500Y-104114057D01*
X125200500Y-97990785D01*
X125220185Y-97923746D01*
X125236814Y-97903109D01*
X134265865Y-88874057D01*
X136625819Y-88874057D01*
X136625819Y-88874060D01*
X136646131Y-89158065D01*
X136706652Y-89436273D01*
X136706654Y-89436280D01*
X136743124Y-89534059D01*
X136806156Y-89703056D01*
X136806158Y-89703060D01*
X136942607Y-89952948D01*
X136942612Y-89952956D01*
X137113234Y-90180881D01*
X137113250Y-90180899D01*
X137314563Y-90382212D01*
X137314581Y-90382228D01*
X137542506Y-90552850D01*
X137542514Y-90552855D01*
X137792402Y-90689304D01*
X137792406Y-90689306D01*
X137792408Y-90689307D01*
X138059183Y-90788809D01*
X138198293Y-90819070D01*
X138337397Y-90849331D01*
X138337399Y-90849331D01*
X138337403Y-90849332D01*
X138589783Y-90867382D01*
X138621403Y-90869644D01*
X138621404Y-90869644D01*
X138621405Y-90869644D01*
X138649856Y-90867609D01*
X138905405Y-90849332D01*
X139183625Y-90788809D01*
X139450400Y-90689307D01*
X139700299Y-90552852D01*
X139817094Y-90465419D01*
X139882558Y-90441003D01*
X139950831Y-90455855D01*
X139965707Y-90465415D01*
X140082509Y-90552852D01*
X140082513Y-90552854D01*
X140082514Y-90552855D01*
X140332402Y-90689304D01*
X140332406Y-90689306D01*
X140332408Y-90689307D01*
X140599183Y-90788809D01*
X140738293Y-90819070D01*
X140877397Y-90849331D01*
X140877399Y-90849331D01*
X140877403Y-90849332D01*
X141129783Y-90867382D01*
X141161403Y-90869644D01*
X141161404Y-90869644D01*
X141161405Y-90869644D01*
X141189856Y-90867609D01*
X141445405Y-90849332D01*
X141723625Y-90788809D01*
X141990400Y-90689307D01*
X142240299Y-90552852D01*
X142357094Y-90465419D01*
X142422558Y-90441003D01*
X142490831Y-90455855D01*
X142505707Y-90465415D01*
X142622509Y-90552852D01*
X142622513Y-90552854D01*
X142622514Y-90552855D01*
X142872402Y-90689304D01*
X142872406Y-90689306D01*
X142872408Y-90689307D01*
X143139183Y-90788809D01*
X143278293Y-90819070D01*
X143417397Y-90849331D01*
X143417399Y-90849331D01*
X143417403Y-90849332D01*
X143669783Y-90867382D01*
X143701403Y-90869644D01*
X143701404Y-90869644D01*
X143701405Y-90869644D01*
X143729856Y-90867609D01*
X143985405Y-90849332D01*
X144263625Y-90788809D01*
X144530400Y-90689307D01*
X144780299Y-90552852D01*
X144897094Y-90465419D01*
X144962558Y-90441003D01*
X145030831Y-90455855D01*
X145045707Y-90465415D01*
X145162509Y-90552852D01*
X145162513Y-90552854D01*
X145162514Y-90552855D01*
X145412402Y-90689304D01*
X145412406Y-90689306D01*
X145412408Y-90689307D01*
X145679183Y-90788809D01*
X145818293Y-90819070D01*
X145957397Y-90849331D01*
X145957399Y-90849331D01*
X145957403Y-90849332D01*
X146209783Y-90867382D01*
X146241403Y-90869644D01*
X146241404Y-90869644D01*
X146241405Y-90869644D01*
X146269856Y-90867609D01*
X146525405Y-90849332D01*
X146803625Y-90788809D01*
X147070400Y-90689307D01*
X147320299Y-90552852D01*
X147437094Y-90465419D01*
X147502558Y-90441003D01*
X147570831Y-90455855D01*
X147585707Y-90465415D01*
X147702509Y-90552852D01*
X147702513Y-90552854D01*
X147702514Y-90552855D01*
X147952402Y-90689304D01*
X147952406Y-90689306D01*
X147952408Y-90689307D01*
X148219183Y-90788809D01*
X148358293Y-90819070D01*
X148497397Y-90849331D01*
X148497399Y-90849331D01*
X148497403Y-90849332D01*
X148749783Y-90867382D01*
X148781403Y-90869644D01*
X148781404Y-90869644D01*
X148781405Y-90869644D01*
X148809856Y-90867609D01*
X149065405Y-90849332D01*
X149343625Y-90788809D01*
X149610400Y-90689307D01*
X149860299Y-90552852D01*
X149977094Y-90465419D01*
X150042558Y-90441003D01*
X150110831Y-90455855D01*
X150125707Y-90465415D01*
X150242509Y-90552852D01*
X150242513Y-90552854D01*
X150242514Y-90552855D01*
X150492402Y-90689304D01*
X150492406Y-90689306D01*
X150492408Y-90689307D01*
X150759183Y-90788809D01*
X150898293Y-90819070D01*
X151037397Y-90849331D01*
X151037399Y-90849331D01*
X151037403Y-90849332D01*
X151289783Y-90867382D01*
X151321403Y-90869644D01*
X151321404Y-90869644D01*
X151321405Y-90869644D01*
X151349856Y-90867609D01*
X151605405Y-90849332D01*
X151883625Y-90788809D01*
X152150400Y-90689307D01*
X152400299Y-90552852D01*
X152517094Y-90465419D01*
X152582558Y-90441003D01*
X152650831Y-90455855D01*
X152665707Y-90465415D01*
X152782509Y-90552852D01*
X152782513Y-90552854D01*
X152782514Y-90552855D01*
X153032402Y-90689304D01*
X153032406Y-90689306D01*
X153032408Y-90689307D01*
X153299183Y-90788809D01*
X153438293Y-90819070D01*
X153577397Y-90849331D01*
X153577399Y-90849331D01*
X153577403Y-90849332D01*
X153829783Y-90867382D01*
X153861403Y-90869644D01*
X153861404Y-90869644D01*
X153861405Y-90869644D01*
X153889856Y-90867609D01*
X154145405Y-90849332D01*
X154423625Y-90788809D01*
X154690400Y-90689307D01*
X154940299Y-90552852D01*
X155168234Y-90382222D01*
X155369567Y-90180889D01*
X155398762Y-90141887D01*
X155454693Y-90100017D01*
X155524384Y-90095031D01*
X155574190Y-90118343D01*
X155583656Y-90125711D01*
X155800825Y-90243237D01*
X155800833Y-90243240D01*
X156034374Y-90323415D01*
X156277939Y-90364059D01*
X156524869Y-90364059D01*
X156768433Y-90323415D01*
X157001974Y-90243240D01*
X157001982Y-90243237D01*
X157219147Y-90125713D01*
X157264334Y-90090542D01*
X156656546Y-89482754D01*
X156714031Y-89458943D01*
X156822129Y-89386714D01*
X156914059Y-89294784D01*
X156986288Y-89186686D01*
X157010098Y-89129201D01*
X157617613Y-89736716D01*
X157716308Y-89585654D01*
X157716313Y-89585646D01*
X157815502Y-89359519D01*
X157876119Y-89120149D01*
X157876121Y-89120138D01*
X157896511Y-88874065D01*
X157896511Y-88874052D01*
X157876121Y-88627979D01*
X157876119Y-88627968D01*
X157815502Y-88388598D01*
X157716310Y-88162465D01*
X157617613Y-88011400D01*
X157010098Y-88618915D01*
X156986288Y-88561432D01*
X156914059Y-88453334D01*
X156822129Y-88361404D01*
X156714031Y-88289175D01*
X156656545Y-88265363D01*
X157264335Y-87657574D01*
X157219147Y-87622405D01*
X157001982Y-87504880D01*
X157001974Y-87504877D01*
X156768433Y-87424702D01*
X156524869Y-87384059D01*
X156277939Y-87384059D01*
X156034374Y-87424702D01*
X155800833Y-87504877D01*
X155800825Y-87504880D01*
X155583655Y-87622407D01*
X155583648Y-87622412D01*
X155574185Y-87629777D01*
X155509190Y-87655416D01*
X155440650Y-87641845D01*
X155398763Y-87606231D01*
X155369567Y-87567229D01*
X155369565Y-87567227D01*
X155369557Y-87567218D01*
X155168244Y-87365905D01*
X155168226Y-87365889D01*
X154940301Y-87195267D01*
X154940293Y-87195262D01*
X154690405Y-87058813D01*
X154690401Y-87058811D01*
X154589262Y-87021088D01*
X154423625Y-86959309D01*
X154423621Y-86959308D01*
X154423618Y-86959307D01*
X154145410Y-86898786D01*
X153861405Y-86878474D01*
X153861403Y-86878474D01*
X153577397Y-86898786D01*
X153299189Y-86959307D01*
X153299184Y-86959308D01*
X153299183Y-86959309D01*
X153234683Y-86983366D01*
X153032406Y-87058811D01*
X153032402Y-87058813D01*
X152782514Y-87195262D01*
X152782506Y-87195267D01*
X152665714Y-87282697D01*
X152600250Y-87307114D01*
X152531977Y-87292262D01*
X152517094Y-87282697D01*
X152400301Y-87195267D01*
X152400293Y-87195262D01*
X152150405Y-87058813D01*
X152150401Y-87058811D01*
X152049262Y-87021088D01*
X151883625Y-86959309D01*
X151883621Y-86959308D01*
X151883618Y-86959307D01*
X151605410Y-86898786D01*
X151321405Y-86878474D01*
X151321403Y-86878474D01*
X151037397Y-86898786D01*
X150759189Y-86959307D01*
X150759184Y-86959308D01*
X150759183Y-86959309D01*
X150694683Y-86983366D01*
X150492406Y-87058811D01*
X150492402Y-87058813D01*
X150242514Y-87195262D01*
X150242506Y-87195267D01*
X150125714Y-87282697D01*
X150060250Y-87307114D01*
X149991977Y-87292262D01*
X149977094Y-87282697D01*
X149860301Y-87195267D01*
X149860293Y-87195262D01*
X149610405Y-87058813D01*
X149610401Y-87058811D01*
X149509262Y-87021088D01*
X149343625Y-86959309D01*
X149343621Y-86959308D01*
X149343618Y-86959307D01*
X149065410Y-86898786D01*
X148781405Y-86878474D01*
X148781403Y-86878474D01*
X148497397Y-86898786D01*
X148219189Y-86959307D01*
X148219184Y-86959308D01*
X148219183Y-86959309D01*
X148154683Y-86983366D01*
X147952406Y-87058811D01*
X147952402Y-87058813D01*
X147702514Y-87195262D01*
X147702506Y-87195267D01*
X147585714Y-87282697D01*
X147520250Y-87307114D01*
X147451977Y-87292262D01*
X147437094Y-87282697D01*
X147320301Y-87195267D01*
X147320293Y-87195262D01*
X147070405Y-87058813D01*
X147070401Y-87058811D01*
X146969262Y-87021088D01*
X146803625Y-86959309D01*
X146803621Y-86959308D01*
X146803618Y-86959307D01*
X146525410Y-86898786D01*
X146241405Y-86878474D01*
X146241403Y-86878474D01*
X145957397Y-86898786D01*
X145679189Y-86959307D01*
X145679184Y-86959308D01*
X145679183Y-86959309D01*
X145614683Y-86983366D01*
X145412406Y-87058811D01*
X145412402Y-87058813D01*
X145162514Y-87195262D01*
X145162506Y-87195267D01*
X145045714Y-87282697D01*
X144980250Y-87307114D01*
X144911977Y-87292262D01*
X144897094Y-87282697D01*
X144780301Y-87195267D01*
X144780293Y-87195262D01*
X144530405Y-87058813D01*
X144530401Y-87058811D01*
X144429262Y-87021088D01*
X144263625Y-86959309D01*
X144263621Y-86959308D01*
X144263618Y-86959307D01*
X143985410Y-86898786D01*
X143701405Y-86878474D01*
X143701403Y-86878474D01*
X143417397Y-86898786D01*
X143139189Y-86959307D01*
X143139184Y-86959308D01*
X143139183Y-86959309D01*
X143074683Y-86983366D01*
X142872406Y-87058811D01*
X142872402Y-87058813D01*
X142622514Y-87195262D01*
X142622506Y-87195267D01*
X142505714Y-87282697D01*
X142440250Y-87307114D01*
X142371977Y-87292262D01*
X142357094Y-87282697D01*
X142240301Y-87195267D01*
X142240293Y-87195262D01*
X141990405Y-87058813D01*
X141990401Y-87058811D01*
X141889262Y-87021088D01*
X141723625Y-86959309D01*
X141723621Y-86959308D01*
X141723618Y-86959307D01*
X141445410Y-86898786D01*
X141161405Y-86878474D01*
X141161403Y-86878474D01*
X140877397Y-86898786D01*
X140599189Y-86959307D01*
X140599184Y-86959308D01*
X140599183Y-86959309D01*
X140534683Y-86983366D01*
X140332406Y-87058811D01*
X140332402Y-87058813D01*
X140082514Y-87195262D01*
X140082506Y-87195267D01*
X139965714Y-87282697D01*
X139900250Y-87307114D01*
X139831977Y-87292262D01*
X139817094Y-87282697D01*
X139700301Y-87195267D01*
X139700293Y-87195262D01*
X139450405Y-87058813D01*
X139450401Y-87058811D01*
X139349262Y-87021088D01*
X139183625Y-86959309D01*
X139183621Y-86959308D01*
X139183618Y-86959307D01*
X138905410Y-86898786D01*
X138621405Y-86878474D01*
X138621403Y-86878474D01*
X138337397Y-86898786D01*
X138059189Y-86959307D01*
X138059184Y-86959308D01*
X138059183Y-86959309D01*
X137994683Y-86983366D01*
X137792406Y-87058811D01*
X137792402Y-87058813D01*
X137542514Y-87195262D01*
X137542506Y-87195267D01*
X137314581Y-87365889D01*
X137314563Y-87365905D01*
X137113250Y-87567218D01*
X137113234Y-87567236D01*
X136942612Y-87795161D01*
X136942607Y-87795169D01*
X136806158Y-88045057D01*
X136806156Y-88045061D01*
X136706652Y-88311844D01*
X136646131Y-88590052D01*
X136625819Y-88874057D01*
X134265865Y-88874057D01*
X139824290Y-83315632D01*
X139871013Y-83286274D01*
X139974522Y-83250056D01*
X140127262Y-83154083D01*
X140254816Y-83026529D01*
X140350789Y-82873789D01*
X140410368Y-82703522D01*
X140410369Y-82703516D01*
X140430565Y-82524270D01*
X140430565Y-82524263D01*
X140410369Y-82345017D01*
X140410368Y-82345012D01*
X140350788Y-82174743D01*
X140278396Y-82059532D01*
X140254816Y-82022005D01*
X140127262Y-81894451D01*
X140058381Y-81851170D01*
X139974523Y-81798478D01*
X139804254Y-81738898D01*
X139804249Y-81738897D01*
X139625004Y-81718702D01*
X139624996Y-81718702D01*
X139465742Y-81736645D01*
X139396920Y-81724590D01*
X139345541Y-81677241D01*
X139327917Y-81609631D01*
X139349644Y-81543225D01*
X139364172Y-81525750D01*
X140672940Y-80216982D01*
X140723433Y-80189082D01*
X140722682Y-80186935D01*
X140729255Y-80184635D01*
X140899522Y-80125056D01*
X141052262Y-80029083D01*
X141179816Y-79901529D01*
X141275789Y-79748789D01*
X141335368Y-79578522D01*
X141338585Y-79549969D01*
X141355565Y-79399270D01*
X141355565Y-79399263D01*
X141335369Y-79220017D01*
X141335368Y-79220012D01*
X141275789Y-79049745D01*
X141179816Y-78897005D01*
X141052262Y-78769451D01*
X140899523Y-78673478D01*
X140729254Y-78613898D01*
X140729249Y-78613897D01*
X140550004Y-78593702D01*
X140549996Y-78593702D01*
X140370750Y-78613897D01*
X140370745Y-78613898D01*
X140200476Y-78673478D01*
X140047737Y-78769451D01*
X139920184Y-78897004D01*
X139824212Y-79049742D01*
X139824210Y-79049747D01*
X139814904Y-79076340D01*
X139785545Y-79123063D01*
X121955887Y-96952721D01*
X121879222Y-97067459D01*
X121826421Y-97194934D01*
X121826418Y-97194946D01*
X121802050Y-97317453D01*
X121802049Y-97317458D01*
X121799500Y-97330269D01*
X121799500Y-97330274D01*
X121799500Y-127628801D01*
X121799500Y-127766789D01*
X121799500Y-127766791D01*
X121799499Y-127766791D01*
X121200500Y-127766791D01*
X121200500Y-81805986D01*
X121220185Y-81738947D01*
X121236819Y-81718305D01*
X124055864Y-78899260D01*
X125632830Y-78899260D01*
X125632830Y-78899273D01*
X125651474Y-79124288D01*
X125651476Y-79124296D01*
X125706907Y-79343187D01*
X125797608Y-79549964D01*
X125797610Y-79549968D01*
X125921109Y-79738997D01*
X125921111Y-79739000D01*
X125991335Y-79815285D01*
X126022256Y-79877940D01*
X126014395Y-79947366D01*
X125991335Y-79983249D01*
X125921111Y-80059533D01*
X125797608Y-80248569D01*
X125706907Y-80455346D01*
X125651476Y-80674237D01*
X125651474Y-80674245D01*
X125632830Y-80899260D01*
X125632830Y-80899273D01*
X125651474Y-81124288D01*
X125651476Y-81124296D01*
X125706907Y-81343187D01*
X125756072Y-81455271D01*
X125797610Y-81549968D01*
X125919572Y-81736645D01*
X125921111Y-81739000D01*
X125991335Y-81815285D01*
X126022256Y-81877940D01*
X126014395Y-81947366D01*
X125991335Y-81983249D01*
X125921111Y-82059533D01*
X125797608Y-82248569D01*
X125706907Y-82455346D01*
X125651476Y-82674237D01*
X125651474Y-82674245D01*
X125632830Y-82899260D01*
X125632830Y-82899273D01*
X125651474Y-83124288D01*
X125651476Y-83124296D01*
X125706907Y-83343187D01*
X125797608Y-83549964D01*
X125797610Y-83549968D01*
X125921111Y-83739000D01*
X126074041Y-83905127D01*
X126074044Y-83905129D01*
X126074047Y-83905132D01*
X126252220Y-84043810D01*
X126252226Y-84043814D01*
X126252229Y-84043816D01*
X126450814Y-84151285D01*
X126664380Y-84224602D01*
X126887100Y-84261767D01*
X127112900Y-84261767D01*
X127335620Y-84224602D01*
X127549186Y-84151285D01*
X127747771Y-84043816D01*
X127925959Y-83905127D01*
X128078889Y-83739000D01*
X128202390Y-83549968D01*
X128293093Y-83343186D01*
X128348524Y-83124296D01*
X128348943Y-83119242D01*
X128367170Y-82899273D01*
X128367170Y-82899260D01*
X128348525Y-82674245D01*
X128348524Y-82674242D01*
X128348524Y-82674238D01*
X128293093Y-82455348D01*
X128202390Y-82248566D01*
X128171364Y-82201078D01*
X128078890Y-82059536D01*
X128078889Y-82059534D01*
X128008663Y-81983248D01*
X127977742Y-81920596D01*
X127985602Y-81851170D01*
X128008662Y-81815286D01*
X128078889Y-81739000D01*
X128202390Y-81549968D01*
X128293093Y-81343186D01*
X128348524Y-81124296D01*
X128348525Y-81124288D01*
X128367170Y-80899273D01*
X128367170Y-80899260D01*
X128348525Y-80674245D01*
X128348524Y-80674242D01*
X128348524Y-80674238D01*
X128293093Y-80455348D01*
X128202390Y-80248566D01*
X128181756Y-80216984D01*
X128089716Y-80076106D01*
X128078889Y-80059534D01*
X128008663Y-79983248D01*
X127977742Y-79920596D01*
X127985602Y-79851170D01*
X128008662Y-79815286D01*
X128078889Y-79739000D01*
X128202390Y-79549968D01*
X128293093Y-79343186D01*
X128348524Y-79124296D01*
X128348525Y-79124288D01*
X128367170Y-78899273D01*
X128367170Y-78899260D01*
X128348525Y-78674245D01*
X128348524Y-78674242D01*
X128348524Y-78674238D01*
X128293093Y-78455348D01*
X128202390Y-78248566D01*
X128078889Y-78059534D01*
X127925959Y-77893407D01*
X127925954Y-77893403D01*
X127925952Y-77893401D01*
X127747779Y-77754723D01*
X127747773Y-77754719D01*
X127549187Y-77647249D01*
X127549181Y-77647247D01*
X127335622Y-77573932D01*
X127112900Y-77536767D01*
X126887100Y-77536767D01*
X126664377Y-77573932D01*
X126450818Y-77647247D01*
X126450812Y-77647249D01*
X126252226Y-77754719D01*
X126252220Y-77754723D01*
X126074047Y-77893401D01*
X126074044Y-77893404D01*
X125921108Y-78059537D01*
X125797608Y-78248569D01*
X125706907Y-78455346D01*
X125651476Y-78674237D01*
X125651474Y-78674245D01*
X125632830Y-78899260D01*
X124055864Y-78899260D01*
X131087819Y-71867305D01*
X131149142Y-71833820D01*
X131218834Y-71838804D01*
X131274767Y-71880676D01*
X131299184Y-71946140D01*
X131299500Y-71954986D01*
X131299500Y-77657305D01*
X131279815Y-77724344D01*
X131251662Y-77755158D01*
X131074047Y-77893401D01*
X131074044Y-77893404D01*
X130921108Y-78059537D01*
X130797608Y-78248569D01*
X130706907Y-78455346D01*
X130651476Y-78674237D01*
X130651474Y-78674245D01*
X130632830Y-78899260D01*
X130632830Y-78899273D01*
X130651474Y-79124288D01*
X130651476Y-79124296D01*
X130706907Y-79343187D01*
X130797608Y-79549964D01*
X130797610Y-79549968D01*
X130921109Y-79738997D01*
X130921111Y-79739000D01*
X130991335Y-79815285D01*
X131022256Y-79877940D01*
X131014395Y-79947366D01*
X130991335Y-79983249D01*
X130921111Y-80059533D01*
X130797608Y-80248569D01*
X130706907Y-80455346D01*
X130651476Y-80674237D01*
X130651474Y-80674245D01*
X130632830Y-80899260D01*
X130632830Y-80899273D01*
X130651474Y-81124288D01*
X130651476Y-81124296D01*
X130706907Y-81343187D01*
X130756072Y-81455271D01*
X130797610Y-81549968D01*
X130797611Y-81549969D01*
X130921043Y-81738897D01*
X130921111Y-81739000D01*
X131074041Y-81905127D01*
X131074044Y-81905129D01*
X131074047Y-81905132D01*
X131252220Y-82043810D01*
X131252226Y-82043814D01*
X131252229Y-82043816D01*
X131450814Y-82151285D01*
X131450817Y-82151286D01*
X131659340Y-82222872D01*
X131706758Y-82252472D01*
X131972553Y-82518267D01*
X131949840Y-82518267D01*
X131852939Y-82544231D01*
X131766060Y-82594391D01*
X131695124Y-82665327D01*
X131644964Y-82752206D01*
X131619000Y-82849107D01*
X131619000Y-82871820D01*
X130948258Y-82201078D01*
X130902901Y-82265857D01*
X130809579Y-82465987D01*
X130809575Y-82465996D01*
X130752426Y-82679280D01*
X130752424Y-82679290D01*
X130733179Y-82899266D01*
X130733179Y-82899267D01*
X130752425Y-83119242D01*
X130752426Y-83119253D01*
X130809575Y-83332537D01*
X130809580Y-83332551D01*
X130902898Y-83532672D01*
X130902901Y-83532678D01*
X130948258Y-83597454D01*
X130948259Y-83597455D01*
X131619000Y-82926714D01*
X131619000Y-82949427D01*
X131644964Y-83046328D01*
X131695124Y-83133207D01*
X131766060Y-83204143D01*
X131852939Y-83254303D01*
X131949840Y-83280267D01*
X131972553Y-83280267D01*
X131301810Y-83951007D01*
X131366590Y-83996366D01*
X131366592Y-83996367D01*
X131566715Y-84089686D01*
X131566729Y-84089691D01*
X131780013Y-84146840D01*
X131780023Y-84146842D01*
X131999999Y-84166088D01*
X132000001Y-84166088D01*
X132219976Y-84146842D01*
X132219986Y-84146840D01*
X132433270Y-84089691D01*
X132433284Y-84089686D01*
X132633407Y-83996367D01*
X132633417Y-83996361D01*
X132698188Y-83951008D01*
X132027448Y-83280267D01*
X132050160Y-83280267D01*
X132147061Y-83254303D01*
X132233940Y-83204143D01*
X132304876Y-83133207D01*
X132355036Y-83046328D01*
X132381000Y-82949427D01*
X132381000Y-82926714D01*
X133051741Y-83597455D01*
X133097094Y-83532684D01*
X133097100Y-83532674D01*
X133190419Y-83332551D01*
X133190424Y-83332537D01*
X133247573Y-83119253D01*
X133247575Y-83119242D01*
X133266821Y-82899267D01*
X133266821Y-82899266D01*
X133247575Y-82679290D01*
X133247573Y-82679280D01*
X133190424Y-82465996D01*
X133190420Y-82465987D01*
X133097096Y-82265853D01*
X133051741Y-82201078D01*
X133051740Y-82201077D01*
X132381000Y-82871818D01*
X132381000Y-82849107D01*
X132355036Y-82752206D01*
X132304876Y-82665327D01*
X132233940Y-82594391D01*
X132147061Y-82544231D01*
X132050160Y-82518267D01*
X132027445Y-82518267D01*
X132293240Y-82252472D01*
X132340659Y-82222872D01*
X132404146Y-82201077D01*
X132549186Y-82151285D01*
X132747771Y-82043816D01*
X132925959Y-81905127D01*
X133078889Y-81739000D01*
X133202390Y-81549968D01*
X133293093Y-81343186D01*
X133348524Y-81124296D01*
X133348525Y-81124288D01*
X133367170Y-80899273D01*
X133367170Y-80899260D01*
X133348525Y-80674245D01*
X133348524Y-80674242D01*
X133348524Y-80674238D01*
X133293093Y-80455348D01*
X133202390Y-80248566D01*
X133181756Y-80216984D01*
X133089716Y-80076106D01*
X133078889Y-80059534D01*
X133008663Y-79983248D01*
X132977742Y-79920596D01*
X132985602Y-79851170D01*
X133008662Y-79815286D01*
X133078889Y-79739000D01*
X133202390Y-79549968D01*
X133293093Y-79343186D01*
X133348524Y-79124296D01*
X133348525Y-79124288D01*
X133367170Y-78899273D01*
X133367170Y-78899260D01*
X133348525Y-78674245D01*
X133348524Y-78674242D01*
X133348524Y-78674238D01*
X133293093Y-78455348D01*
X133202390Y-78248566D01*
X133078889Y-78059534D01*
X132925959Y-77893407D01*
X132925954Y-77893403D01*
X132925952Y-77893401D01*
X132748338Y-77755158D01*
X132707525Y-77698448D01*
X132700500Y-77657305D01*
X132700500Y-74799263D01*
X139069435Y-74799263D01*
X139069435Y-74799267D01*
X139089630Y-74978516D01*
X139089631Y-74978521D01*
X139149211Y-75148790D01*
X139244191Y-75299948D01*
X139245184Y-75301529D01*
X139372738Y-75429083D01*
X139463080Y-75485849D01*
X139473910Y-75492654D01*
X139525478Y-75525056D01*
X139695745Y-75584635D01*
X139702974Y-75585449D01*
X139767388Y-75612513D01*
X139776776Y-75620989D01*
X139810975Y-75655188D01*
X139844460Y-75716511D01*
X139839476Y-75786203D01*
X139797604Y-75842136D01*
X139764250Y-75859910D01*
X139725479Y-75873476D01*
X139572737Y-75969451D01*
X139445184Y-76097004D01*
X139349211Y-76249743D01*
X139289631Y-76420012D01*
X139289630Y-76420017D01*
X139269435Y-76599263D01*
X139269435Y-76599270D01*
X139289630Y-76778516D01*
X139289631Y-76778521D01*
X139349211Y-76948790D01*
X139445184Y-77101529D01*
X139572738Y-77229083D01*
X139725478Y-77325056D01*
X139895745Y-77384635D01*
X139895750Y-77384636D01*
X140074996Y-77404832D01*
X140075000Y-77404832D01*
X140075004Y-77404832D01*
X140254249Y-77384636D01*
X140254252Y-77384635D01*
X140254255Y-77384635D01*
X140424522Y-77325056D01*
X140474307Y-77293774D01*
X140540280Y-77274767D01*
X147404192Y-77274767D01*
X147471231Y-77294452D01*
X147491873Y-77311086D01*
X172713181Y-102532393D01*
X172746666Y-102593716D01*
X172749500Y-102620074D01*
X172749500Y-112551071D01*
X172742542Y-112592025D01*
X172702132Y-112707509D01*
X172702130Y-112707517D01*
X172681935Y-112886763D01*
X172681935Y-112886770D01*
X172702130Y-113066016D01*
X172702131Y-113066021D01*
X172761711Y-113236290D01*
X172840170Y-113361156D01*
X172857684Y-113389029D01*
X172985238Y-113516583D01*
X173071735Y-113570933D01*
X173125204Y-113604530D01*
X173137978Y-113612556D01*
X173287500Y-113664876D01*
X173308245Y-113672135D01*
X173308250Y-113672136D01*
X173487496Y-113692332D01*
X173487500Y-113692332D01*
X173487504Y-113692332D01*
X173666749Y-113672136D01*
X173666752Y-113672135D01*
X173666755Y-113672135D01*
X173837022Y-113612556D01*
X173989762Y-113516583D01*
X174117316Y-113389029D01*
X174134830Y-113361156D01*
X174187161Y-113314867D01*
X174256214Y-113304217D01*
X174320063Y-113332591D01*
X174344815Y-113361156D01*
X174370182Y-113401526D01*
X174370184Y-113401529D01*
X174497738Y-113529083D01*
X174511051Y-113537448D01*
X174617812Y-113604531D01*
X174650478Y-113625056D01*
X174764277Y-113664876D01*
X174820745Y-113684635D01*
X174820750Y-113684636D01*
X174999996Y-113704832D01*
X175000000Y-113704832D01*
X175000004Y-113704832D01*
X175179249Y-113684636D01*
X175179252Y-113684635D01*
X175179255Y-113684635D01*
X175349522Y-113625056D01*
X175502262Y-113529083D01*
X175629816Y-113401529D01*
X175725789Y-113248789D01*
X175785368Y-113078522D01*
X175785369Y-113078516D01*
X175805565Y-112899270D01*
X175805565Y-112899263D01*
X175785369Y-112720017D01*
X175785366Y-112720004D01*
X175725790Y-112549748D01*
X175725789Y-112549745D01*
X175704008Y-112515081D01*
X175669506Y-112460170D01*
X175650500Y-112394198D01*
X175650500Y-101835195D01*
X175625502Y-101709528D01*
X175625501Y-101709527D01*
X175625501Y-101709523D01*
X175576465Y-101591140D01*
X175576464Y-101591137D01*
X175505277Y-101484598D01*
X175505271Y-101484591D01*
X151653810Y-77633130D01*
X152428302Y-77633130D01*
X152428302Y-77633137D01*
X152448497Y-77812383D01*
X152448498Y-77812388D01*
X152508078Y-77982657D01*
X152604051Y-78135396D01*
X152731605Y-78262950D01*
X152884345Y-78358923D01*
X152987851Y-78395141D01*
X153034577Y-78424501D01*
X170325344Y-95715268D01*
X170345120Y-95743135D01*
X170345507Y-95742893D01*
X170349210Y-95748786D01*
X170349211Y-95748789D01*
X170445184Y-95901529D01*
X170572738Y-96029083D01*
X170725478Y-96125056D01*
X170895745Y-96184635D01*
X170895750Y-96184636D01*
X171074996Y-96204832D01*
X171075000Y-96204832D01*
X171075004Y-96204832D01*
X171254249Y-96184636D01*
X171254252Y-96184635D01*
X171254255Y-96184635D01*
X171424522Y-96125056D01*
X171577262Y-96029083D01*
X171704816Y-95901529D01*
X171800789Y-95748789D01*
X171860368Y-95578522D01*
X171880565Y-95399267D01*
X171878451Y-95380508D01*
X171860369Y-95220017D01*
X171860368Y-95220012D01*
X171800788Y-95049743D01*
X171704815Y-94897004D01*
X171577262Y-94769451D01*
X171424521Y-94673477D01*
X171254250Y-94613897D01*
X171242183Y-94612538D01*
X171177770Y-94585470D01*
X171168389Y-94576999D01*
X162990657Y-86399267D01*
X164094540Y-86399267D01*
X164114326Y-86587523D01*
X164114327Y-86587526D01*
X164172818Y-86767544D01*
X164172821Y-86767551D01*
X164267467Y-86931483D01*
X164292522Y-86959309D01*
X164394129Y-87072155D01*
X164547265Y-87183415D01*
X164547270Y-87183418D01*
X164720192Y-87260409D01*
X164720197Y-87260411D01*
X164905354Y-87299767D01*
X164905355Y-87299767D01*
X165094644Y-87299767D01*
X165094646Y-87299767D01*
X165279803Y-87260411D01*
X165337281Y-87234819D01*
X165391931Y-87210488D01*
X165442367Y-87199767D01*
X166117060Y-87199767D01*
X166184099Y-87219452D01*
X166204741Y-87236086D01*
X172121262Y-93152607D01*
X172151512Y-93201970D01*
X172172818Y-93267544D01*
X172172821Y-93267551D01*
X172267467Y-93431483D01*
X172394129Y-93572155D01*
X172547265Y-93683415D01*
X172547270Y-93683418D01*
X172720192Y-93760409D01*
X172720197Y-93760411D01*
X172905354Y-93799767D01*
X172905355Y-93799767D01*
X173094644Y-93799767D01*
X173094646Y-93799767D01*
X173279803Y-93760411D01*
X173452730Y-93683418D01*
X173605871Y-93572155D01*
X173732533Y-93431483D01*
X173827179Y-93267551D01*
X173885674Y-93087523D01*
X173905460Y-92899267D01*
X173885674Y-92711011D01*
X173827179Y-92530983D01*
X173732533Y-92367051D01*
X173605871Y-92226379D01*
X173605870Y-92226378D01*
X173452734Y-92115118D01*
X173452729Y-92115115D01*
X173284809Y-92040351D01*
X173247564Y-92014753D01*
X167010292Y-85777480D01*
X167010288Y-85777477D01*
X166879185Y-85689876D01*
X166879172Y-85689869D01*
X166733501Y-85629531D01*
X166733489Y-85629528D01*
X166578845Y-85598767D01*
X166578842Y-85598767D01*
X165442367Y-85598767D01*
X165391931Y-85588046D01*
X165279807Y-85538124D01*
X165279802Y-85538122D01*
X165134001Y-85507132D01*
X165094646Y-85498767D01*
X164905354Y-85498767D01*
X164872897Y-85505665D01*
X164720197Y-85538122D01*
X164720192Y-85538124D01*
X164547270Y-85615115D01*
X164547265Y-85615118D01*
X164394129Y-85726378D01*
X164267466Y-85867052D01*
X164172821Y-86030982D01*
X164172818Y-86030989D01*
X164114327Y-86211007D01*
X164114326Y-86211011D01*
X164094540Y-86399267D01*
X162990657Y-86399267D01*
X155490650Y-78899260D01*
X161632830Y-78899260D01*
X161632830Y-78899273D01*
X161651474Y-79124288D01*
X161651476Y-79124296D01*
X161706907Y-79343187D01*
X161797608Y-79549964D01*
X161797610Y-79549968D01*
X161921109Y-79738997D01*
X161921111Y-79739000D01*
X161991335Y-79815285D01*
X162022256Y-79877940D01*
X162014395Y-79947366D01*
X161991335Y-79983249D01*
X161921111Y-80059533D01*
X161797608Y-80248569D01*
X161706907Y-80455346D01*
X161651476Y-80674237D01*
X161651474Y-80674245D01*
X161632830Y-80899260D01*
X161632830Y-80899273D01*
X161651474Y-81124288D01*
X161651476Y-81124296D01*
X161706907Y-81343187D01*
X161756072Y-81455271D01*
X161797610Y-81549968D01*
X161797611Y-81549969D01*
X161921043Y-81738897D01*
X161921111Y-81739000D01*
X162074041Y-81905127D01*
X162074044Y-81905129D01*
X162074047Y-81905132D01*
X162252220Y-82043810D01*
X162252226Y-82043814D01*
X162252229Y-82043816D01*
X162450814Y-82151285D01*
X162450817Y-82151286D01*
X162659340Y-82222872D01*
X162706758Y-82252472D01*
X162972553Y-82518267D01*
X162949840Y-82518267D01*
X162852939Y-82544231D01*
X162766060Y-82594391D01*
X162695124Y-82665327D01*
X162644964Y-82752206D01*
X162619000Y-82849107D01*
X162619000Y-82871820D01*
X161948258Y-82201078D01*
X161902901Y-82265857D01*
X161809579Y-82465987D01*
X161809575Y-82465996D01*
X161752426Y-82679280D01*
X161752424Y-82679290D01*
X161733179Y-82899266D01*
X161733179Y-82899267D01*
X161752425Y-83119242D01*
X161752426Y-83119253D01*
X161809575Y-83332537D01*
X161809580Y-83332551D01*
X161902898Y-83532672D01*
X161902901Y-83532678D01*
X161948258Y-83597454D01*
X161948259Y-83597455D01*
X162619000Y-82926714D01*
X162619000Y-82949427D01*
X162644964Y-83046328D01*
X162695124Y-83133207D01*
X162766060Y-83204143D01*
X162852939Y-83254303D01*
X162949840Y-83280267D01*
X162972553Y-83280267D01*
X162301810Y-83951007D01*
X162366590Y-83996366D01*
X162366592Y-83996367D01*
X162566715Y-84089686D01*
X162566729Y-84089691D01*
X162780013Y-84146840D01*
X162780023Y-84146842D01*
X162999999Y-84166088D01*
X163000001Y-84166088D01*
X163219976Y-84146842D01*
X163219986Y-84146840D01*
X163433270Y-84089691D01*
X163433284Y-84089686D01*
X163633407Y-83996367D01*
X163633417Y-83996361D01*
X163698188Y-83951008D01*
X163027448Y-83280267D01*
X163050160Y-83280267D01*
X163147061Y-83254303D01*
X163233940Y-83204143D01*
X163304876Y-83133207D01*
X163355036Y-83046328D01*
X163381000Y-82949427D01*
X163381000Y-82926714D01*
X164051741Y-83597455D01*
X164097094Y-83532684D01*
X164097100Y-83532674D01*
X164190419Y-83332551D01*
X164190424Y-83332537D01*
X164247573Y-83119253D01*
X164247575Y-83119242D01*
X164266821Y-82899267D01*
X164266821Y-82899266D01*
X164247575Y-82679290D01*
X164247573Y-82679280D01*
X164190424Y-82465996D01*
X164190420Y-82465987D01*
X164097096Y-82265853D01*
X164051741Y-82201078D01*
X164051740Y-82201077D01*
X163381000Y-82871818D01*
X163381000Y-82849107D01*
X163355036Y-82752206D01*
X163304876Y-82665327D01*
X163233940Y-82594391D01*
X163147061Y-82544231D01*
X163050160Y-82518267D01*
X163027445Y-82518267D01*
X163293240Y-82252472D01*
X163340659Y-82222872D01*
X163404146Y-82201077D01*
X163549186Y-82151285D01*
X163747771Y-82043816D01*
X163925959Y-81905127D01*
X164078889Y-81739000D01*
X164202390Y-81549968D01*
X164293093Y-81343186D01*
X164348524Y-81124296D01*
X164348525Y-81124288D01*
X164367170Y-80899273D01*
X164367170Y-80899260D01*
X164348525Y-80674245D01*
X164348524Y-80674242D01*
X164348524Y-80674238D01*
X164293093Y-80455348D01*
X164202390Y-80248566D01*
X164181756Y-80216984D01*
X164089716Y-80076106D01*
X164078889Y-80059534D01*
X164008663Y-79983248D01*
X163977742Y-79920596D01*
X163985602Y-79851170D01*
X164008662Y-79815286D01*
X164078889Y-79739000D01*
X164202390Y-79549968D01*
X164293093Y-79343186D01*
X164348524Y-79124296D01*
X164348525Y-79124288D01*
X164367170Y-78899273D01*
X164367170Y-78899260D01*
X166632830Y-78899260D01*
X166632830Y-78899273D01*
X166651474Y-79124288D01*
X166651476Y-79124296D01*
X166706907Y-79343187D01*
X166797608Y-79549964D01*
X166797610Y-79549968D01*
X166921109Y-79738997D01*
X166921111Y-79739000D01*
X166991335Y-79815285D01*
X167022256Y-79877940D01*
X167014395Y-79947366D01*
X166991335Y-79983249D01*
X166921111Y-80059533D01*
X166797608Y-80248569D01*
X166706907Y-80455346D01*
X166651476Y-80674237D01*
X166651474Y-80674245D01*
X166632830Y-80899260D01*
X166632830Y-80899273D01*
X166651474Y-81124288D01*
X166651476Y-81124296D01*
X166706907Y-81343187D01*
X166756072Y-81455271D01*
X166797610Y-81549968D01*
X166919572Y-81736645D01*
X166921111Y-81739000D01*
X166991335Y-81815285D01*
X167022256Y-81877940D01*
X167014395Y-81947366D01*
X166991335Y-81983249D01*
X166921111Y-82059533D01*
X166797608Y-82248569D01*
X166706907Y-82455346D01*
X166651476Y-82674237D01*
X166651474Y-82674245D01*
X166632830Y-82899260D01*
X166632830Y-82899273D01*
X166651474Y-83124288D01*
X166651476Y-83124296D01*
X166706907Y-83343187D01*
X166797608Y-83549964D01*
X166797610Y-83549968D01*
X166921111Y-83739000D01*
X167074041Y-83905127D01*
X167074044Y-83905129D01*
X167074047Y-83905132D01*
X167252220Y-84043810D01*
X167252226Y-84043814D01*
X167252229Y-84043816D01*
X167450814Y-84151285D01*
X167664380Y-84224602D01*
X167887100Y-84261767D01*
X168112900Y-84261767D01*
X168335620Y-84224602D01*
X168549186Y-84151285D01*
X168747771Y-84043816D01*
X168925959Y-83905127D01*
X169078889Y-83739000D01*
X169202390Y-83549968D01*
X169293093Y-83343186D01*
X169348524Y-83124296D01*
X169348943Y-83119242D01*
X169367170Y-82899273D01*
X169367170Y-82899260D01*
X169348525Y-82674245D01*
X169348524Y-82674242D01*
X169348524Y-82674238D01*
X169293093Y-82455348D01*
X169202390Y-82248566D01*
X169171364Y-82201078D01*
X169078890Y-82059536D01*
X169078889Y-82059534D01*
X169008663Y-81983248D01*
X168977742Y-81920596D01*
X168985602Y-81851170D01*
X169008662Y-81815286D01*
X169078889Y-81739000D01*
X169202390Y-81549968D01*
X169293093Y-81343186D01*
X169348524Y-81124296D01*
X169348525Y-81124288D01*
X169367170Y-80899273D01*
X169367170Y-80899260D01*
X169348525Y-80674245D01*
X169348524Y-80674242D01*
X169348524Y-80674238D01*
X169293093Y-80455348D01*
X169202390Y-80248566D01*
X169181756Y-80216984D01*
X169089716Y-80076106D01*
X169078889Y-80059534D01*
X169008663Y-79983248D01*
X168977742Y-79920596D01*
X168985602Y-79851170D01*
X169008662Y-79815286D01*
X169078889Y-79739000D01*
X169202390Y-79549968D01*
X169293093Y-79343186D01*
X169348524Y-79124296D01*
X169348525Y-79124288D01*
X169367170Y-78899273D01*
X169367170Y-78899260D01*
X169348525Y-78674245D01*
X169348524Y-78674242D01*
X169348524Y-78674238D01*
X169293093Y-78455348D01*
X169202390Y-78248566D01*
X169078889Y-78059534D01*
X168925959Y-77893407D01*
X168925954Y-77893403D01*
X168925952Y-77893401D01*
X168747779Y-77754723D01*
X168747773Y-77754719D01*
X168549187Y-77647249D01*
X168549181Y-77647247D01*
X168335622Y-77573932D01*
X168112900Y-77536767D01*
X167887100Y-77536767D01*
X167664377Y-77573932D01*
X167450818Y-77647247D01*
X167450812Y-77647249D01*
X167252226Y-77754719D01*
X167252220Y-77754723D01*
X167074047Y-77893401D01*
X167074044Y-77893404D01*
X166921108Y-78059537D01*
X166797608Y-78248569D01*
X166706907Y-78455346D01*
X166651476Y-78674237D01*
X166651474Y-78674245D01*
X166632830Y-78899260D01*
X164367170Y-78899260D01*
X164348525Y-78674245D01*
X164348524Y-78674242D01*
X164348524Y-78674238D01*
X164293093Y-78455348D01*
X164202390Y-78248566D01*
X164078889Y-78059534D01*
X163925959Y-77893407D01*
X163925954Y-77893403D01*
X163925952Y-77893401D01*
X163747779Y-77754723D01*
X163747773Y-77754719D01*
X163549187Y-77647249D01*
X163549181Y-77647247D01*
X163335622Y-77573932D01*
X163112900Y-77536767D01*
X162887100Y-77536767D01*
X162664377Y-77573932D01*
X162450818Y-77647247D01*
X162450812Y-77647249D01*
X162252226Y-77754719D01*
X162252220Y-77754723D01*
X162074047Y-77893401D01*
X162074044Y-77893404D01*
X161921108Y-78059537D01*
X161797608Y-78248569D01*
X161706907Y-78455346D01*
X161651476Y-78674237D01*
X161651474Y-78674245D01*
X161632830Y-78899260D01*
X155490650Y-78899260D01*
X154025234Y-77433844D01*
X153995873Y-77387117D01*
X153974157Y-77325056D01*
X153959656Y-77283612D01*
X153954098Y-77274767D01*
X153863682Y-77130871D01*
X153736129Y-77003318D01*
X153583390Y-76907345D01*
X153413121Y-76847765D01*
X153413116Y-76847764D01*
X153233871Y-76827569D01*
X153233863Y-76827569D01*
X153054617Y-76847764D01*
X153054612Y-76847765D01*
X152884343Y-76907345D01*
X152731604Y-77003318D01*
X152604051Y-77130871D01*
X152508078Y-77283610D01*
X152448498Y-77453879D01*
X152448497Y-77453884D01*
X152428302Y-77633130D01*
X151653810Y-77633130D01*
X148914673Y-74893993D01*
X148914669Y-74893990D01*
X148808127Y-74822802D01*
X148689744Y-74773766D01*
X148689738Y-74773764D01*
X148564071Y-74748767D01*
X148564069Y-74748767D01*
X140795808Y-74748767D01*
X140728769Y-74729082D01*
X140708123Y-74712444D01*
X140696718Y-74701038D01*
X140663236Y-74639714D01*
X140661182Y-74627240D01*
X140660936Y-74625056D01*
X140660368Y-74620012D01*
X140600789Y-74449745D01*
X140504816Y-74297005D01*
X140377262Y-74169451D01*
X140224523Y-74073478D01*
X140054254Y-74013898D01*
X140054249Y-74013897D01*
X139875004Y-73993702D01*
X139874996Y-73993702D01*
X139695750Y-74013897D01*
X139695745Y-74013898D01*
X139525476Y-74073478D01*
X139372737Y-74169451D01*
X139245184Y-74297004D01*
X139149211Y-74449743D01*
X139089631Y-74620012D01*
X139089630Y-74620017D01*
X139069435Y-74799263D01*
X132700500Y-74799263D01*
X132700500Y-71915784D01*
X132720185Y-71848745D01*
X132736814Y-71828108D01*
X135061788Y-69503133D01*
X135108512Y-69473775D01*
X135212022Y-69437556D01*
X135272960Y-69399266D01*
X172419628Y-69399266D01*
X172439085Y-69646495D01*
X172496976Y-69887629D01*
X172591877Y-70116741D01*
X172721450Y-70328183D01*
X172721453Y-70328188D01*
X172766624Y-70381076D01*
X172882508Y-70516759D01*
X172972597Y-70593702D01*
X173071078Y-70677813D01*
X173071083Y-70677816D01*
X173282525Y-70807389D01*
X173511637Y-70902290D01*
X173718567Y-70951969D01*
X173752775Y-70960182D01*
X174000000Y-70979639D01*
X174247225Y-70960182D01*
X174488362Y-70902290D01*
X174717474Y-70807389D01*
X174928919Y-70677815D01*
X175117492Y-70516759D01*
X175278548Y-70328186D01*
X175408122Y-70116741D01*
X175503023Y-69887629D01*
X175560915Y-69646492D01*
X175580372Y-69399267D01*
X175560915Y-69152042D01*
X175529317Y-69020428D01*
X175503023Y-68910904D01*
X175408122Y-68681792D01*
X175279571Y-68472018D01*
X175278548Y-68470348D01*
X175278547Y-68470347D01*
X175278546Y-68470345D01*
X175205565Y-68384896D01*
X175117492Y-68281775D01*
X175014399Y-68193725D01*
X174928921Y-68120720D01*
X174928916Y-68120717D01*
X174717474Y-67991144D01*
X174488362Y-67896243D01*
X174247228Y-67838352D01*
X174000000Y-67818895D01*
X173752771Y-67838352D01*
X173511637Y-67896243D01*
X173282525Y-67991144D01*
X173071083Y-68120717D01*
X173071078Y-68120720D01*
X172882508Y-68281775D01*
X172721453Y-68470345D01*
X172721450Y-68470350D01*
X172591877Y-68681792D01*
X172496976Y-68910904D01*
X172439085Y-69152038D01*
X172419628Y-69399266D01*
X135272960Y-69399266D01*
X135364762Y-69341583D01*
X135492316Y-69214029D01*
X135588289Y-69061289D01*
X135647868Y-68891022D01*
X135647869Y-68891016D01*
X135668065Y-68711770D01*
X135668065Y-68711763D01*
X135647869Y-68532517D01*
X135647868Y-68532512D01*
X135626696Y-68472006D01*
X135588289Y-68362245D01*
X135572225Y-68336680D01*
X135500170Y-68222005D01*
X135492316Y-68209505D01*
X135364762Y-68081951D01*
X135277493Y-68027116D01*
X135212023Y-67985978D01*
X135041754Y-67926398D01*
X135041749Y-67926397D01*
X134862504Y-67906202D01*
X134862496Y-67906202D01*
X134683250Y-67926397D01*
X134683245Y-67926398D01*
X134512976Y-67985978D01*
X134360237Y-68081951D01*
X134232684Y-68209504D01*
X134136712Y-68362242D01*
X134136711Y-68362243D01*
X134100491Y-68465753D01*
X134071131Y-68512478D01*
X132412181Y-70171429D01*
X132350858Y-70204914D01*
X132281166Y-70199930D01*
X132225233Y-70158058D01*
X132200816Y-70092594D01*
X132200500Y-70083748D01*
X132200500Y-69199760D01*
X132219508Y-69133786D01*
X132225787Y-69123792D01*
X132225786Y-69123792D01*
X132225789Y-69123789D01*
X132285368Y-68953522D01*
X132288016Y-68930024D01*
X132305565Y-68774270D01*
X132305565Y-68774263D01*
X132285369Y-68595017D01*
X132285368Y-68595012D01*
X132256488Y-68512478D01*
X132225789Y-68424745D01*
X132200756Y-68384906D01*
X132129815Y-68272004D01*
X132002262Y-68144451D01*
X131849523Y-68048478D01*
X131679254Y-67988898D01*
X131679249Y-67988897D01*
X131500004Y-67968702D01*
X131499996Y-67968702D01*
X131320750Y-67988897D01*
X131320745Y-67988898D01*
X131150476Y-68048478D01*
X130997737Y-68144451D01*
X130870184Y-68272004D01*
X130774211Y-68424743D01*
X130714631Y-68595012D01*
X130714630Y-68595017D01*
X130694435Y-68774263D01*
X130694435Y-68774270D01*
X130714630Y-68953516D01*
X130714631Y-68953521D01*
X130774212Y-69123792D01*
X130780492Y-69133786D01*
X130799500Y-69199760D01*
X130799500Y-70122947D01*
X130779815Y-70189986D01*
X130763181Y-70210628D01*
X119955890Y-81017918D01*
X119955884Y-81017925D01*
X119901201Y-81099766D01*
X119901201Y-81099767D01*
X119879223Y-81132658D01*
X119879222Y-81132660D01*
X119826421Y-81260134D01*
X119826418Y-81260144D01*
X119799500Y-81395471D01*
X119799500Y-81395474D01*
X119799500Y-130330273D01*
X119799500Y-130468261D01*
X119799500Y-130468263D01*
X119799499Y-130468263D01*
X119826418Y-130603589D01*
X119826421Y-130603599D01*
X119879222Y-130731074D01*
X119955887Y-130845812D01*
X119955888Y-130845813D01*
X121288181Y-132178105D01*
X121321666Y-132239428D01*
X121324500Y-132265786D01*
X121324500Y-134618768D01*
X121304815Y-134685807D01*
X121252011Y-134731562D01*
X121240359Y-134736187D01*
X121142744Y-134769323D01*
X120872286Y-134902698D01*
X120872279Y-134902702D01*
X120621540Y-135070240D01*
X120394810Y-135269077D01*
X120195973Y-135495807D01*
X120028435Y-135746546D01*
X120028431Y-135746553D01*
X119895062Y-136016998D01*
X119895053Y-136017019D01*
X119798122Y-136302568D01*
X119798118Y-136302583D01*
X119739288Y-136598336D01*
X119739287Y-136598348D01*
X119719564Y-136899267D01*
X119330436Y-136899267D01*
X119310713Y-136598347D01*
X119251880Y-136302576D01*
X119154945Y-136017015D01*
X119088583Y-135882447D01*
X119021568Y-135746553D01*
X119021564Y-135746546D01*
X118854026Y-135495807D01*
X118655189Y-135269077D01*
X118428459Y-135070240D01*
X118177720Y-134902702D01*
X118177713Y-134902698D01*
X117907255Y-134769323D01*
X117809641Y-134736187D01*
X117752487Y-134695998D01*
X117726134Y-134631288D01*
X117725500Y-134618768D01*
X117725500Y-133215786D01*
X117745185Y-133148747D01*
X117761819Y-133128105D01*
X119044114Y-131845810D01*
X119044118Y-131845804D01*
X119120775Y-131731078D01*
X119142479Y-131678681D01*
X119173578Y-131603599D01*
X119173580Y-131603595D01*
X119198618Y-131477724D01*
X119200500Y-131468263D01*
X119200500Y-81240786D01*
X119220185Y-81173747D01*
X119236819Y-81153105D01*
X129894112Y-70495812D01*
X129894114Y-70495810D01*
X129970775Y-70381078D01*
X130023580Y-70253596D01*
X130047636Y-70132656D01*
X130050500Y-70118260D01*
X130050500Y-69149760D01*
X130069508Y-69083786D01*
X130075787Y-69073792D01*
X130075786Y-69073792D01*
X130075789Y-69073789D01*
X130135368Y-68903522D01*
X130135369Y-68903516D01*
X130155565Y-68724270D01*
X130155565Y-68724263D01*
X130135369Y-68545017D01*
X130135368Y-68545012D01*
X130093284Y-68424743D01*
X130075789Y-68374745D01*
X130067933Y-68362243D01*
X130011232Y-68272004D01*
X129979816Y-68222005D01*
X129852262Y-68094451D01*
X129699523Y-67998478D01*
X129529254Y-67938898D01*
X129529249Y-67938897D01*
X129350004Y-67918702D01*
X129349996Y-67918702D01*
X129170750Y-67938897D01*
X129170745Y-67938898D01*
X129000476Y-67998478D01*
X128847737Y-68094451D01*
X128720184Y-68222004D01*
X128624211Y-68374743D01*
X128564631Y-68545012D01*
X128564630Y-68545017D01*
X128544435Y-68724263D01*
X128544435Y-68724270D01*
X128564630Y-68903516D01*
X128564631Y-68903521D01*
X128624212Y-69073792D01*
X128630492Y-69083786D01*
X128649500Y-69149760D01*
X128649500Y-69707747D01*
X128629815Y-69774786D01*
X128613181Y-69795428D01*
X117955888Y-80452720D01*
X117955887Y-80452721D01*
X117879222Y-80567459D01*
X117826421Y-80694934D01*
X117826418Y-80694946D01*
X117807335Y-80790885D01*
X117807335Y-80790888D01*
X117799500Y-80830273D01*
X117799500Y-131057747D01*
X117779815Y-131124786D01*
X117763181Y-131145428D01*
X116480888Y-132427720D01*
X116480887Y-132427721D01*
X116404222Y-132542459D01*
X116351421Y-132669934D01*
X116351418Y-132669946D01*
X116332132Y-132766906D01*
X116332132Y-132766909D01*
X116324500Y-132805273D01*
X116324500Y-134618768D01*
X116304815Y-134685807D01*
X116252011Y-134731562D01*
X116240359Y-134736187D01*
X116142744Y-134769323D01*
X115872286Y-134902698D01*
X115872279Y-134902702D01*
X115621540Y-135070240D01*
X115394810Y-135269077D01*
X115195973Y-135495807D01*
X115028435Y-135746546D01*
X115028431Y-135746553D01*
X114895062Y-136016998D01*
X114895053Y-136017019D01*
X114798122Y-136302568D01*
X114798118Y-136302583D01*
X114739288Y-136598336D01*
X114739287Y-136598348D01*
X114719564Y-136899267D01*
X114330436Y-136899267D01*
X114310713Y-136598347D01*
X114251880Y-136302576D01*
X114154945Y-136017015D01*
X114088583Y-135882447D01*
X114021568Y-135746553D01*
X114021564Y-135746546D01*
X113854026Y-135495807D01*
X113655189Y-135269077D01*
X113428459Y-135070240D01*
X113177720Y-134902702D01*
X113177713Y-134902698D01*
X112907255Y-134769323D01*
X112809641Y-134736187D01*
X112752487Y-134695998D01*
X112726134Y-134631288D01*
X112725500Y-134618768D01*
X112725500Y-134265786D01*
X112745185Y-134198747D01*
X112761819Y-134178105D01*
X117044112Y-129895812D01*
X117044114Y-129895810D01*
X117120775Y-129781078D01*
X117173580Y-129653595D01*
X117200500Y-129518261D01*
X117200500Y-129380273D01*
X117200500Y-80865785D01*
X117220185Y-80798746D01*
X117236819Y-80778104D01*
X127769110Y-70245813D01*
X127769113Y-70245810D01*
X127844721Y-70132656D01*
X127845775Y-70131078D01*
X127898580Y-70003595D01*
X127907389Y-69959308D01*
X127925500Y-69868262D01*
X127925500Y-69223562D01*
X127944508Y-69157588D01*
X127950787Y-69147594D01*
X127950786Y-69147594D01*
X127950789Y-69147591D01*
X128010368Y-68977324D01*
X128013050Y-68953521D01*
X128030565Y-68798072D01*
X128030565Y-68798065D01*
X128010369Y-68618819D01*
X128010368Y-68618814D01*
X128002039Y-68595012D01*
X127950789Y-68448547D01*
X127854816Y-68295807D01*
X127727262Y-68168253D01*
X127574523Y-68072280D01*
X127404254Y-68012700D01*
X127404249Y-68012699D01*
X127313848Y-68002514D01*
X127249434Y-67975448D01*
X127209878Y-67917853D01*
X127207741Y-67848016D01*
X127240048Y-67791615D01*
X129529029Y-65502634D01*
X129575751Y-65473276D01*
X129699522Y-65429968D01*
X129852262Y-65333995D01*
X129979816Y-65206441D01*
X130075789Y-65053701D01*
X130135368Y-64883434D01*
X130155565Y-64704179D01*
X130149065Y-64646492D01*
X130135369Y-64524929D01*
X130135368Y-64524924D01*
X130104918Y-64437903D01*
X130075789Y-64354657D01*
X129979816Y-64201917D01*
X129861456Y-64083557D01*
X144955759Y-64083557D01*
X144955759Y-64083558D01*
X144969559Y-64092230D01*
X144969558Y-64092230D01*
X145139728Y-64151775D01*
X145318864Y-64171959D01*
X145318870Y-64171959D01*
X145498005Y-64151775D01*
X145498008Y-64151774D01*
X145668172Y-64092231D01*
X145668173Y-64092231D01*
X145681973Y-64083558D01*
X145681973Y-64083557D01*
X146355759Y-64083557D01*
X146355759Y-64083558D01*
X146369559Y-64092230D01*
X146369558Y-64092230D01*
X146539728Y-64151775D01*
X146718864Y-64171959D01*
X146718870Y-64171959D01*
X146898005Y-64151775D01*
X146898008Y-64151774D01*
X147068172Y-64092231D01*
X147068173Y-64092231D01*
X147081973Y-64083558D01*
X147081973Y-64083557D01*
X146718868Y-63720450D01*
X146718867Y-63720450D01*
X146355759Y-64083557D01*
X145681973Y-64083557D01*
X145318868Y-63720450D01*
X145318867Y-63720450D01*
X144955759Y-64083557D01*
X129861456Y-64083557D01*
X129852262Y-64074363D01*
X129699523Y-63978390D01*
X129529254Y-63918810D01*
X129529249Y-63918809D01*
X129350004Y-63898614D01*
X129349996Y-63898614D01*
X129170750Y-63918809D01*
X129170745Y-63918810D01*
X129000476Y-63978390D01*
X128847737Y-64074363D01*
X128720184Y-64201916D01*
X128624212Y-64354654D01*
X128624211Y-64354655D01*
X128595081Y-64437903D01*
X128565721Y-64484628D01*
X124955887Y-68094462D01*
X124879222Y-68209200D01*
X124826421Y-68336675D01*
X124826418Y-68336687D01*
X124799837Y-68470319D01*
X124799832Y-68470345D01*
X124799501Y-68472006D01*
X124799500Y-68472018D01*
X124799500Y-68932747D01*
X124779815Y-68999786D01*
X124763181Y-69020428D01*
X113955888Y-79827720D01*
X113955887Y-79827721D01*
X113879222Y-79942459D01*
X113826421Y-80069934D01*
X113826418Y-80069946D01*
X113802050Y-80192453D01*
X113802049Y-80192458D01*
X113799500Y-80205269D01*
X113799500Y-126557748D01*
X113779815Y-126624787D01*
X113763181Y-126645429D01*
X106480885Y-133927724D01*
X106480883Y-133927726D01*
X106464184Y-133952721D01*
X106464182Y-133952724D01*
X106404228Y-134042449D01*
X106404221Y-134042462D01*
X106351421Y-134169934D01*
X106351418Y-134169944D01*
X106324500Y-134305271D01*
X106324500Y-134474767D01*
X106304815Y-134541806D01*
X106252011Y-134587561D01*
X106200500Y-134598767D01*
X105666971Y-134598767D01*
X105666965Y-134598767D01*
X105666964Y-134598768D01*
X105655316Y-134599803D01*
X105547584Y-134609380D01*
X105351954Y-134665356D01*
X105271035Y-134707625D01*
X105171593Y-134759569D01*
X105171591Y-134759570D01*
X105171590Y-134759571D01*
X105013890Y-134888157D01*
X104885304Y-135045857D01*
X104791089Y-135226221D01*
X104735114Y-135421850D01*
X104735113Y-135421853D01*
X104724500Y-135541233D01*
X98000500Y-135541233D01*
X98000500Y-68384912D01*
X119424500Y-68384912D01*
X119424500Y-70413630D01*
X119439953Y-70531020D01*
X119439956Y-70531029D01*
X119474281Y-70613898D01*
X119500464Y-70677108D01*
X119596718Y-70802549D01*
X119722159Y-70898803D01*
X119868238Y-70959311D01*
X119985639Y-70974767D01*
X122014360Y-70974766D01*
X122014363Y-70974766D01*
X122131753Y-70959313D01*
X122131757Y-70959311D01*
X122131762Y-70959311D01*
X122277841Y-70898803D01*
X122403282Y-70802549D01*
X122499536Y-70677108D01*
X122560044Y-70531029D01*
X122575500Y-70413628D01*
X122575499Y-68384907D01*
X122575499Y-68384906D01*
X122575499Y-68384903D01*
X122560046Y-68267513D01*
X122560044Y-68267506D01*
X122560044Y-68267505D01*
X122499536Y-68121426D01*
X122403282Y-67995985D01*
X122277841Y-67899731D01*
X122269420Y-67896243D01*
X122131762Y-67839223D01*
X122131760Y-67839222D01*
X122014370Y-67823768D01*
X122014367Y-67823767D01*
X122014361Y-67823767D01*
X122014354Y-67823767D01*
X119985636Y-67823767D01*
X119868246Y-67839220D01*
X119868237Y-67839223D01*
X119722160Y-67899730D01*
X119596718Y-67995985D01*
X119500463Y-68121427D01*
X119439956Y-68267504D01*
X119439955Y-68267506D01*
X119424501Y-68384896D01*
X119424501Y-68384903D01*
X119424500Y-68384912D01*
X98000500Y-68384912D01*
X98000500Y-64399267D01*
X119419628Y-64399267D01*
X119439085Y-64646495D01*
X119496976Y-64887629D01*
X119591877Y-65116741D01*
X119721450Y-65328183D01*
X119721453Y-65328188D01*
X119726412Y-65333994D01*
X119882508Y-65516759D01*
X120003213Y-65619850D01*
X120071078Y-65677813D01*
X120071083Y-65677816D01*
X120282525Y-65807389D01*
X120511637Y-65902290D01*
X120718567Y-65951969D01*
X120752775Y-65960182D01*
X121000000Y-65979639D01*
X121247225Y-65960182D01*
X121488362Y-65902290D01*
X121717474Y-65807389D01*
X121928919Y-65677815D01*
X122117492Y-65516759D01*
X122278548Y-65328186D01*
X122408122Y-65116741D01*
X122503023Y-64887629D01*
X122560915Y-64646492D01*
X122580372Y-64399267D01*
X122560915Y-64152042D01*
X122503023Y-63910905D01*
X122428092Y-63730003D01*
X122408122Y-63681792D01*
X122278549Y-63470350D01*
X122278546Y-63470345D01*
X122205565Y-63384896D01*
X122204421Y-63383557D01*
X144255759Y-63383557D01*
X144255759Y-63383558D01*
X144269559Y-63392230D01*
X144269558Y-63392230D01*
X144439729Y-63451775D01*
X144440511Y-63451954D01*
X144440964Y-63452207D01*
X144446298Y-63454074D01*
X144445971Y-63455008D01*
X144501490Y-63486063D01*
X144530819Y-63539771D01*
X144531689Y-63539467D01*
X144533537Y-63544749D01*
X144533807Y-63545243D01*
X144533988Y-63546039D01*
X144593530Y-63716197D01*
X144593530Y-63716198D01*
X144602205Y-63730004D01*
X144965313Y-63366897D01*
X144945422Y-63347006D01*
X145218867Y-63347006D01*
X145218867Y-63386788D01*
X145234091Y-63423542D01*
X145262222Y-63451673D01*
X145298976Y-63466897D01*
X145338758Y-63466897D01*
X145375512Y-63451673D01*
X145403643Y-63423542D01*
X145418867Y-63386788D01*
X145418867Y-63366896D01*
X145672420Y-63366896D01*
X145672420Y-63366897D01*
X146018867Y-63713343D01*
X146018868Y-63713343D01*
X146365313Y-63366897D01*
X146345422Y-63347006D01*
X146618867Y-63347006D01*
X146618867Y-63386788D01*
X146634091Y-63423542D01*
X146662222Y-63451673D01*
X146698976Y-63466897D01*
X146738758Y-63466897D01*
X146775512Y-63451673D01*
X146803643Y-63423542D01*
X146818867Y-63386788D01*
X146818867Y-63366896D01*
X147072420Y-63366896D01*
X147072420Y-63366897D01*
X147435527Y-63730003D01*
X147435528Y-63730003D01*
X147444201Y-63716203D01*
X147444201Y-63716202D01*
X147503743Y-63546041D01*
X147503923Y-63545255D01*
X147504178Y-63544798D01*
X147506044Y-63539467D01*
X147506977Y-63539793D01*
X147538031Y-63484276D01*
X147591742Y-63454946D01*
X147591437Y-63454074D01*
X147596737Y-63452219D01*
X147597225Y-63451953D01*
X147598011Y-63451773D01*
X147768172Y-63392231D01*
X147768173Y-63392231D01*
X147779819Y-63384912D01*
X172424500Y-63384912D01*
X172424500Y-65413630D01*
X172439953Y-65531020D01*
X172439956Y-65531029D01*
X172500464Y-65677108D01*
X172596718Y-65802549D01*
X172722159Y-65898803D01*
X172868238Y-65959311D01*
X172985639Y-65974767D01*
X175014360Y-65974766D01*
X175014363Y-65974766D01*
X175131753Y-65959313D01*
X175131757Y-65959311D01*
X175131762Y-65959311D01*
X175277841Y-65898803D01*
X175403282Y-65802549D01*
X175499536Y-65677108D01*
X175560044Y-65531029D01*
X175575500Y-65413628D01*
X175575499Y-63384907D01*
X175575499Y-63384906D01*
X175575499Y-63384903D01*
X175560046Y-63267513D01*
X175560044Y-63267506D01*
X175560044Y-63267505D01*
X175499536Y-63121426D01*
X175403282Y-62995985D01*
X175277841Y-62899731D01*
X175269420Y-62896243D01*
X175131762Y-62839223D01*
X175131760Y-62839222D01*
X175014370Y-62823768D01*
X175014367Y-62823767D01*
X175014361Y-62823767D01*
X175014354Y-62823767D01*
X172985636Y-62823767D01*
X172868246Y-62839220D01*
X172868237Y-62839223D01*
X172722160Y-62899730D01*
X172596718Y-62995985D01*
X172500463Y-63121427D01*
X172439956Y-63267504D01*
X172439955Y-63267506D01*
X172424677Y-63383558D01*
X172424501Y-63384903D01*
X172424500Y-63384912D01*
X147779819Y-63384912D01*
X147781973Y-63383558D01*
X147781973Y-63383557D01*
X147418867Y-63020450D01*
X147353107Y-63086211D01*
X147353106Y-63086211D01*
X147072420Y-63366896D01*
X146818867Y-63366896D01*
X146818867Y-63347006D01*
X146803643Y-63310252D01*
X146775512Y-63282121D01*
X146738758Y-63266897D01*
X146698976Y-63266897D01*
X146662222Y-63282121D01*
X146634091Y-63310252D01*
X146618867Y-63347006D01*
X146345422Y-63347006D01*
X146084627Y-63086211D01*
X146018867Y-63020450D01*
X145953107Y-63086211D01*
X145953106Y-63086211D01*
X145672420Y-63366896D01*
X145418867Y-63366896D01*
X145418867Y-63347006D01*
X145403643Y-63310252D01*
X145375512Y-63282121D01*
X145338758Y-63266897D01*
X145298976Y-63266897D01*
X145262222Y-63282121D01*
X145234091Y-63310252D01*
X145218867Y-63347006D01*
X144945422Y-63347006D01*
X144618866Y-63020450D01*
X144618865Y-63020450D01*
X144255759Y-63383557D01*
X122204421Y-63383557D01*
X122117492Y-63281775D01*
X122014399Y-63193725D01*
X121928921Y-63120720D01*
X121928916Y-63120717D01*
X121717474Y-62991144D01*
X121488362Y-62896243D01*
X121247228Y-62838352D01*
X121000000Y-62818895D01*
X120752771Y-62838352D01*
X120511637Y-62896243D01*
X120282525Y-62991144D01*
X120071083Y-63120717D01*
X120071078Y-63120720D01*
X119882508Y-63281775D01*
X119721453Y-63470345D01*
X119721450Y-63470350D01*
X119591877Y-63681792D01*
X119496976Y-63910904D01*
X119439085Y-64152038D01*
X119419628Y-64399267D01*
X98000500Y-64399267D01*
X98000500Y-62666894D01*
X143813805Y-62666894D01*
X143813805Y-62666899D01*
X143833988Y-62846035D01*
X143893532Y-63016201D01*
X143902205Y-63030004D01*
X144265313Y-62666897D01*
X144265313Y-62666896D01*
X144245423Y-62647006D01*
X144518867Y-62647006D01*
X144518867Y-62686788D01*
X144534091Y-62723542D01*
X144562222Y-62751673D01*
X144598976Y-62766897D01*
X144638758Y-62766897D01*
X144675512Y-62751673D01*
X144703643Y-62723542D01*
X144718867Y-62686788D01*
X144718867Y-62666896D01*
X144972420Y-62666896D01*
X145318867Y-63013343D01*
X145665313Y-62666897D01*
X145645422Y-62647006D01*
X145918867Y-62647006D01*
X145918867Y-62686788D01*
X145934091Y-62723542D01*
X145962222Y-62751673D01*
X145998976Y-62766897D01*
X146038758Y-62766897D01*
X146075512Y-62751673D01*
X146103643Y-62723542D01*
X146118867Y-62686788D01*
X146118867Y-62666896D01*
X146372420Y-62666896D01*
X146718867Y-63013343D01*
X147065313Y-62666897D01*
X147045422Y-62647006D01*
X147318867Y-62647006D01*
X147318867Y-62686788D01*
X147334091Y-62723542D01*
X147362222Y-62751673D01*
X147398976Y-62766897D01*
X147438758Y-62766897D01*
X147475512Y-62751673D01*
X147503643Y-62723542D01*
X147518867Y-62686788D01*
X147518867Y-62666897D01*
X147772420Y-62666897D01*
X148135527Y-63030003D01*
X148135528Y-63030003D01*
X148144201Y-63016203D01*
X148144201Y-63016202D01*
X148203744Y-62846038D01*
X148203745Y-62846035D01*
X148223929Y-62666899D01*
X148223929Y-62666894D01*
X148203745Y-62487758D01*
X148144200Y-62317589D01*
X148135528Y-62303789D01*
X148135527Y-62303789D01*
X147772420Y-62666897D01*
X147518867Y-62666897D01*
X147518867Y-62647006D01*
X147503643Y-62610252D01*
X147475512Y-62582121D01*
X147438758Y-62566897D01*
X147398976Y-62566897D01*
X147362222Y-62582121D01*
X147334091Y-62610252D01*
X147318867Y-62647006D01*
X147045422Y-62647006D01*
X146784627Y-62386211D01*
X146718867Y-62320450D01*
X146653107Y-62386211D01*
X146653106Y-62386211D01*
X146372420Y-62666896D01*
X146118867Y-62666896D01*
X146118867Y-62647006D01*
X146103643Y-62610252D01*
X146075512Y-62582121D01*
X146038758Y-62566897D01*
X145998976Y-62566897D01*
X145962222Y-62582121D01*
X145934091Y-62610252D01*
X145918867Y-62647006D01*
X145645422Y-62647006D01*
X145384627Y-62386211D01*
X145318867Y-62320450D01*
X145253107Y-62386211D01*
X145253106Y-62386211D01*
X144972420Y-62666896D01*
X144718867Y-62666896D01*
X144718867Y-62647006D01*
X144703643Y-62610252D01*
X144675512Y-62582121D01*
X144638758Y-62566897D01*
X144598976Y-62566897D01*
X144562222Y-62582121D01*
X144534091Y-62610252D01*
X144518867Y-62647006D01*
X144245423Y-62647006D01*
X143902205Y-62303788D01*
X143902204Y-62303788D01*
X143893534Y-62317588D01*
X143893529Y-62317598D01*
X143833989Y-62487755D01*
X143833988Y-62487758D01*
X143813805Y-62666894D01*
X98000500Y-62666894D01*
X98000500Y-61966896D01*
X144272420Y-61966896D01*
X144272420Y-61966898D01*
X144618865Y-62313343D01*
X144618866Y-62313343D01*
X144894736Y-62037474D01*
X144965313Y-61966897D01*
X144945422Y-61947006D01*
X145218867Y-61947006D01*
X145218867Y-61986788D01*
X145234091Y-62023542D01*
X145262222Y-62051673D01*
X145298976Y-62066897D01*
X145338758Y-62066897D01*
X145375512Y-62051673D01*
X145403643Y-62023542D01*
X145418867Y-61986788D01*
X145418867Y-61966896D01*
X145672420Y-61966896D01*
X146018867Y-62313343D01*
X146365313Y-61966897D01*
X146345422Y-61947006D01*
X146618867Y-61947006D01*
X146618867Y-61986788D01*
X146634091Y-62023542D01*
X146662222Y-62051673D01*
X146698976Y-62066897D01*
X146738758Y-62066897D01*
X146775512Y-62051673D01*
X146803643Y-62023542D01*
X146818867Y-61986788D01*
X146818867Y-61966896D01*
X147072420Y-61966896D01*
X147418867Y-62313343D01*
X147765313Y-61966897D01*
X147765313Y-61966896D01*
X147418867Y-61620450D01*
X147353107Y-61686211D01*
X147353106Y-61686211D01*
X147072420Y-61966896D01*
X146818867Y-61966896D01*
X146818867Y-61947006D01*
X146803643Y-61910252D01*
X146775512Y-61882121D01*
X146738758Y-61866897D01*
X146698976Y-61866897D01*
X146662222Y-61882121D01*
X146634091Y-61910252D01*
X146618867Y-61947006D01*
X146345422Y-61947006D01*
X146084627Y-61686211D01*
X146018867Y-61620450D01*
X145953107Y-61686211D01*
X145953106Y-61686211D01*
X145672420Y-61966896D01*
X145418867Y-61966896D01*
X145418867Y-61947006D01*
X145403643Y-61910252D01*
X145375512Y-61882121D01*
X145338758Y-61866897D01*
X145298976Y-61866897D01*
X145262222Y-61882121D01*
X145234091Y-61910252D01*
X145218867Y-61947006D01*
X144945422Y-61947006D01*
X144618866Y-61620450D01*
X144618865Y-61620450D01*
X144272420Y-61966896D01*
X98000500Y-61966896D01*
X98000500Y-61266894D01*
X143813805Y-61266894D01*
X143813805Y-61266899D01*
X143833988Y-61446035D01*
X143893532Y-61616201D01*
X143902205Y-61630004D01*
X144265313Y-61266897D01*
X144265313Y-61266896D01*
X144245423Y-61247006D01*
X144518867Y-61247006D01*
X144518867Y-61286788D01*
X144534091Y-61323542D01*
X144562222Y-61351673D01*
X144598976Y-61366897D01*
X144638758Y-61366897D01*
X144675512Y-61351673D01*
X144703643Y-61323542D01*
X144718867Y-61286788D01*
X144718867Y-61266896D01*
X144972420Y-61266896D01*
X145318867Y-61613343D01*
X145665313Y-61266897D01*
X145645422Y-61247006D01*
X145918867Y-61247006D01*
X145918867Y-61286788D01*
X145934091Y-61323542D01*
X145962222Y-61351673D01*
X145998976Y-61366897D01*
X146038758Y-61366897D01*
X146075512Y-61351673D01*
X146103643Y-61323542D01*
X146118867Y-61286788D01*
X146118867Y-61266896D01*
X146372420Y-61266896D01*
X146718867Y-61613343D01*
X147065313Y-61266897D01*
X147045422Y-61247006D01*
X147318867Y-61247006D01*
X147318867Y-61286788D01*
X147334091Y-61323542D01*
X147362222Y-61351673D01*
X147398976Y-61366897D01*
X147438758Y-61366897D01*
X147475512Y-61351673D01*
X147503643Y-61323542D01*
X147518867Y-61286788D01*
X147518867Y-61266897D01*
X147772420Y-61266897D01*
X148135527Y-61630003D01*
X148135528Y-61630003D01*
X148144201Y-61616203D01*
X148144201Y-61616202D01*
X148203744Y-61446038D01*
X148203745Y-61446035D01*
X148223929Y-61266899D01*
X148223929Y-61266894D01*
X148203745Y-61087758D01*
X148144200Y-60917589D01*
X148135528Y-60903789D01*
X148135527Y-60903789D01*
X147772420Y-61266897D01*
X147518867Y-61266897D01*
X147518867Y-61247006D01*
X147503643Y-61210252D01*
X147475512Y-61182121D01*
X147438758Y-61166897D01*
X147398976Y-61166897D01*
X147362222Y-61182121D01*
X147334091Y-61210252D01*
X147318867Y-61247006D01*
X147045422Y-61247006D01*
X146784627Y-60986211D01*
X146718867Y-60920450D01*
X146653107Y-60986211D01*
X146653106Y-60986211D01*
X146372420Y-61266896D01*
X146118867Y-61266896D01*
X146118867Y-61247006D01*
X146103643Y-61210252D01*
X146075512Y-61182121D01*
X146038758Y-61166897D01*
X145998976Y-61166897D01*
X145962222Y-61182121D01*
X145934091Y-61210252D01*
X145918867Y-61247006D01*
X145645422Y-61247006D01*
X145384627Y-60986211D01*
X145318867Y-60920450D01*
X145253107Y-60986211D01*
X145253106Y-60986211D01*
X144972420Y-61266896D01*
X144718867Y-61266896D01*
X144718867Y-61247006D01*
X144703643Y-61210252D01*
X144675512Y-61182121D01*
X144638758Y-61166897D01*
X144598976Y-61166897D01*
X144562222Y-61182121D01*
X144534091Y-61210252D01*
X144518867Y-61247006D01*
X144245423Y-61247006D01*
X143902205Y-60903788D01*
X143902204Y-60903788D01*
X143893534Y-60917588D01*
X143893529Y-60917598D01*
X143833989Y-61087755D01*
X143833988Y-61087758D01*
X143813805Y-61266894D01*
X98000500Y-61266894D01*
X98000500Y-60550234D01*
X144255758Y-60550234D01*
X144255758Y-60550235D01*
X144618865Y-60913343D01*
X144618866Y-60913343D01*
X144894735Y-60637474D01*
X144965313Y-60566895D01*
X144945424Y-60547006D01*
X145218867Y-60547006D01*
X145218867Y-60586788D01*
X145234091Y-60623542D01*
X145262222Y-60651673D01*
X145298976Y-60666897D01*
X145338758Y-60666897D01*
X145375512Y-60651673D01*
X145403643Y-60623542D01*
X145418867Y-60586788D01*
X145418867Y-60566895D01*
X145672420Y-60566895D01*
X145672420Y-60566896D01*
X146018867Y-60913343D01*
X146294737Y-60637474D01*
X146365313Y-60566896D01*
X146365313Y-60566895D01*
X146345424Y-60547006D01*
X146618867Y-60547006D01*
X146618867Y-60586788D01*
X146634091Y-60623542D01*
X146662222Y-60651673D01*
X146698976Y-60666897D01*
X146738758Y-60666897D01*
X146775512Y-60651673D01*
X146803643Y-60623542D01*
X146818867Y-60586788D01*
X146818867Y-60566895D01*
X147072420Y-60566895D01*
X147072420Y-60566896D01*
X147418867Y-60913343D01*
X147418868Y-60913343D01*
X147781974Y-60550235D01*
X147768168Y-60541560D01*
X147598009Y-60482018D01*
X147597213Y-60481837D01*
X147596750Y-60481578D01*
X147591437Y-60479719D01*
X147591762Y-60478787D01*
X147536237Y-60447724D01*
X147506916Y-60394022D01*
X147506044Y-60394328D01*
X147504188Y-60389025D01*
X147503924Y-60388541D01*
X147503745Y-60387759D01*
X147444200Y-60217589D01*
X147435528Y-60203789D01*
X147435527Y-60203789D01*
X147072420Y-60566895D01*
X146818867Y-60566895D01*
X146818867Y-60547006D01*
X146803643Y-60510252D01*
X146775512Y-60482121D01*
X146738758Y-60466897D01*
X146698976Y-60466897D01*
X146662222Y-60482121D01*
X146634091Y-60510252D01*
X146618867Y-60547006D01*
X146345424Y-60547006D01*
X146018868Y-60220450D01*
X146018867Y-60220450D01*
X145672420Y-60566895D01*
X145418867Y-60566895D01*
X145418867Y-60547006D01*
X145403643Y-60510252D01*
X145375512Y-60482121D01*
X145338758Y-60466897D01*
X145298976Y-60466897D01*
X145262222Y-60482121D01*
X145234091Y-60510252D01*
X145218867Y-60547006D01*
X144945424Y-60547006D01*
X144602205Y-60203788D01*
X144602204Y-60203788D01*
X144593534Y-60217588D01*
X144593529Y-60217598D01*
X144533986Y-60387763D01*
X144533806Y-60388553D01*
X144533549Y-60389010D01*
X144531690Y-60394326D01*
X144530758Y-60394000D01*
X144499691Y-60449528D01*
X144445991Y-60478849D01*
X144446296Y-60479720D01*
X144441012Y-60481568D01*
X144440523Y-60481836D01*
X144439733Y-60482016D01*
X144269568Y-60541559D01*
X144269558Y-60541564D01*
X144255758Y-60550234D01*
X98000500Y-60550234D01*
X98000500Y-59850234D01*
X144955758Y-59850234D01*
X144955758Y-59850235D01*
X145318867Y-60213343D01*
X145318868Y-60213343D01*
X145681974Y-59850235D01*
X145681972Y-59850234D01*
X146355758Y-59850234D01*
X146355758Y-59850235D01*
X146718867Y-60213343D01*
X146718868Y-60213343D01*
X147081974Y-59850235D01*
X147068171Y-59841562D01*
X146898005Y-59782018D01*
X146718870Y-59761835D01*
X146718864Y-59761835D01*
X146539728Y-59782018D01*
X146539725Y-59782019D01*
X146369568Y-59841559D01*
X146369558Y-59841564D01*
X146355758Y-59850234D01*
X145681972Y-59850234D01*
X145668171Y-59841562D01*
X145498005Y-59782018D01*
X145318870Y-59761835D01*
X145318864Y-59761835D01*
X145139728Y-59782018D01*
X145139725Y-59782019D01*
X144969568Y-59841559D01*
X144969558Y-59841564D01*
X144955758Y-59850234D01*
X98000500Y-59850234D01*
X98000500Y-47124500D01*
X98020185Y-47057461D01*
X98072989Y-47011706D01*
X98124500Y-47000500D01*
X123394867Y-47000500D01*
X123461906Y-47020185D01*
G37*
%TD.AperFunction*%
%TD*%
M02*
