M48
; DRILL file {KiCad 8.0.5} date 2024-11-07T23:04:16-0500
; FORMAT={-:-/ absolute / inch / decimal}
; #@! TF.CreationDate,2024-11-07T23:04:16-05:00
; #@! TF.GenerationSoftware,Kicad,Pcbnew,8.0.5
; #@! TF.FileFunction,Plated,1,2,PTH
FMAT,2
INCH
; #@! TA.AperFunction,Plated,PTH,ComponentDrill
T1C0.0079
; #@! TA.AperFunction,Plated,PTH,ViaDrill
T2C0.0118
; #@! TA.AperFunction,Plated,PTH,ViaDrill
T3C0.0157
; #@! TA.AperFunction,Plated,PTH,ViaDrill
T4C0.0236
; #@! TA.AperFunction,Plated,PTH,ComponentDrill
T5C0.0236
; #@! TA.AperFunction,Plated,PTH,ComponentDrill
T6C0.0300
; #@! TA.AperFunction,Plated,PTH,ViaDrill
T7C0.0315
; #@! TA.AperFunction,Plated,PTH,ComponentDrill
T8C0.0512
; #@! TA.AperFunction,Plated,PTH,ComponentDrill
T9C0.0520
%
G90
G05
T1
X5.6937Y-2.4121
X5.6937Y-2.4672
X5.7212Y-2.3845
X5.7212Y-2.4396
X5.7212Y-2.4948
X5.7488Y-2.4121
X5.7488Y-2.4672
X5.7763Y-2.3845
X5.7763Y-2.4396
X5.7763Y-2.4948
X5.8039Y-2.4121
X5.8039Y-2.4672
T2
X3.9626Y-3.3681
X3.9656Y-3.6693
X3.978Y-4.4229
X3.978Y-4.9928
X3.9783Y-4.7037
X4.0974Y-1.9734
X4.2815Y-4.4153
X4.2815Y-4.6968
X4.2898Y-4.2169
X4.3513Y-4.1807
X4.3701Y-3.3612
X4.3718Y-3.6618
X4.6732Y-2.2441
X4.6791Y-1.9754
X5.0Y-3.9084
X5.0089Y-2.7086
X5.0187Y-2.4183
X5.0194Y-4.4719
X5.0194Y-4.6105
X5.0371Y-4.1965
X5.0925Y-2.5474
X5.0925Y-2.7057
X5.1233Y-2.1418
X5.124Y-2.2204
X5.1506Y-4.9901
X5.1634Y-3.2943
X5.1772Y-2.7076
X5.2303Y-3.2962
X5.3095Y-2.7052
X5.3792Y-2.1024
X5.497Y-3.249
X5.5069Y-2.1348
X5.5069Y-2.9449
X5.5148Y-3.0157
X5.5335Y-3.126
X5.6427Y-2.5984
X5.6588Y-4.1647
X5.9085Y-2.4094
X5.9154Y-2.6023
X6.0328Y-3.0564
X6.0797Y-2.1383
X6.1574Y-3.4295
X6.1586Y-3.5752
X6.2384Y-2.1356
X6.4105Y-4.2844
X6.413Y-3.9379
X6.4331Y-5.0853
X6.4778Y-3.2667
X6.5354Y-2.9094
X6.5748Y-2.811
X6.7054Y-4.2863
X6.7352Y-3.7559
X6.8302Y-4.4444
X6.8898Y-4.4449
X6.9016Y-1.9921
X6.9163Y-2.3169
X7.0982Y-4.0021
X7.0989Y-4.179
X7.2018Y-5.5108
X7.2047Y-5.2854
X7.2267Y-4.4445
X7.2638Y-4.4124
X7.2972Y-3.375
X7.3051Y-3.751
X7.3307Y-3.9636
X7.4045Y-1.9842
X7.4222Y-4.9262
X7.4308Y-4.6622
X7.4928Y-4.5941
X7.4938Y-5.03
X7.6564Y-4.5956
X7.6569Y-4.6997
X7.6584Y-4.9338
X7.6589Y-5.0375
X7.7323Y-4.8012
T3
X6.4961Y-3.4015
X6.811Y-3.6575
T4
X7.6102Y-4.3277
T6
X5.0Y-3.1063
X5.0Y-3.185
X5.0Y-3.2638
X5.0197Y-4.5433
X5.0197Y-4.7401
X5.0984Y-4.5433
X5.0984Y-4.7401
X5.1772Y-4.5433
X5.1772Y-4.7401
X5.1969Y-3.1063
X5.1969Y-3.185
X5.1969Y-3.2638
X6.4173Y-3.1063
X6.4173Y-3.185
X6.4173Y-3.2638
X6.6142Y-3.1063
X6.6142Y-3.185
X6.6142Y-3.2638
T7
X5.5694Y-3.7551
T8
X4.2136Y-5.3897
X4.4104Y-5.3897
X4.6073Y-5.3897
X4.7638Y-2.5354
X4.7638Y-2.7323
X4.8041Y-5.3897
X5.001Y-5.3897
X5.1978Y-5.3897
X6.4173Y-5.3897
X6.5354Y-4.5826
X6.5354Y-4.7795
X6.6142Y-5.3897
X6.811Y-5.3897
X6.8504Y-2.5354
X6.8504Y-2.7323
X7.0079Y-5.3897
X7.2047Y-5.3897
X7.4016Y-5.3897
T9
X5.4575Y-3.499
X5.4575Y-4.099
X5.5575Y-3.499
X5.5575Y-4.099
X5.6575Y-3.499
X5.6575Y-4.099
X5.7575Y-3.499
X5.7575Y-4.099
X5.8575Y-3.499
X5.8575Y-4.099
X5.9575Y-3.499
X5.9575Y-4.099
X6.0575Y-3.499
X6.0575Y-4.099
X6.1575Y-3.499
X6.1575Y-4.099
T5
G00X7.4713Y-4.6291
M15
G01X7.5146Y-4.6291
M16
G05
G00X7.4713Y-4.9693
M15
G01X7.5146Y-4.9693
M16
G05
G00X7.6417Y-4.6291
M15
G01X7.6732Y-4.6291
M16
G05
G00X7.6417Y-4.9693
M15
G01X7.6732Y-4.9693
M16
G05
M30
