%TF.GenerationSoftware,KiCad,Pcbnew,8.0.5*%
%TF.CreationDate,2024-11-07T23:04:13-05:00*%
%TF.ProjectId,LF02E1,4c463032-4531-42e6-9b69-6361645f7063,rev?*%
%TF.SameCoordinates,Original*%
%TF.FileFunction,Soldermask,Top*%
%TF.FilePolarity,Negative*%
%FSLAX46Y46*%
G04 Gerber Fmt 4.6, Leading zero omitted, Abs format (unit mm)*
G04 Created by KiCad (PCBNEW 8.0.5) date 2024-11-07 23:04:13*
%MOMM*%
%LPD*%
G01*
G04 APERTURE LIST*
G04 Aperture macros list*
%AMRoundRect*
0 Rectangle with rounded corners*
0 $1 Rounding radius*
0 $2 $3 $4 $5 $6 $7 $8 $9 X,Y pos of 4 corners*
0 Add a 4 corners polygon primitive as box body*
4,1,4,$2,$3,$4,$5,$6,$7,$8,$9,$2,$3,0*
0 Add four circle primitives for the rounded corners*
1,1,$1+$1,$2,$3*
1,1,$1+$1,$4,$5*
1,1,$1+$1,$6,$7*
1,1,$1+$1,$8,$9*
0 Add four rect primitives between the rounded corners*
20,1,$1+$1,$2,$3,$4,$5,0*
20,1,$1+$1,$4,$5,$6,$7,0*
20,1,$1+$1,$6,$7,$8,$9,0*
20,1,$1+$1,$8,$9,$2,$3,0*%
G04 Aperture macros list end*
%ADD10RoundRect,0.200000X-0.200000X-0.275000X0.200000X-0.275000X0.200000X0.275000X-0.200000X0.275000X0*%
%ADD11RoundRect,0.225000X0.225000X0.250000X-0.225000X0.250000X-0.225000X-0.250000X0.225000X-0.250000X0*%
%ADD12C,1.524000*%
%ADD13RoundRect,0.225000X-0.225000X-0.250000X0.225000X-0.250000X0.225000X0.250000X-0.225000X0.250000X0*%
%ADD14RoundRect,0.200000X0.275000X-0.200000X0.275000X0.200000X-0.275000X0.200000X-0.275000X-0.200000X0*%
%ADD15R,1.950000X1.950000*%
%ADD16C,1.950000*%
%ADD17RoundRect,0.200000X-0.275000X0.200000X-0.275000X-0.200000X0.275000X-0.200000X0.275000X0.200000X0*%
%ADD18C,0.650000*%
%ADD19RoundRect,0.050000X0.575000X-0.300000X0.575000X0.300000X-0.575000X0.300000X-0.575000X-0.300000X0*%
%ADD20RoundRect,0.050000X0.575000X-0.150000X0.575000X0.150000X-0.575000X0.150000X-0.575000X-0.150000X0*%
%ADD21O,2.304000X1.204000*%
%ADD22RoundRect,0.301000X0.701000X-0.301000X0.701000X0.301000X-0.701000X0.301000X-0.701000X-0.301000X0*%
%ADD23RoundRect,0.200000X0.200000X0.275000X-0.200000X0.275000X-0.200000X-0.275000X0.200000X-0.275000X0*%
%ADD24R,2.600000X2.600000*%
%ADD25C,2.600000*%
%ADD26R,1.500000X0.900000*%
%ADD27R,0.900000X1.500000*%
%ADD28C,0.600000*%
%ADD29R,3.900000X3.900000*%
%ADD30C,2.184000*%
%ADD31RoundRect,0.250000X-0.850000X-0.350000X0.850000X-0.350000X0.850000X0.350000X-0.850000X0.350000X0*%
%ADD32RoundRect,0.249997X-2.950003X-2.650003X2.950003X-2.650003X2.950003X2.650003X-2.950003X2.650003X0*%
%ADD33RoundRect,0.250000X0.850000X0.350000X-0.850000X0.350000X-0.850000X-0.350000X0.850000X-0.350000X0*%
%ADD34RoundRect,0.249997X2.950003X2.650003X-2.950003X2.650003X-2.950003X-2.650003X2.950003X-2.650003X0*%
G04 APERTURE END LIST*
D10*
%TO.C,R3*%
X128175000Y-59399267D03*
X129825000Y-59399267D03*
%TD*%
D11*
%TO.C,C2*%
X182740000Y-101659267D03*
X181190000Y-101659267D03*
%TD*%
%TO.C,C1*%
X182740000Y-106159267D03*
X181190000Y-106159267D03*
%TD*%
D12*
%TO.C,U6*%
X163000000Y-82899267D03*
X163000000Y-80899267D03*
X163000000Y-78899267D03*
X168000000Y-82899267D03*
X168000000Y-80899267D03*
X168000000Y-78899267D03*
%TD*%
D13*
%TO.C,C7*%
X112711624Y-106001063D03*
X114261624Y-106001063D03*
%TD*%
D14*
%TO.C,R2*%
X159500000Y-79049267D03*
X159500000Y-77399267D03*
%TD*%
D13*
%TO.C,C6*%
X112691924Y-101568494D03*
X114241924Y-101568494D03*
%TD*%
D11*
%TO.C,C4*%
X132550000Y-56399267D03*
X131000000Y-56399267D03*
%TD*%
%TO.C,C5*%
X132550000Y-54399267D03*
X131000000Y-54399267D03*
%TD*%
D15*
%TO.C,J2*%
X166000000Y-121399267D03*
D16*
X166000000Y-116399267D03*
%TD*%
D17*
%TO.C,R5*%
X184500000Y-112899267D03*
X184500000Y-114549267D03*
%TD*%
D15*
%TO.C,J3*%
X121000000Y-69399267D03*
D16*
X121000000Y-64399267D03*
%TD*%
D13*
%TO.C,C3*%
X128275000Y-61399267D03*
X129825000Y-61399267D03*
%TD*%
D17*
%TO.C,R1*%
X134250000Y-77424267D03*
X134250000Y-79074267D03*
%TD*%
D18*
%TO.C,J5*%
X190900000Y-124789267D03*
X190900000Y-119009267D03*
D19*
X189745000Y-125099267D03*
X189745000Y-124299267D03*
D20*
X189745000Y-123149267D03*
X189745000Y-122149267D03*
X189745000Y-121649267D03*
X189745000Y-120649267D03*
D19*
X189745000Y-118699267D03*
X189745000Y-119499267D03*
D20*
X189745000Y-120149267D03*
X189745000Y-121149267D03*
X189745000Y-122649267D03*
X189745000Y-123649267D03*
D21*
X190320000Y-126219267D03*
X190320000Y-117579267D03*
D22*
X194500000Y-126219267D03*
X194500000Y-117579267D03*
%TD*%
D12*
%TO.C,U4*%
X127500000Y-115399267D03*
X129500000Y-115399267D03*
X131500000Y-115399267D03*
X127500000Y-120399267D03*
X129500000Y-120399267D03*
X131500000Y-120399267D03*
%TD*%
D23*
%TO.C,R4*%
X191000000Y-129399267D03*
X189350000Y-129399267D03*
%TD*%
D12*
%TO.C,U3*%
X132000000Y-78899267D03*
X132000000Y-80899267D03*
X132000000Y-82899267D03*
X127000000Y-78899267D03*
X127000000Y-80899267D03*
X127000000Y-82899267D03*
%TD*%
D24*
%TO.C,J7*%
X163000000Y-136899267D03*
D25*
X168000000Y-136899267D03*
X173000000Y-136899267D03*
X178000000Y-136899267D03*
X183000000Y-136899267D03*
X188000000Y-136899267D03*
%TD*%
D26*
%TO.C,U5*%
X138768867Y-54246897D03*
X138768867Y-55516897D03*
X138768867Y-56786897D03*
X138768867Y-58056897D03*
X138768867Y-59326897D03*
X138768867Y-60596897D03*
X138768867Y-61866897D03*
X138768867Y-63136897D03*
X138768867Y-64406897D03*
X138768867Y-65676897D03*
X138768867Y-66946897D03*
X138768867Y-68216897D03*
X138768867Y-69486897D03*
X138768867Y-70756897D03*
D27*
X140533867Y-72006897D03*
X141803867Y-72006897D03*
X143073867Y-72006897D03*
X144343867Y-72006897D03*
X145613867Y-72006897D03*
X146883867Y-72006897D03*
X148153867Y-72006897D03*
X149423867Y-72006897D03*
X150693867Y-72006897D03*
X151963867Y-72006897D03*
X153233867Y-72006897D03*
X154503867Y-72006897D03*
D26*
X156268867Y-70756897D03*
X156268867Y-69486897D03*
X156268867Y-68216897D03*
X156268867Y-66946897D03*
X156268867Y-65676897D03*
X156268867Y-64406897D03*
X156268867Y-63136897D03*
X156268867Y-61866897D03*
X156268867Y-60596897D03*
X156268867Y-59326897D03*
X156268867Y-58056897D03*
X156268867Y-56786897D03*
X156268867Y-55516897D03*
X156268867Y-54246897D03*
D28*
X144618867Y-61266897D03*
X144618867Y-62666897D03*
X145318867Y-60566897D03*
X145318867Y-61966897D03*
X145318867Y-63366897D03*
X146018867Y-61266897D03*
D29*
X146018867Y-61966897D03*
D28*
X146018867Y-62666897D03*
X146718867Y-60566897D03*
X146718867Y-61966897D03*
X146718867Y-63366897D03*
X147418867Y-61266897D03*
X147418867Y-62666897D03*
%TD*%
D15*
%TO.C,J4*%
X174000000Y-64399267D03*
D16*
X174000000Y-69399267D03*
%TD*%
D30*
%TO.C,U1*%
X138621404Y-104114059D03*
X141161404Y-104114059D03*
X143701404Y-104114059D03*
X146241404Y-104114059D03*
X148781404Y-104114059D03*
X151321404Y-104114059D03*
X153861404Y-104114059D03*
X156401404Y-104114059D03*
X156401404Y-88874059D03*
X153861404Y-88874059D03*
X151321404Y-88874059D03*
X148781404Y-88874059D03*
X146241404Y-88874059D03*
X143701404Y-88874059D03*
X141161404Y-88874059D03*
X138621404Y-88874059D03*
%TD*%
D24*
%TO.C,J6*%
X107025000Y-136899267D03*
D25*
X112025000Y-136899267D03*
X117025000Y-136899267D03*
X122025000Y-136899267D03*
X127025000Y-136899267D03*
X132025000Y-136899267D03*
%TD*%
D31*
%TO.C,U7*%
X186200000Y-101619267D03*
X186200000Y-103899267D03*
D32*
X192500000Y-103899267D03*
D31*
X186200000Y-106179267D03*
%TD*%
D33*
%TO.C,U2*%
X108975000Y-106154267D03*
X108975000Y-103874267D03*
D34*
X102675000Y-103874267D03*
D33*
X108975000Y-101594267D03*
%TD*%
M02*
