
CASCADE Topology V1, (c) Matra-Datavision
Locations 8
1
1.000000000000000 0.000000000000000 0.000000000000000 0.000000000000000 
0.000000000000000 1.000000000000000 0.000000000000000 0.000000000000000 
0.000000000000000 0.000000000000000 1.000000000000000 0.000000000000000 
1
1.000000000000000 0.000000000000000 0.000000000000000 0.000000000000000 
0.000000000000000 1.000000000000000 0.000000000000000 0.000000000000000 
0.000000000000000 0.000000000000000 1.000000000000000 0.000000000000000 
1
1.000000000000000 0.000000000000000 0.000000000000000 0.000000000000000 
0.000000000000000 1.000000000000000 0.000000000000000 0.000000000000000 
0.000000000000000 0.000000000000000 1.000000000000000 0.000000000000000 
2  2 1 3 1 0
1
1.000000000000000 0.000000000000000 0.000000000000000 0.000000000000000 
0.000000000000000 1.000000000000000 0.000000000000000 0.000000000000000 
0.000000000000000 0.000000000000000 1.000000000000000 0.000000000000000 
1
1.000000000000000 0.000000000000000 0.000000000000000 2.000000000000000 
0.000000000000000 1.000000000000000 0.000000000000000 2.000000000000000 
0.000000000000000 0.000000000000000 1.000000000000000 3.000000000000000 
2  5 1 6 1 0
2  6 -1 5 -1 0
Curve2ds 48
1 0.00000000000000000 0.00000000000000000 1.00000000000000000 0.00000000000000000 
1 0.00000000000000000 0.00000000000000000 1.00000000000000000 0.00000000000000000 
1 5.00000000000000000 0.00000000000000000 0.00000000000000000 -1.00000000000000000 
1 0.00000000000000000 0.00000000000000000 0.00000000000000000 1.00000000000000000 
1 0.00000000000000000 -20.00000000000000000 1.00000000000000000 0.00000000000000000 
1 0.00000000000000000 0.00000000000000000 1.00000000000000000 0.00000000000000000 
1 0.00000000000000000 0.00000000000000000 0.00000000000000000 -1.00000000000000000 
1 0.00000000000000000 0.00000000000000000 0.00000000000000000 1.00000000000000000 
1 0.00000000000000000 0.00000000000000000 0.00000000000000000 1.00000000000000000 
1 0.00000000000000000 0.00000000000000000 1.00000000000000000 0.00000000000000000 
1 0.00000000000000000 0.00000000000000000 1.00000000000000000 0.00000000000000000 
1 0.00000000000000000 20.00000000000000000 1.00000000000000000 0.00000000000000000 
1 5.00000000000000000 0.00000000000000000 0.00000000000000000 1.00000000000000000 
1 0.00000000000000000 0.00000000000000000 1.00000000000000000 0.00000000000000000 
1 5.00000000000000000 0.00000000000000000 0.00000000000000000 1.00000000000000000 
1 0.00000000000000000 20.00000000000000000 1.00000000000000000 0.00000000000000000 
1 5.00000000000000000 0.00000000000000000 0.00000000000000000 -1.00000000000000000 
1 20.00000000000000000 0.00000000000000000 0.00000000000000000 1.00000000000000000 
8 -17.00000000000000000 -1.00000000000000000
1 1.00000000000000000 2.00000000000000000 -1.00000000000000000 0.00000000000000000 
8 -17.00000000000000000 -1.00000000000000000
1 2.00000000000000000 -1.00000000000000000 0.00000000000000000 -1.00000000000000000 
8 1.00000000000000000 17.00000000000000000
1 18.00000000000000000 1.00000000000000000 0.00000000000000000 1.00000000000000000 
8 1.00000000000000000 17.00000000000000000
1 2.00000000000000000 1.00000000000000000 0.00000000000000000 -1.00000000000000000 
8 -17.00000000000000000 -1.00000000000000000
1 1.00000000000000000 18.00000000000000000 -1.00000000000000000 0.00000000000000000 
8 -17.00000000000000000 -1.00000000000000000
1 2.00000000000000000 -1.00000000000000000 0.00000000000000000 -1.00000000000000000 
8 1.00000000000000000 17.00000000000000000
1 2.00000000000000000 1.00000000000000000 0.00000000000000000 1.00000000000000000 
8 1.00000000000000000 17.00000000000000000
1 2.00000000000000000 1.00000000000000000 0.00000000000000000 -1.00000000000000000 
1 0.00000000000000000 0.00000000000000000 0.00000000000000000 1.00000000000000000 
1 0.00000000000000000 20.00000000000000000 1.00000000000000000 0.00000000000000000 
1 0.00000000000000000 -20.00000000000000000 1.00000000000000000 0.00000000000000000 
1 0.00000000000000000 20.00000000000000000 1.00000000000000000 0.00000000000000000 
1 0.00000000000000000 0.00000000000000000 0.00000000000000000 -1.00000000000000000 
1 20.00000000000000000 0.00000000000000000 0.00000000000000000 1.00000000000000000 
1 0.00000000000000000 0.00000000000000000 1.00000000000000000 0.00000000000000000 
1 0.00000000000000000 16.00000000000000000 1.00000000000000000 0.00000000000000000 
1 0.00000000000000000 0.00000000000000000 1.00000000000000000 0.00000000000000000 
1 0.00000000000000000 0.00000000000000000 1.00000000000000000 0.00000000000000000 
1 0.00000000000000000 0.00000000000000000 0.00000000000000000 1.00000000000000000 
1 0.00000000000000000 0.00000000000000000 1.00000000000000000 0.00000000000000000 
1 0.00000000000000000 -16.00000000000000000 1.00000000000000000 0.00000000000000000 
1 0.00000000000000000 16.00000000000000000 1.00000000000000000 0.00000000000000000 
1 0.00000000000000000 0.00000000000000000 0.00000000000000000 -1.00000000000000000 
1 16.00000000000000000 0.00000000000000000 0.00000000000000000 1.00000000000000000 
1 0.00000000000000000 -16.00000000000000000 1.00000000000000000 0.00000000000000000 
1 0.00000000000000000 0.00000000000000000 1.00000000000000000 0.00000000000000000 
1 0.00000000000000000 0.00000000000000000 0.00000000000000000 1.00000000000000000 
1 0.00000000000000000 16.00000000000000000 1.00000000000000000 0.00000000000000000 
1 0.00000000000000000 0.00000000000000000 0.00000000000000000 -1.00000000000000000 
1 0.00000000000000000 0.00000000000000000 0.00000000000000000 1.00000000000000000 
Curves 24
1 0.00000000000000000 0.00000000000000000 0.00000000000000000 0.00000000000000000 0.00000000000000000 1.00000000000000000 
1 0.00000000000000000 0.00000000000000000 5.00000000000000000 -0.00000000000000000 1.00000000000000000 0.00000000000000000 
1 0.00000000000000000 20.00000000000000000 0.00000000000000000 0.00000000000000000 0.00000000000000000 1.00000000000000000 
1 0.00000000000000000 0.00000000000000000 0.00000000000000000 -0.00000000000000000 1.00000000000000000 0.00000000000000000 
1 0.00000000000000000 0.00000000000000000 0.00000000000000000 1.00000000000000000 0.00000000000000000 -0.00000000000000000 
1 20.00000000000000000 0.00000000000000000 0.00000000000000000 0.00000000000000000 0.00000000000000000 1.00000000000000000 
1 0.00000000000000000 0.00000000000000000 5.00000000000000000 1.00000000000000000 0.00000000000000000 -0.00000000000000000 
1 0.00000000000000000 20.00000000000000000 5.00000000000000000 1.00000000000000000 0.00000000000000000 -0.00000000000000000 
1 20.00000000000000000 0.00000000000000000 5.00000000000000000 -0.00000000000000000 1.00000000000000000 0.00000000000000000 
1 1.00000000000000000 2.00000000000000000 5.00000000000000000 -1.00000000000000000 0.00000000000000000 0.00000000000000000 
1 18.00000000000000000 1.00000000000000000 5.00000000000000000 0.00000000000000000 1.00000000000000000 0.00000000000000000 
1 1.00000000000000000 18.00000000000000000 5.00000000000000000 -1.00000000000000000 0.00000000000000000 0.00000000000000000 
1 2.00000000000000000 1.00000000000000000 5.00000000000000000 0.00000000000000000 1.00000000000000000 0.00000000000000000 
1 0.00000000000000000 20.00000000000000000 0.00000000000000000 1.00000000000000000 0.00000000000000000 -0.00000000000000000 
1 20.00000000000000000 20.00000000000000000 0.00000000000000000 0.00000000000000000 0.00000000000000000 1.00000000000000000 
1 20.00000000000000000 0.00000000000000000 0.00000000000000000 -0.00000000000000000 1.00000000000000000 0.00000000000000000 
1 16.00000000000000000 0.00000000000000000 0.00000000000000000 0.00000000000000000 0.00000000000000000 1.00000000000000000 
1 0.00000000000000000 0.00000000000000000 0.00000000000000000 0.00000000000000000 0.00000000000000000 1.00000000000000000 
1 0.00000000000000000 0.00000000000000000 0.00000000000000000 1.00000000000000000 0.00000000000000000 -0.00000000000000000 
1 16.00000000000000000 16.00000000000000000 0.00000000000000000 0.00000000000000000 0.00000000000000000 1.00000000000000000 
1 16.00000000000000000 0.00000000000000000 0.00000000000000000 -0.00000000000000000 1.00000000000000000 0.00000000000000000 
1 0.00000000000000000 16.00000000000000000 0.00000000000000000 0.00000000000000000 0.00000000000000000 1.00000000000000000 
1 0.00000000000000000 16.00000000000000000 0.00000000000000000 1.00000000000000000 0.00000000000000000 -0.00000000000000000 
1 0.00000000000000000 0.00000000000000000 0.00000000000000000 -0.00000000000000000 1.00000000000000000 0.00000000000000000 
Polygon3D 0
PolygonOnTriangulations 0
Surfaces 11
1 0.00000000000000000 0.00000000000000000 0.00000000000000000 1.00000000000000000 0.00000000000000000 -0.00000000000000000 0.00000000000000000 0.00000000000000000 1.00000000000000000 0.00000000000000000 -1.00000000000000000 0.00000000000000000 
1 0.00000000000000000 0.00000000000000000 0.00000000000000000 -0.00000000000000000 1.00000000000000000 0.00000000000000000 0.00000000000000000 0.00000000000000000 1.00000000000000000 1.00000000000000000 0.00000000000000000 -0.00000000000000000 
1 0.00000000000000000 0.00000000000000000 5.00000000000000000 0.00000000000000000 0.00000000000000000 1.00000000000000000 1.00000000000000000 0.00000000000000000 -0.00000000000000000 -0.00000000000000000 1.00000000000000000 0.00000000000000000 
1 0.00000000000000000 20.00000000000000000 0.00000000000000000 -0.00000000000000000 1.00000000000000000 0.00000000000000000 0.00000000000000000 0.00000000000000000 1.00000000000000000 1.00000000000000000 0.00000000000000000 -0.00000000000000000 
1 0.00000000000000000 0.00000000000000000 0.00000000000000000 0.00000000000000000 0.00000000000000000 1.00000000000000000 1.00000000000000000 0.00000000000000000 -0.00000000000000000 -0.00000000000000000 1.00000000000000000 0.00000000000000000 
1 20.00000000000000000 0.00000000000000000 0.00000000000000000 1.00000000000000000 0.00000000000000000 -0.00000000000000000 0.00000000000000000 0.00000000000000000 1.00000000000000000 0.00000000000000000 -1.00000000000000000 0.00000000000000000 
1 0.00000000000000000 0.00000000000000000 0.00000000000000000 -0.00000000000000000 1.00000000000000000 0.00000000000000000 0.00000000000000000 0.00000000000000000 1.00000000000000000 1.00000000000000000 0.00000000000000000 -0.00000000000000000 
1 16.00000000000000000 0.00000000000000000 0.00000000000000000 1.00000000000000000 0.00000000000000000 -0.00000000000000000 0.00000000000000000 0.00000000000000000 1.00000000000000000 0.00000000000000000 -1.00000000000000000 0.00000000000000000 
1 0.00000000000000000 16.00000000000000000 0.00000000000000000 -0.00000000000000000 1.00000000000000000 0.00000000000000000 0.00000000000000000 0.00000000000000000 1.00000000000000000 1.00000000000000000 0.00000000000000000 -0.00000000000000000 
1 0.00000000000000000 0.00000000000000000 0.00000000000000000 1.00000000000000000 0.00000000000000000 -0.00000000000000000 0.00000000000000000 0.00000000000000000 1.00000000000000000 0.00000000000000000 -1.00000000000000000 0.00000000000000000 
1 0.00000000000000000 0.00000000000000000 0.00000000000000000 0.00000000000000000 0.00000000000000000 1.00000000000000000 1.00000000000000000 0.00000000000000000 -0.00000000000000000 -0.00000000000000000 1.00000000000000000 0.00000000000000000 
Triangulations 0

TShapes 66
Ve
0.000000100000000
0.000000000000000 0.000000000000000 5.000000000000000
0 0

0101101
*
Ve
0.000000100000000
0.000000000000000 0.000000000000000 0.000000000000000
0 0

0101101
*
Ed
 0.000000100000000 1 1 0
1  1 0 0.000000000000000 5.000000000000000
2  1 1 0 0.000000000000000 5.000000000000000
2  2 2 0 0.000000000000000 5.000000000000000
0

0101000
-66 0 +65 0 *
Ve
0.000000100000000
0.000000000000000 20.000000000000000 5.000000000000000
0 0

0101101
*
Ed
 0.000000100000000 1 1 0
1  2 0 0.000000000000000 20.000000000000000
2  3 1 0 0.000000000000000 20.000000000000000
2  4 3 0 0.000000000000000 20.000000000000000
0

0101000
-63 0 +66 0 *
Ve
0.000000100000000
0.000000000000000 20.000000000000000 0.000000000000000
0 0

0101101
*
Ed
 0.000000100000000 1 1 0
1  3 0 0.000000000000000 5.000000000000000
2  5 1 0 0.000000000000000 5.000000000000000
2  6 4 0 0.000000000000000 5.000000000000000
0

0101000
-63 0 +61 0 *
Ed
 0.000000100000000 1 1 0
1  4 0 0.000000000000000 20.000000000000000
2  7 1 0 0.000000000000000 20.000000000000000
2  8 5 0 0.000000000000000 20.000000000000000
0

0101000
-61 0 +65 0 *
Wi

0101100
-64 0 -62 0 +60 0 +59 0 *
Fa
0  0.000000100000000 1 0

0111000
+58 0 *
Ve
0.000000100000000
20.000000000000000 0.000000000000000 0.000000000000000
0 0

0101101
*
Ed
 0.000000100000000 1 1 0
1  5 0 0.000000000000000 20.000000000000000
2  9 2 0 0.000000000000000 20.000000000000000
2  10 5 0 0.000000000000000 20.000000000000000
0

0101000
-56 0 +65 0 *
Ve
0.000000100000000
20.000000000000000 0.000000000000000 5.000000000000000
0 0

0101101
*
Ed
 0.000000100000000 1 1 0
1  6 0 0.000000000000000 5.000000000000000
2  11 6 0 0.000000000000000 5.000000000000000
2  12 2 0 0.000000000000000 5.000000000000000
0

0101000
-54 0 +56 0 *
Ed
 0.000000100000000 1 1 0
1  7 0 0.000000000000000 20.000000000000000
2  13 2 0 0.000000000000000 20.000000000000000
2  14 3 0 0.000000000000000 20.000000000000000
0

0101000
-54 0 +66 0 *
Wi

0101100
-55 0 -53 0 +52 0 +64 0 *
Fa
0  0.000000100000000 2 0

0111000
+51 0 *
Ve
0.000000100000000
20.000000000000000 20.000000000000000 5.000000000000000
0 0

0101101
*
Ed
 0.000000100000000 1 1 0
1  8 0 0.000000000000000 20.000000000000000
2  15 4 0 0.000000000000000 20.000000000000000
2  16 3 0 0.000000000000000 20.000000000000000
0

0101000
-49 0 +63 0 *
Ed
 0.000000100000000 1 1 0
1  9 0 0.000000000000000 20.000000000000000
2  17 6 0 0.000000000000000 20.000000000000000
2  18 3 0 0.000000000000000 20.000000000000000
0

0101000
-49 0 +54 0 *
Wi

0101100
-62 4 -48 4 +52 4 +47 4 *
Ve
0.000014556832454
18.000000000000000 2.000000000000000 5.000000000000000
0 0

0101101
*
Ve
0.000014556832454
2.000000000000000 2.000000000000000 5.000000000000000
0 0

0101101
*
Ed
 0.000014556832454 1 1 0
1  10 0 -17.000000000000000 -1.000000000000000
2  19 3 4 -17.000000000000000 -1.000000000000000
2  20 7 7 -17.000000000000000 -1.000000000000000
0

0101000
+45 0 -44 0 *
Ve
0.000014556832454
18.000000000000000 18.000000000000000 5.000000000000000
0 0

0101101
*
Ed
 0.000014556832454 1 1 0
1  11 0 1.000000000000000 17.000000000000000
2  21 3 4 1.000000000000000 17.000000000000000
2  22 8 7 1.000000000000000 17.000000000000000
0

0101000
+45 0 -42 0 *
Ve
0.000014556832454
2.000000000000000 18.000000000000000 5.000000000000000
0 0

0101101
*
Ed
 0.000014556832454 1 1 0
1  12 0 -17.000000000000000 -1.000000000000000
2  23 3 4 -17.000000000000000 -1.000000000000000
2  24 9 7 -17.000000000000000 -1.000000000000000
0

0101000
+42 0 -40 0 *
Ed
 0.000014556832454 1 1 0
1  13 0 1.000000000000000 17.000000000000000
2  25 3 4 1.000000000000000 17.000000000000000
2  26 10 7 1.000000000000000 17.000000000000000
0

0101000
+44 0 -40 0 *
Wi

0101100
+43 0 -41 0 -39 0 +38 0 *
Fa
0  0.000000100000000 3 4

0111000
+46 0 +37 0 *
Ve
0.000000100000000
20.000000000000000 20.000000000000000 0.000000000000000
0 0

0101101
*
Ed
 0.000000100000000 1 1 0
1  14 0 0.000000000000000 20.000000000000000
2  27 4 0 0.000000000000000 20.000000000000000
2  28 5 0 0.000000000000000 20.000000000000000
0

0101000
-35 0 +61 0 *
Ed
 0.000000100000000 1 1 0
1  15 0 0.000000000000000 5.000000000000000
2  29 6 0 0.000000000000000 5.000000000000000
2  30 4 0 0.000000000000000 5.000000000000000
0

0101000
-49 0 +35 0 *
Wi

0101100
-34 0 -33 0 +48 0 +60 0 *
Fa
0  0.000000100000000 4 0

0111000
+32 0 *
Ed
 0.000000100000000 1 1 0
1  16 0 0.000000000000000 20.000000000000000
2  31 6 0 0.000000000000000 20.000000000000000
2  32 5 0 0.000000000000000 20.000000000000000
0

0101000
-35 0 +56 0 *
Wi

0101100
-59 0 -34 0 +30 0 +55 0 *
Fa
0  0.000000100000000 5 0

0111000
+29 0 *
Wi

0101100
-53 0 -47 0 +33 0 +30 0 *
Fa
0  0.000000100000000 6 0

0111000
+27 0 *
Ve
0.000000100000000
16.000000000000000 0.000000000000000 0.000000000000000
0 0

0101101
*
Ed
 0.000000100000000 1 1 0
1  17 0 0.000000000000000 2.000000000000000
2  33 8 0 0.000000000000000 2.000000000000000
2  34 7 0 0.000000000000000 2.000000000000000
0

0101000
+25 0 -45 8 *
Ve
0.000000100000000
0.000000000000000 0.000000000000000 0.000000000000000
0 0

0101101
*
Ed
 0.000000100000000 1 1 0
1  18 0 0.000000000000000 2.000000000000000
2  35 10 0 0.000000000000000 2.000000000000000
2  36 7 0 0.000000000000000 2.000000000000000
0

0101000
+23 0 -44 8 *
Ed
 0.000000100000000 1 1 0
1  19 0 0.000000000000000 16.000000000000000
2  37 7 0 0.000000000000000 16.000000000000000
2  38 11 0 0.000000000000000 16.000000000000000
0

0101000
-25 0 +23 0 *
Wi

0101100
-24 7 -43 0 +22 7 -21 7 *
Fa
0  0.000000100000000 7 7

0111000
+20 0 *
Ve
0.000000100000000
16.000000000000000 16.000000000000000 0.000000000000000
0 0

0101101
*
Ed
 0.000000100000000 1 1 0
1  20 0 0.000000000000000 2.000000000000000
2  39 8 0 0.000000000000000 2.000000000000000
2  40 9 0 0.000000000000000 2.000000000000000
0

0101000
+18 0 -42 8 *
Ed
 0.000000100000000 1 1 0
1  21 0 0.000000000000000 16.000000000000000
2  41 8 0 0.000000000000000 16.000000000000000
2  42 11 0 0.000000000000000 16.000000000000000
0

0101000
-18 0 +25 0 *
Wi

0101100
-24 7 -41 0 +17 7 +16 7 *
Fa
0  0.000000100000000 8 7

0111000
+15 0 *
Ve
0.000000100000000
0.000000000000000 16.000000000000000 0.000000000000000
0 0

0101101
*
Ed
 0.000000100000000 1 1 0
1  22 0 0.000000000000000 2.000000000000000
2  43 10 0 0.000000000000000 2.000000000000000
2  44 9 0 0.000000000000000 2.000000000000000
0

0101000
+13 0 -40 8 *
Ed
 0.000000100000000 1 1 0
1  23 0 0.000000000000000 16.000000000000000
2  45 9 0 0.000000000000000 16.000000000000000
2  46 11 0 0.000000000000000 16.000000000000000
0

0101000
-18 0 +13 0 *
Wi

0101100
-17 7 -39 0 +12 7 -11 7 *
Fa
0  0.000000100000000 9 7

0111000
+10 0 *
Ed
 0.000000100000000 1 1 0
1  24 0 0.000000000000000 16.000000000000000
2  47 10 0 0.000000000000000 16.000000000000000
2  48 11 0 0.000000000000000 16.000000000000000
0

0101000
-13 0 +23 0 *
Wi

0101100
-22 7 -38 0 +12 7 +8 7 *
Fa
0  0.000000100000000 10 7

0111000
+7 0 *
Wi

0101100
-8 0 -11 0 +16 0 +21 0 *
Fa
0  0.000000100000000 11 0

0111000
+5 0 *
Sh

0101100
-57 4 -50 4 +36 0 +31 4 -28 4 +26 4 +19 0 -14 0 -9 0 +6 0 
+4 7 *
So

0100000
+3 0 *
Co

1100000
+2 0 *

+1 1 